# This file uses centimeters as units for non-parametric coordinates.

mtllib barCorner_Right_MESH.mtl
g default
v -21.404736 4.085002 -21.406288
v -21.404736 2.995275 -21.406288
v -21.404736 2.995275 -23.464991
v -21.404736 4.085002 -23.464991
v -19.404736 4.085002 -23.464991
v -19.404736 2.995275 -23.464991
v -19.404736 3.835499 -23.464991
v -19.404736 2.995275 -21.406288
v -19.404736 3.835499 -24.468736
v -19.404736 4.085002 -24.468736
v -23.331926 3.835499 -25.406287
v -22.412415 3.835499 -25.406287
v -22.412415 3.835499 -24.468736
v -23.331926 3.835499 -24.468736
v -22.412415 4.085002 -24.468736
v -23.331926 4.085002 -24.468736
v -22.412415 4.085002 -25.406287
v -23.331926 4.085002 -25.406287
v -19.404736 4.085002 -25.406287
v -19.404736 3.835499 -25.406287
v -19.404736 0.000000 -24.468736
v -22.412415 0.000000 -24.468736
v -21.404736 3.835499 -23.464991
v -21.404736 3.835499 -21.406288
v -19.404736 0.000000 -23.464991
v -22.412415 0.000000 -23.464991
v -22.412415 3.835499 -23.464991
v -23.331926 3.835499 -23.464991
v -23.331924 4.085002 -23.464991
v -22.412415 4.085002 -23.464991
v -19.404736 0.000000 -21.406288
v -22.412415 -0.000000 -21.406288
v -22.412415 3.835499 -21.406288
v -23.331926 3.835499 -21.406288
v -23.331926 4.085002 -21.406288
v -22.412415 4.085002 -21.406288
v -21.404736 4.085002 -24.468736
v -21.404736 4.085002 -25.406287
v -21.404736 3.835499 -25.406287
v -21.404736 3.835499 -24.468736
v -21.404736 0.000000 -24.468736
v -21.404736 0.000000 -23.464991
v -21.404736 0.000000 -21.406288
v -19.404736 2.995275 -24.468736
v -21.404736 2.995275 -24.468736
v -22.412415 2.995275 -24.468736
v -22.412415 2.995275 -23.464991
v -22.412415 2.995275 -21.406288
vt 0.820909 0.250000
vt 0.875000 0.250000
vt 0.875000 0.000000
vt 0.820909 0.000000
vt 0.409691 0.853030
vt 0.625000 0.853030
vt 0.625000 0.804091
vt 0.409691 0.829440
vt 0.409691 0.750000
vt 0.625000 0.750000
vt 0.625000 0.500000
vt 0.409691 0.500000
vt 0.375000 0.509436
vt 0.414299 0.509436
vt 0.125000 0.240564
vt 0.142411 0.240564
vt 0.167096 0.250000
vt 0.238749 0.283047
vt 0.217950 0.287013
vt 0.142528 0.250000
vt 0.203597 0.289299
vt 0.125000 0.250000
vt 0.375000 0.500000
vt 0.414299 0.500000
vt 0.125000 0.240564
vt 0.279302 0.317120
vt 0.267532 0.321266
vt 0.152533 0.240564
vt 0.167090 0.240564
vt 0.446266 0.509436
vt 0.256874 0.333416
vt 0.125000 0.153923
vt 0.152533 0.153923
vt 0.375000 0.509436
vt 0.420539 0.509436
vt 0.420539 0.596077
vt 0.375000 0.596077
vt 0.375000 0.750000
vt 0.420539 0.750000
vt 0.420539 0.777533
vt 0.375000 0.777533
vt 0.446266 0.500000
vt 0.771970 0.250000
vt 0.771970 0.000000
vt 0.409691 0.750000
vt 0.420539 0.981922
vt 0.375000 0.981922
vt 0.356922 0.153923
vt 0.356922 0.240564
vt 0.350299 0.240564
vt 0.349476 0.250000
vt 0.393150 0.253607
vt 0.290898 0.301234
vt 0.426188 0.254299
vt 0.395607 0.374196
vt 0.388735 0.381867
vt 0.506867 0.500000
vt 0.506867 0.509436
vt 0.506867 0.509436
vt 0.506867 0.596077
vt 0.506867 0.750000
vt 0.506867 0.777533
vt 0.506867 0.981922
vt 0.409034 0.359208
vt 0.125000 0.000000
vt 0.152533 0.000000
vt 0.356922 0.000000
vn 1.000000 0.000000 0.000000
vn 1.000000 0.000000 0.000000
vn 1.000000 0.000000 0.000000
vn 1.000000 0.000000 0.000000
vn 0.000000 0.000000 1.000000
vn 0.000000 0.000000 1.000000
vn 0.000000 0.000000 1.000000
vn 0.000000 0.000000 1.000000
vn 0.000000 1.000000 0.000000
vn 0.000000 1.000000 0.000000
vn 0.000000 1.000000 0.000000
vn 0.000000 1.000000 0.000000
vn 0.000000 -1.000000 0.000000
vn 0.000000 -1.000000 0.000000
vn 0.000000 -1.000000 0.000000
vn 0.000000 -1.000000 0.000000
vn 0.000000 1.000000 0.000000
vn 0.000000 1.000000 0.000000
vn 0.000000 1.000000 0.000000
vn 0.000000 1.000000 0.000000
vn 0.000000 1.000000 0.000000
vn 0.000000 1.000000 0.000000
vn 0.000000 1.000000 0.000000
vn 0.000000 1.000000 0.000000
vn 0.000000 0.000000 -1.000000
vn 0.000000 0.000000 -1.000000
vn 0.000000 0.000000 -1.000000
vn 0.000000 0.000000 -1.000000
vn -1.000000 0.000000 0.000000
vn -1.000000 0.000000 0.000000
vn -1.000000 0.000000 0.000000
vn -1.000000 0.000000 0.000000
vn 0.000000 1.000000 0.000000
vn 0.000000 1.000000 0.000000
vn 0.000000 -1.000000 0.000000
vn -0.000000 -1.000000 0.000000
vn -0.000000 -1.000000 0.000000
vn -0.000000 -1.000000 0.000000
vn -1.000000 0.000000 0.000000
vn -1.000000 0.000008 0.000000
vn -1.000000 0.000008 0.000001
vn -1.000000 0.000015 0.000000
vn 0.000000 -1.000000 0.000000
vn 0.000000 -1.000000 0.000000
vn 0.000000 -1.000000 0.000000
vn 0.000000 -1.000000 0.000000
vn -1.000000 0.000000 0.000000
vn -1.000000 0.000000 0.000000
vn -1.000000 0.000000 0.000000
vn -1.000000 0.000000 0.000000
vn 0.000000 0.000000 -1.000000
vn 0.000000 0.000000 -1.000000
vn 0.000000 0.000000 -1.000000
vn 0.000000 0.000000 -1.000000
vn 0.000000 -1.000000 0.000000
vn 0.000000 -1.000000 0.000000
vn 0.000000 -1.000000 -0.000000
vn 0.000000 -1.000000 -0.000000
vn 0.000000 0.000000 -1.000000
vn 0.000000 0.000000 -1.000000
vn 1.000000 0.000000 0.000000
vn 1.000000 0.000000 0.000000
vn 0.000000 0.000000 1.000000
vn 0.000000 0.000000 1.000000
vn 0.000000 0.000000 1.000000
vn 0.000000 0.000000 1.000000
vn 0.000000 -1.000000 -0.000000
vn 0.000000 -1.000000 0.000000
vn -1.000000 0.000000 0.000000
vn -1.000000 0.000000 0.000000
vn -0.000000 -1.000000 0.000000
vn 0.000000 -1.000000 0.000000
vn -1.000000 0.000007 -0.000000
vn -1.000000 0.000000 0.000000
vn 0.000000 1.000000 -0.000000
vn 0.000000 1.000000 -0.000000
vn 0.000000 1.000000 0.000000
vn 0.000000 1.000000 0.000000
vn 0.000000 1.000000 0.000000
vn 0.000000 1.000000 0.000000
vn 0.000000 1.000000 0.000000
vn 0.000000 1.000000 0.000000
vn 0.000000 0.000000 -1.000000
vn 0.000000 0.000000 -1.000000
vn 0.000000 -1.000000 0.000000
vn 0.000000 -1.000000 0.000000
vn 0.000000 0.000000 -1.000000
vn 0.000000 0.000000 -1.000000
vn 0.000000 -1.000000 0.000000
vn 0.000000 -1.000000 0.000000
vn 0.000000 -1.000000 0.000000
vn 0.000000 1.000000 0.000000
vn 0.000000 1.000000 0.000000
vn 0.000000 1.000000 0.000000
vn 0.000000 1.000000 0.000000
vn 0.000000 0.000000 -1.000000
vn 0.000000 0.000000 -1.000000
vn 0.000000 0.000000 -1.000000
vn -1.000000 0.000000 0.000000
vn -1.000000 0.000000 0.000000
vn -1.000000 0.000000 0.000000
s 1
g polySurface24 polySurface14 polySurface13
usemtl initialShadingGroup
f 24/1/1 2/2/2 23/4/3
f 23/4/3 2/2/2 3/3/4
s 2
f 5/5/5 4/6/6 7/8/7
f 7/8/7 4/6/6 23/7/8
s 3
f 6/9/9 3/10/10 8/12/11
f 8/12/11 3/10/10 2/11/12
s 4
f 11/13/13 12/14/14 14/16/15
f 14/16/15 12/14/14 13/15/16
s 5
f 29/17/17 30/18/18 16/20/19
f 16/20/19 30/18/18 15/19/20
s 6
f 16/20/21 15/19/22 18/22/23
f 18/22/23 15/19/22 17/21/24
s 7
f 18/23/25 17/24/26 11/13/27
f 11/13/27 17/24/26 12/14/28
s 8
f 11/25/29 14/16/30 18/22/31
f 18/22/31 14/16/30 16/20/32
s 6
f 15/19/22 37/26/33 17/21/24
f 17/21/24 37/26/33 38/27/34
s 9
f 13/15/35 27/28/36 14/16/37
f 14/16/37 27/28/36 28/29/38
s 10
f 14/16/39 28/29/40 16/20/41
f 16/20/41 28/29/40 29/17/42
s 11
f 13/15/43 12/14/44 40/31/45
f 40/31/45 12/14/44 39/30/46
s 12
f 46/32/47 47/33/48 13/15/49
f 13/15/49 47/33/48 27/28/50
s 13
f 13/34/51 40/35/52 46/37/53
f 46/37/53 40/35/52 45/36/54
s 14
f 22/38/55 41/39/56 26/41/57
f 26/41/57 41/39/56 42/40/58
s 7
f 17/24/26 38/42/59 12/14/28
f 12/14/28 38/42/59 39/30/60
s 1
f 1/43/61 24/1/1 4/44/62
f 4/44/62 24/1/1 23/4/3
s 15
f 7/8/63 23/7/64 6/45/65
f 6/45/65 23/7/64 3/10/66
s 14
f 26/41/57 42/40/58 32/47/67
f 32/47/67 42/40/58 43/46/68
s 12
f 27/28/50 47/33/48 33/49/69
f 33/49/69 47/33/48 48/48/70
s 9
f 28/29/38 27/28/36 34/50/71
f 34/50/71 27/28/36 33/49/72
s 10
f 29/17/42 28/29/40 35/51/73
f 35/51/73 28/29/40 34/50/74
s 5
f 35/51/75 36/52/76 29/17/17
f 29/17/17 36/52/76 30/18/18
f 4/53/77 37/26/78 30/18/18
f 30/18/18 37/26/78 15/19/20
f 4/53/79 30/18/18 1/54/80
f 1/54/80 30/18/18 36/52/76
s 6
f 37/26/33 10/55/81 38/27/34
f 38/27/34 10/55/81 19/56/82
s 7
f 39/30/60 38/42/59 20/58/83
f 20/58/83 38/42/59 19/57/84
s 11
f 40/31/45 39/30/46 9/59/85
f 9/59/85 39/30/46 20/58/86
s 13
f 45/36/54 40/35/52 44/60/87
f 44/60/87 40/35/52 9/59/88
s 14
f 42/40/58 41/39/56 25/62/89
f 25/62/89 41/39/56 21/61/90
f 43/46/68 42/40/58 31/63/91
f 31/63/91 42/40/58 25/62/89
s 16
f 4/53/92 5/64/93 37/26/94
f 37/26/94 5/64/93 10/55/95
s 13
f 41/39/96 45/36/54 21/61/97
f 21/61/97 45/36/54 44/60/87
f 46/37/53 45/36/54 22/38/98
f 22/38/98 45/36/54 41/39/96
s 12
f 22/65/99 26/66/100 46/32/47
f 46/32/47 26/66/100 47/33/48
f 48/48/70 47/33/48 32/67/101
f 32/67/101 47/33/48 26/66/100
