# This file uses centimeters as units for non-parametric coordinates.

mtllib barCorner_Left_MESH.mtl
g default
v -21.404736 2.995275 -15.227525
v -21.404736 3.835499 -15.227525
v -19.404737 4.085002 -15.227525
v -21.404736 4.085002 -15.227525
v -19.404737 3.835499 -15.227525
v -19.404737 2.995275 -15.227525
v -23.331928 3.835499 -13.286228
v -22.412416 3.835499 -13.286228
v -22.412416 3.835499 -14.223779
v -23.331928 3.835499 -14.223779
v -23.331926 4.085002 -15.227525
v -22.412416 4.085002 -15.227525
v -22.412416 4.085002 -14.223779
v -23.331928 4.085002 -14.223779
v -22.412416 4.085002 -13.286228
v -23.331928 4.085002 -13.286228
v -21.404736 4.085002 -14.223779
v -21.404736 4.085002 -13.286228
v -22.412415 3.835499 -15.227525
v -23.331928 3.835499 -15.227525
v -21.404736 3.835499 -13.286228
v -21.404736 3.835499 -14.223779
v -22.412416 2.995275 -14.223779
v -22.412415 2.995275 -15.227525
v -21.404736 2.995275 -14.223779
v -22.412416 0.000000 -14.223779
v -21.404736 0.000000 -14.223779
v -21.404736 0.000000 -15.227525
v -22.412415 -0.000000 -15.227525
v -19.404737 4.085002 -14.223779
v -19.404737 4.085002 -13.286228
v -19.404737 3.835499 -13.286228
v -19.404737 3.835499 -14.223779
v -19.404737 2.995275 -14.223779
v -19.404737 0.000000 -14.223779
v -19.404737 0.000000 -15.227525
v -21.404736 2.995275 -17.286228
v -21.404736 3.835499 -17.286228
v -19.404737 2.995275 -17.286228
v -21.404736 4.085002 -17.286228
v -22.412416 -0.000000 -17.286228
v -21.404736 -0.000000 -17.286228
v -22.412416 3.835499 -17.286228
v -22.412416 2.995275 -17.286228
v -23.331928 3.835499 -17.286228
v -23.331928 4.085002 -17.286228
v -22.412416 4.085002 -17.286228
v -19.404737 0.000000 -17.286228
vt 0.820909 0.250000
vt 0.820909 0.000000
vt 0.875000 0.000000
vt 0.875000 0.250000
vt 0.409691 0.853030
vt 0.409691 0.829440
vt 0.625000 0.804091
vt 0.625000 0.853030
vt 0.409691 0.750000
vt 0.409691 0.500000
vt 0.625000 0.500000
vt 0.625000 0.750000
vt 0.375000 0.509436
vt 0.142411 0.240564
vt 0.125000 0.240564
vt 0.414299 0.509436
vt 0.167096 0.250000
vt 0.142528 0.250000
vt 0.217950 0.287013
vt 0.238749 0.283047
vt 0.125000 0.250000
vt 0.203597 0.289299
vt 0.375000 0.500000
vt 0.414299 0.500000
vt 0.125000 0.240564
vt 0.267532 0.321266
vt 0.279302 0.317120
vt 0.167090 0.240564
vt 0.152533 0.240564
vt 0.256874 0.333416
vt 0.446266 0.509436
vt 0.125000 0.153923
vt 0.152533 0.153923
vt 0.375000 0.509436
vt 0.375000 0.596077
vt 0.420539 0.596077
vt 0.420539 0.509436
vt 0.375000 0.750000
vt 0.375000 0.777533
vt 0.420539 0.777533
vt 0.420539 0.750000
vt 0.446266 0.500000
vt 0.771970 0.250000
vt 0.771970 0.000000
vt 0.409691 0.750000
vt 0.375000 0.981922
vt 0.420539 0.981922
vt 0.356922 0.240564
vt 0.356922 0.153923
vt 0.350299 0.240564
vt 0.349476 0.250000
vt 0.393150 0.253607
vt 0.290898 0.301234
vt 0.426188 0.254299
vt 0.388735 0.381867
vt 0.395607 0.374196
vt 0.506867 0.509436
vt 0.506867 0.500000
vt 0.506867 0.509436
vt 0.506867 0.596077
vt 0.506867 0.777533
vt 0.506867 0.750000
vt 0.506867 0.981922
vt 0.409034 0.359208
vt 0.125000 0.000000
vt 0.152533 0.000000
vt 0.356922 0.000000
vn 1.000000 0.000000 0.000000
vn 1.000000 0.000000 0.000000
vn 1.000000 0.000000 0.000000
vn 1.000000 0.000000 0.000000
vn 0.000000 0.000000 -1.000000
vn 0.000000 0.000000 -1.000000
vn 0.000000 0.000000 -1.000000
vn 0.000000 0.000000 -1.000000
vn 0.000000 1.000000 0.000000
vn 0.000000 1.000000 0.000000
vn 0.000000 1.000000 0.000000
vn 0.000000 1.000000 0.000000
vn 0.000000 -1.000000 0.000000
vn 0.000000 -1.000000 0.000000
vn 0.000000 -1.000000 0.000000
vn 0.000000 -1.000000 0.000000
vn 0.000000 1.000000 0.000000
vn 0.000000 1.000000 0.000000
vn 0.000000 1.000000 0.000000
vn 0.000000 1.000000 0.000000
vn 0.000000 1.000000 0.000000
vn 0.000000 1.000000 0.000000
vn 0.000000 1.000000 0.000000
vn 0.000000 1.000000 0.000000
vn 0.000000 0.000000 1.000000
vn 0.000000 0.000000 1.000000
vn 0.000000 0.000000 1.000000
vn 0.000000 0.000000 1.000000
vn -1.000000 0.000000 0.000000
vn -1.000000 0.000000 0.000000
vn -1.000000 0.000000 0.000000
vn -1.000000 0.000000 0.000000
vn 0.000000 1.000000 0.000000
vn 0.000000 1.000000 0.000000
vn 0.000000 -1.000000 -0.000000
vn -0.000000 -1.000000 -0.000000
vn -0.000000 -1.000000 -0.000000
vn -0.000000 -1.000000 0.000000
vn -1.000000 0.000000 0.000000
vn -1.000000 0.000000 -0.000001
vn -1.000000 0.000000 -0.000000
vn -1.000000 0.000000 -0.000000
vn 0.000000 -1.000000 0.000000
vn 0.000000 -1.000000 0.000000
vn 0.000000 -1.000000 0.000000
vn 0.000000 -1.000000 0.000000
vn -1.000000 0.000000 -0.000002
vn -1.000000 0.000000 -0.000002
vn -1.000000 0.000000 -0.000000
vn -1.000000 0.000000 -0.000000
vn 0.000000 0.000000 1.000000
vn 0.000000 0.000000 1.000000
vn 0.000000 0.000000 1.000000
vn 0.000000 0.000000 1.000000
vn -0.000000 -1.000000 0.000000
vn 0.000000 -1.000000 0.000000
vn -0.000000 -1.000000 0.000000
vn 0.000000 -1.000000 0.000000
vn 0.000000 0.000000 1.000000
vn 0.000000 0.000000 1.000000
vn 1.000000 0.000000 0.000000
vn 1.000000 0.000000 0.000000
vn 0.000000 0.000000 -1.000000
vn 0.000000 0.000000 -1.000000
vn 0.000000 0.000000 -1.000000
vn 0.000000 0.000000 -1.000000
vn 0.000000 -1.000000 0.000000
vn 0.000000 -1.000000 0.000000
vn -1.000000 0.000000 0.000001
vn -1.000000 0.000000 0.000001
vn -0.000000 -1.000000 0.000000
vn 0.000000 -1.000000 0.000000
vn -1.000000 0.000000 0.000000
vn -1.000000 0.000000 0.000000
vn 0.000000 1.000000 0.000000
vn 0.000000 1.000000 0.000000
vn 0.000000 1.000000 0.000000
vn 0.000000 1.000000 0.000000
vn 0.000000 1.000000 0.000000
vn 0.000000 1.000000 0.000000
vn 0.000000 1.000000 0.000000
vn 0.000000 1.000000 0.000000
vn 0.000000 0.000000 1.000000
vn 0.000000 0.000000 1.000000
vn 0.000000 -1.000000 0.000000
vn 0.000000 -1.000000 0.000000
vn 0.000000 0.000000 1.000000
vn 0.000000 0.000000 1.000000
vn -0.000000 -1.000000 0.000000
vn -0.000000 -1.000000 0.000000
vn 0.000000 -1.000000 0.000000
vn 0.000000 1.000000 0.000000
vn 0.000000 1.000000 0.000000
vn 0.000000 1.000000 0.000000
vn 0.000000 1.000000 0.000000
vn 0.000000 0.000000 1.000000
vn 0.000000 0.000000 1.000000
vn 0.000000 0.000000 1.000000
vn -1.000000 0.000000 -0.000002
vn -1.000000 0.000000 -0.000001
vn -1.000000 0.000000 0.000001
s 1
g polySurface25 polySurface14 polySurface13
usemtl initialShadingGroup
f 38/1/1 2/2/2 37/4/3
f 37/4/3 2/2/2 1/3/4
s 2
f 3/5/5 5/6/6 4/8/7
f 4/8/7 5/6/6 2/7/8
s 3
f 6/9/9 39/10/10 1/12/11
f 1/12/11 39/10/10 37/11/12
s 4
f 7/13/13 10/14/14 8/16/15
f 8/16/15 10/14/14 9/15/16
s 5
f 11/17/17 14/18/18 12/20/19
f 12/20/19 14/18/18 13/19/20
s 6
f 14/18/21 16/21/22 13/19/23
f 13/19/23 16/21/22 15/22/24
s 7
f 16/23/25 7/13/26 15/24/27
f 15/24/27 7/13/26 8/16/28
s 8
f 7/25/29 16/21/30 10/14/31
f 10/14/31 16/21/30 14/18/32
s 6
f 13/19/23 15/22/24 17/27/33
f 17/27/33 15/22/24 18/26/34
s 9
f 9/15/35 10/14/36 19/29/37
f 19/29/37 10/14/36 20/28/38
s 10
f 10/14/39 14/18/40 20/28/41
f 20/28/41 14/18/40 11/17/42
s 11
f 9/15/43 22/30/44 8/16/45
f 8/16/45 22/30/44 21/31/46
s 12
f 23/32/47 9/15/48 24/33/49
f 24/33/49 9/15/48 19/29/50
s 13
f 9/34/51 23/35/52 22/37/53
f 22/37/53 23/35/52 25/36/54
s 14
f 26/38/55 29/39/56 27/41/57
f 27/41/57 29/39/56 28/40/58
s 7
f 15/24/27 8/16/28 18/42/59
f 18/42/59 8/16/28 21/31/60
s 1
f 40/43/61 4/44/62 38/1/1
f 38/1/1 4/44/62 2/2/2
s 15
f 5/6/63 6/45/64 2/7/65
f 2/7/65 6/45/64 1/12/66
s 14
f 29/39/56 41/46/67 28/40/58
f 28/40/58 41/46/67 42/47/68
s 12
f 19/29/50 43/48/69 24/33/49
f 24/33/49 43/48/69 44/49/70
s 9
f 20/28/38 45/50/71 19/29/37
f 19/29/37 45/50/71 43/48/72
s 10
f 11/17/42 46/51/73 20/28/41
f 20/28/41 46/51/73 45/50/74
s 5
f 46/51/75 11/17/17 47/52/76
f 47/52/76 11/17/17 12/20/19
f 4/53/77 12/20/19 17/27/78
f 17/27/78 12/20/19 13/19/20
f 4/53/79 40/54/80 12/20/19
f 12/20/19 40/54/80 47/52/76
s 6
f 17/27/33 18/26/34 30/56/81
f 30/56/81 18/26/34 31/55/82
s 7
f 21/31/60 32/57/83 18/42/59
f 18/42/59 32/57/83 31/58/84
s 11
f 22/30/44 33/59/85 21/31/46
f 21/31/46 33/59/85 32/57/86
s 13
f 25/36/54 34/60/87 22/37/53
f 22/37/53 34/60/87 33/59/88
s 14
f 28/40/58 36/61/89 27/41/57
f 27/41/57 36/61/89 35/62/90
f 42/47/68 48/63/91 28/40/58
f 28/40/58 48/63/91 36/61/89
s 16
f 4/53/92 17/27/93 3/64/94
f 3/64/94 17/27/93 30/56/95
s 13
f 27/41/96 35/62/97 25/36/54
f 25/36/54 35/62/97 34/60/87
f 23/35/52 26/38/98 25/36/54
f 25/36/54 26/38/98 27/41/96
s 12
f 26/65/99 23/32/47 29/66/100
f 29/66/100 23/32/47 24/33/49
f 44/49/70 41/67/101 24/33/49
f 24/33/49 41/67/101 29/66/100
