# This file uses centimeters as units for non-parametric coordinates.

mtllib railingPost.mtl
g default
v -22.472978 1.135194 -18.363809
v -22.442977 1.135194 -18.363809
v -22.472999 1.136168 -18.393598
v -22.442999 1.136168 -18.393598
v -22.442977 -0.000000 -18.393809
v -22.472978 -0.000000 -18.393809
v -22.472978 -0.000000 -18.363809
v -22.442977 -0.000000 -18.363809
vt 0.375000 0.250000
vt 0.625000 0.250000
vt 0.375000 0.500000
vt 0.625000 0.500000
vt 0.875000 0.250000
vt 0.125000 0.250000
vt 0.625000 0.625000
vt 0.875000 0.125000
vt 0.125000 0.125000
vt 0.375000 0.625000
vt 0.375000 0.125000
vt 0.625000 0.125000
vn 0.000000 0.000000 1.000000
vn 0.000000 0.000000 1.000000
vn 0.000000 0.000000 1.000000
vn 0.000000 0.000000 1.000000
vn 0.000000 0.000186 -1.000000
vn 0.000000 0.000186 -1.000000
vn 0.000000 0.000186 -1.000000
vn 0.000000 0.000186 -1.000000
vn 1.000000 0.000009 -0.000359
vn 1.000000 0.000009 -0.000359
vn 1.000000 0.000009 -0.000359
vn 1.000000 0.000009 -0.000359
vn -1.000000 -0.000010 0.000359
vn -1.000000 -0.000010 0.000359
vn -1.000000 -0.000010 0.000359
vn -1.000000 -0.000010 0.000359
vn 0.000000 0.999466 0.032679
vn 0.000000 0.999466 0.032679
vn 0.000000 0.999466 0.032679
vn 0.000000 0.999466 0.032679
s off
g pCube37
usemtl initialShadingGroup
f 7/11/1 8/12/2 2/2/3 1/1/4
f 3/3/5 4/4/6 5/7/7 6/10/8
f 8/12/9 5/8/10 4/5/11 2/2/12
f 6/9/13 7/11/14 1/1/15 3/6/16
f 2/2/17 4/4/18 3/6/19 1/1/20
