# This file uses centimeters as units for non-parametric coordinates.

mtllib roundTable_MESH.mtl
g default
v -11.876786 3.000000 -19.403312
v -13.540439 3.000000 -19.388794
v -14.706551 3.000000 -18.202148
v -14.692033 3.000000 -16.538496
v -13.505387 3.000000 -15.372383
v -11.841736 3.000000 -15.386901
v -10.675622 3.000000 -16.573547
v -10.690140 3.000000 -18.237200
v -12.600433 3.000000 -17.612224
v -12.785644 3.000000 -17.610609
v -12.691087 3.000000 -17.387848
v -12.915464 3.000000 -17.478502
v -12.913848 3.000000 -17.293291
v -12.781741 3.000000 -17.163471
v -12.596531 3.000000 -17.165087
v -12.466710 3.000000 -17.297194
v -12.468324 3.000000 -17.482405
v -12.785644 2.828655 -17.610609
v -12.915464 2.828655 -17.478502
v -12.913848 2.828655 -17.293291
v -12.781741 2.828655 -17.163471
v -12.596531 2.828655 -17.165087
v -12.466710 2.828655 -17.297194
v -12.468324 2.828655 -17.482405
v -12.600433 2.828655 -17.612224
v -11.876786 2.828655 -19.403312
v -10.690140 2.828655 -18.237200
v -10.675622 2.828655 -16.573547
v -11.841736 2.828655 -15.386901
v -13.505387 2.828655 -15.372383
v -14.692033 2.828655 -16.538496
v -14.706551 2.828655 -18.202148
v -13.540439 2.828655 -19.388794
v -12.600433 1.468856 -17.612224
v -12.785644 1.468856 -17.610609
v -12.915464 1.468856 -17.478501
v -12.913848 1.468856 -17.293291
v -12.781741 1.468856 -17.163471
v -12.596531 1.468856 -17.165086
v -12.466711 1.468856 -17.297194
v -12.468325 1.468856 -17.482405
v -12.600434 0.598426 -17.612223
v -12.466712 0.598426 -17.297193
v -12.468326 0.598426 -17.482404
v -10.700974 0.000001 -17.446273
v -10.870075 0.001138 -17.446273
v -10.700974 0.000001 -17.333324
v -10.870075 0.001138 -17.333324
v -11.605656 0.475038 -17.315668
v -11.605656 0.690120 -17.315668
v -11.606446 0.690120 -17.463929
v -11.606446 0.475038 -17.463929
v -12.071864 0.831659 -17.306128
v -12.073079 0.831659 -17.473469
v -12.073079 0.557550 -17.473469
v -12.071864 0.557550 -17.306128
v -11.108093 0.400048 -17.327636
v -11.108435 0.400048 -17.455895
v -11.203546 0.290154 -17.455895
v -11.203205 0.290154 -17.327636
v -12.915463 0.598426 -17.478501
v -12.785644 0.598426 -17.610609
v -12.749513 0.000001 -19.377960
v -12.749513 0.001138 -19.208861
v -12.636564 0.000001 -19.377960
v -12.636564 0.001138 -19.208859
v -12.618908 0.475038 -18.473278
v -12.618908 0.690120 -18.473278
v -12.767170 0.690120 -18.472490
v -12.767170 0.475038 -18.472490
v -12.609368 0.831659 -18.007070
v -12.776709 0.831659 -18.005856
v -12.776708 0.557550 -18.005856
v -12.609368 0.557550 -18.007070
v -12.630875 0.400048 -18.970841
v -12.759135 0.400048 -18.970499
v -12.759135 0.290154 -18.875388
v -12.630875 0.290154 -18.875729
v -12.781741 0.598426 -17.163471
v -12.913848 0.598426 -17.293290
v -14.681200 0.000001 -17.329421
v -14.512100 0.001138 -17.329421
v -14.681200 0.000001 -17.442370
v -14.512100 0.001138 -17.442370
v -13.776517 0.475038 -17.460026
v -13.776517 0.690120 -17.460026
v -13.775729 0.690120 -17.311765
v -13.775729 0.475038 -17.311765
v -13.310310 0.831659 -17.469566
v -13.309094 0.831659 -17.302226
v -13.309094 0.557550 -17.302226
v -13.310310 0.557550 -17.469566
v -14.274081 0.400048 -17.448059
v -14.273739 0.400048 -17.319799
v -14.178626 0.290154 -17.319799
v -14.178968 0.290154 -17.448059
v -12.596531 0.598426 -17.165086
v -12.632661 0.000001 -15.397734
v -12.632661 0.001138 -15.566834
v -12.745611 0.000001 -15.397736
v -12.745611 0.001138 -15.566834
v -12.763267 0.475038 -16.302417
v -12.763267 0.690120 -16.302417
v -12.615005 0.690120 -16.303205
v -12.615005 0.475038 -16.303205
v -12.772807 0.831659 -16.768625
v -12.605465 0.831659 -16.769840
v -12.605465 0.557550 -16.769840
v -12.772807 0.557550 -16.768625
v -12.751299 0.400048 -15.804853
v -12.623040 0.400048 -15.805195
v -12.623040 0.290154 -15.900308
v -12.751299 0.290154 -15.899965
vt 0.375000 0.688440
vt 0.406250 0.688440
vt 0.437500 0.688440
vt 0.468750 0.688440
vt 0.500000 0.688440
vt 0.531250 0.688440
vt 0.562500 0.688440
vt 0.593750 0.688440
vt 0.625000 0.688440
vt 0.610485 0.733265
vt 0.500000 0.687500
vt 0.389515 0.733265
vt 0.343750 0.843750
vt 0.389515 0.954235
vt 0.500000 1.000000
vt 0.610485 0.954235
vt 0.656250 0.843750
vt 0.500000 0.837500
vt 0.610485 0.954235
vt 0.500000 1.000000
vt 0.389515 0.954235
vt 0.343750 0.843750
vt 0.389515 0.733265
vt 0.500000 0.687500
vt 0.610485 0.733265
vt 0.656250 0.843750
vt 0.500000 1.000000
vt 0.389515 0.954235
vt 0.343750 0.843750
vt 0.389515 0.733265
vt 0.500000 0.687500
vt 0.610485 0.733265
vt 0.656250 0.843750
vt 0.610485 0.954235
vt 0.625000 0.688440
vt 0.593750 0.688440
vt 0.562500 0.688440
vt 0.531250 0.688440
vt 0.500000 0.688440
vt 0.468750 0.688440
vt 0.437500 0.688440
vt 0.406250 0.688440
vt 0.375000 0.688440
vt 0.610485 0.954235
vt 0.500000 1.000000
vt 0.389515 0.954235
vt 0.343750 0.843750
vt 0.389515 0.733265
vt 0.500000 0.687500
vt 0.610485 0.733265
vt 0.656250 0.843750
vt 0.610485 0.954235
vt 0.500000 1.000000
vt 0.389515 0.954235
vt 0.343750 0.843750
vt 0.389515 0.733265
vt 0.500000 0.687500
vt 0.610485 0.733265
vt 0.656250 0.843750
vt 0.656250 0.843750
vt 0.656250 0.843750
vt 0.610485 0.733265
vt 0.610485 0.733265
vt 0.610485 0.954235
vt 0.656250 0.843750
vt 0.656250 0.843750
vt 0.610485 0.954235
vt 0.656250 0.843750
vt 0.656250 0.843750
vt 0.610485 0.733265
vt 0.610485 0.733265
vt 0.610485 0.733265
vt 0.610485 0.733265
vt 0.610485 0.733265
vt 0.610485 0.733265
vt 0.610485 0.733265
vt 0.610485 0.733265
vt 0.656250 0.843750
vt 0.656250 0.843750
vt 0.656250 0.843750
vt 0.656250 0.843750
vt 0.656250 0.843750
vt 0.656250 0.843750
vt 0.610485 0.733265
vt 0.610485 0.733265
vt 0.610485 0.954235
vt 0.656250 0.843750
vt 0.656250 0.843750
vt 0.610485 0.954235
vt 0.656250 0.843750
vt 0.656250 0.843750
vt 0.610485 0.733265
vt 0.610485 0.733265
vt 0.610485 0.733265
vt 0.610485 0.733265
vt 0.610485 0.733265
vt 0.610485 0.733265
vt 0.610485 0.733265
vt 0.610485 0.733265
vt 0.656250 0.843750
vt 0.656250 0.843750
vt 0.656250 0.843750
vt 0.656250 0.843750
vt 0.656250 0.843750
vt 0.656250 0.843750
vt 0.610485 0.733265
vt 0.610485 0.733265
vt 0.610485 0.954235
vt 0.656250 0.843750
vt 0.656250 0.843750
vt 0.610485 0.954235
vt 0.656250 0.843750
vt 0.656250 0.843750
vt 0.610485 0.733265
vt 0.610485 0.733265
vt 0.610485 0.733265
vt 0.610485 0.733265
vt 0.610485 0.733265
vt 0.610485 0.733265
vt 0.610485 0.733265
vt 0.610485 0.733265
vt 0.656250 0.843750
vt 0.656250 0.843750
vt 0.656250 0.843750
vt 0.656250 0.843750
vt 0.656250 0.843750
vt 0.656250 0.843750
vt 0.610485 0.733265
vt 0.610485 0.733265
vt 0.610485 0.954235
vt 0.656250 0.843750
vt 0.656250 0.843750
vt 0.610485 0.954235
vt 0.656250 0.843750
vt 0.656250 0.843750
vt 0.610485 0.733265
vt 0.610485 0.733265
vt 0.610485 0.733265
vt 0.610485 0.733265
vt 0.610485 0.733265
vt 0.610485 0.733265
vt 0.610485 0.733265
vt 0.610485 0.733265
vt 0.656250 0.843750
vt 0.656250 0.843750
vt 0.656250 0.843750
vt 0.656250 0.843750
vn 0.000000 1.000000 0.000000
vn 0.000000 1.000000 0.000000
vn 0.000000 1.000000 0.000000
vn 0.000000 1.000000 0.000000
vn -0.000000 1.000000 0.000000
vn -0.000000 1.000000 -0.000000
vn -0.000000 1.000000 -0.000000
vn -0.000000 1.000000 0.000000
vn -0.000000 1.000000 0.000000
vn -0.000000 1.000000 0.000000
vn -0.000000 1.000000 0.000000
vn -0.000000 1.000000 0.000000
vn -0.000000 1.000000 0.000000
vn -0.000000 1.000000 0.000000
vn -0.000000 1.000000 0.000000
vn -0.000000 1.000000 0.000000
vn 0.000000 1.000000 0.000000
vn -0.000000 1.000000 0.000000
vn 0.000000 1.000000 0.000000
vn 0.000000 1.000000 0.000000
vn 0.965296 0.000000 -0.261158
vn 0.858412 0.000000 -0.512961
vn 0.497900 0.000000 -0.867235
vn 0.244272 0.000000 -0.969707
vn 0.867234 0.000000 0.497900
vn 0.969707 0.000000 0.244272
vn 0.261158 0.000000 0.965296
vn 0.512960 0.000000 0.858413
vn -0.497900 0.000000 0.867234
vn -0.244272 0.000000 0.969707
vn -0.965296 0.000000 0.261158
vn -0.858413 0.000000 0.512960
vn -0.867234 0.000000 -0.497900
vn -0.969707 0.000000 -0.244272
vn -0.261158 0.000000 -0.965296
vn -0.512959 0.000000 -0.858413
vn 0.000000 -1.000000 -0.000000
vn 0.000000 -1.000000 -0.000001
vn 0.000000 -1.000000 -0.000000
vn 0.000000 -1.000000 -0.000000
vn 0.000000 -1.000000 -0.000000
vn 0.000000 -1.000000 -0.000000
vn 0.000000 -1.000000 0.000001
vn 0.000000 -1.000000 0.000001
vn 0.000000 -1.000000 0.000001
vn 0.000000 -1.000000 0.000000
vn 0.000000 -1.000000 0.000000
vn 0.000000 -1.000000 0.000000
vn 0.000000 -1.000000 0.000000
vn 0.000000 -1.000000 -0.000000
vn 0.000000 -1.000000 -0.000000
vn 0.000000 -1.000000 -0.000000
vn -0.858411 0.000000 0.512962
vn -0.969706 -0.000000 -0.244276
vn -0.911238 0.093589 0.401107
vn -0.899736 0.190526 -0.392651
vn -0.512959 -0.000000 -0.858413
vn -0.401109 0.093588 -0.911237
vn 0.512964 0.000000 0.858410
vn -0.244277 0.000000 0.969706
vn 0.401107 0.093588 0.911238
vn -0.392655 0.190525 0.899735
vn 0.870560 0.112235 -0.479092
vn 0.920504 -0.000001 -0.390732
vn 0.928598 0.162549 0.333592
vn 0.927182 -0.000001 0.374610
vn 0.244271 0.000000 -0.969707
vn 0.392648 0.190525 -0.899738
vn 0.000000 1.000000 0.000000
vn 0.000000 1.000000 0.000000
vn 0.000000 1.000000 0.000000
vn 0.000000 1.000000 0.000000
vn 0.000000 1.000000 0.000000
vn -0.006724 -0.999977 0.000000
vn -0.006723 -0.999977 0.000001
vn -0.006723 -0.999977 0.000001
vn -0.006722 -0.999977 0.000002
vn 0.700901 -0.000001 -0.713259
vn 0.700895 -0.000001 -0.713264
vn 0.022601 -0.000001 -0.999745
vn 0.021879 -0.000000 -0.999761
vn 0.022602 -0.000000 -0.999745
vn 0.021158 0.000000 -0.999776
vn 0.713310 0.700826 -0.005627
vn 0.518143 0.855287 -0.003568
vn 0.022619 0.000001 0.999744
vn 0.022622 0.000000 0.999744
vn 0.021900 0.000000 0.999760
vn 0.021180 0.000000 0.999776
vn -0.102890 -0.994692 0.000897
vn -0.126777 -0.991931 0.000970
vn -0.102924 -0.994689 0.000822
vn -0.150579 -0.988597 0.000980
vn 0.021653 0.000000 0.999766
vn 0.021922 -0.006136 0.999741
vn 0.013743 -0.010291 0.999853
vn 0.015513 -0.013424 0.999790
vn 0.608228 0.793761 -0.001620
vn 0.400781 0.916172 -0.001934
vn 0.608373 0.793650 -0.001476
vn 0.400895 0.916122 -0.002136
vn 0.019002 0.000000 -0.999819
vn 0.011679 -0.012707 -0.999851
vn 0.016947 -0.004117 -0.999848
vn 0.015373 -0.013308 -0.999793
vn -0.299355 -0.954140 0.001595
vn -0.299244 -0.954176 0.001395
vn -0.543654 -0.839309 0.001276
vn -0.543475 -0.839424 0.001447
vn 0.700748 0.713408 -0.000934
vn 0.700894 0.713266 -0.000002
vn 0.008157 -0.019239 -0.999782
vn -0.000165 -0.024211 -0.999707
vn -0.655149 -0.755499 0.000872
vn -0.655335 -0.755338 0.000000
vn 0.004832 -0.011378 0.999924
vn -0.000099 -0.014316 0.999898
vn -0.000000 -0.999977 0.006724
vn 0.000001 -0.999977 0.006723
vn 0.000001 -0.999977 0.006723
vn 0.000002 -0.999977 0.006722
vn -0.713258 -0.000001 -0.700902
vn -0.713259 0.000000 -0.700901
vn -0.999745 0.000000 -0.022600
vn -0.999761 -0.000002 -0.021880
vn -0.999745 -0.000003 -0.022601
vn -0.999776 -0.000002 -0.021158
vn -0.005631 0.700827 -0.713309
vn -0.003566 0.855286 -0.518144
vn 0.999744 0.000000 -0.022622
vn 0.999744 0.000000 -0.022621
vn 0.999760 0.000000 -0.021900
vn 0.999776 0.000000 -0.021179
vn 0.000898 -0.994692 0.102892
vn 0.000970 -0.991931 0.126777
vn 0.000822 -0.994689 0.102925
vn 0.000980 -0.988597 0.150579
vn 0.999766 0.000000 -0.021654
vn 0.999741 -0.006135 -0.021925
vn 0.999853 -0.010293 -0.013743
vn 0.999790 -0.013425 -0.015511
vn -0.001615 0.793758 -0.608232
vn -0.001930 0.916171 -0.400782
vn -0.001470 0.793651 -0.608372
vn -0.002134 0.916121 -0.400897
vn -0.999819 0.000000 -0.019002
vn -0.999851 -0.012707 -0.011682
vn -0.999848 -0.004118 -0.016947
vn -0.999793 -0.013311 -0.015377
vn 0.001594 -0.954141 0.299354
vn 0.001396 -0.954175 0.299245
vn 0.001275 -0.839309 0.543653
vn 0.001454 -0.839421 0.543480
vn -0.000930 0.713410 -0.700746
vn 0.000009 0.713276 -0.700884
vn -0.999782 -0.019237 -0.008161
vn -0.999707 -0.024205 0.000163
vn 0.000869 -0.755503 0.655145
vn -0.000017 -0.755346 0.655326
vn 0.999924 -0.011382 -0.004828
vn 0.999897 -0.014320 0.000096
vn 0.006724 -0.999977 0.000000
vn 0.006723 -0.999977 -0.000001
vn 0.006723 -0.999977 -0.000001
vn 0.006722 -0.999977 -0.000002
vn -0.700904 0.000001 0.713256
vn -0.700896 0.000001 0.713264
vn -0.022606 0.000001 0.999744
vn -0.021880 0.000000 0.999761
vn -0.022603 0.000000 0.999745
vn -0.021158 0.000000 0.999776
vn -0.713309 0.700827 0.005631
vn -0.518146 0.855285 0.003569
vn -0.022624 0.000000 -0.999744
vn -0.022620 0.000000 -0.999744
vn -0.021900 0.000000 -0.999760
vn -0.021178 0.000000 -0.999776
vn 0.102892 -0.994692 -0.000897
vn 0.126777 -0.991931 -0.000971
vn 0.102925 -0.994689 -0.000823
vn 0.150580 -0.988597 -0.000980
vn -0.021654 0.000000 -0.999766
vn -0.021925 -0.006136 -0.999741
vn -0.013742 -0.010291 -0.999853
vn -0.015510 -0.013424 -0.999790
vn -0.608235 0.793755 0.001620
vn -0.400782 0.916171 0.001932
vn -0.608373 0.793650 0.001474
vn -0.400897 0.916121 0.002131
vn -0.019002 0.000000 0.999819
vn -0.011679 -0.012707 0.999851
vn -0.016946 -0.004117 0.999848
vn -0.015373 -0.013308 0.999793
vn 0.299356 -0.954140 -0.001592
vn 0.299247 -0.954175 -0.001394
vn 0.543651 -0.839310 -0.001274
vn 0.543481 -0.839420 -0.001447
vn -0.700748 0.713408 0.000934
vn -0.700880 0.713279 0.000002
vn -0.008157 -0.019239 0.999782
vn 0.000165 -0.024211 0.999707
vn 0.655140 -0.755507 -0.000872
vn 0.655316 -0.755355 0.000000
vn -0.004825 -0.011378 -0.999924
vn 0.000099 -0.014316 -0.999898
vn 0.000001 -0.999977 -0.006724
vn -0.000000 -0.999977 -0.006723
vn -0.000000 -0.999977 -0.006723
vn -0.000002 -0.999977 -0.006723
vn 0.713258 -0.000001 0.700902
vn 0.713259 0.000000 0.700901
vn 0.999745 0.000000 0.022598
vn 0.999761 0.000000 0.021879
vn 0.999745 0.000000 0.022598
vn 0.999776 0.000000 0.021159
vn 0.005625 0.700827 0.713309
vn 0.003564 0.855286 0.518144
vn -0.999744 0.000000 0.022621
vn -0.999744 0.000000 0.022621
vn -0.999760 0.000000 0.021900
vn -0.999776 0.000000 0.021179
vn -0.000897 -0.994692 -0.102891
vn -0.000970 -0.991931 -0.126777
vn -0.000822 -0.994689 -0.102925
vn -0.000980 -0.988598 -0.150579
vn -0.999766 0.000000 0.021654
vn -0.999741 -0.006137 0.021925
vn -0.999853 -0.010294 0.013743
vn -0.999790 -0.013427 0.015510
vn 0.001613 0.793759 0.608231
vn 0.001931 0.916172 0.400781
vn 0.001471 0.793650 0.608372
vn 0.002134 0.916121 0.400897
vn 0.999819 0.000000 0.019004
vn 0.999851 -0.012707 0.011681
vn 0.999848 -0.004118 0.016948
vn 0.999793 -0.013311 0.015376
vn -0.001594 -0.954140 -0.299356
vn -0.001395 -0.954175 -0.299246
vn -0.001275 -0.839309 -0.543653
vn -0.001450 -0.839423 -0.543477
vn 0.000927 0.713409 0.700747
vn -0.000003 0.713273 0.700886
vn 0.999782 -0.019237 0.008160
vn 0.999707 -0.024205 -0.000163
vn -0.000872 -0.755502 -0.655145
vn 0.000008 -0.755343 -0.655329
vn -0.999924 -0.011382 0.004828
vn -0.999897 -0.014320 -0.000096
vn 0.000000 -1.000000 0.000001
vn -0.000000 -1.000000 -0.000000
vn -0.000000 -1.000000 -0.000000
vn -0.000000 -1.000000 -0.000001
vn 0.000000 -1.000000 0.000000
vn 0.000000 -1.000000 0.000000
vn 0.000000 -1.000000 0.000000
vn 0.000000 -1.000000 0.000000
vn 0.000000 -1.000000 0.000000
vn 0.000000 -1.000000 0.000000
vn 0.000000 -1.000000 0.000000
vn 0.000000 -1.000000 0.000000
s 1
g polySurface12
usemtl initialShadingGroup
f 9/19/1 10/20/2 11/18/3
f 11/18/3 10/20/2 12/21/4
s 2
f 10/20/5 9/19/6 2/15/7
f 1/16/8 2/15/7 9/19/6
f 12/21/9 10/20/5 3/14/10
f 2/15/7 3/14/10 10/20/5
f 13/22/11 12/21/9 4/13/12
f 3/14/10 4/13/12 12/21/9
f 14/23/13 13/22/11 5/12/14
f 4/13/12 5/12/14 13/22/11
f 15/24/15 14/23/13 6/11/16
f 5/12/14 6/11/16 14/23/13
f 16/25/17 15/24/15 7/10/18
f 6/11/16 7/10/18 15/24/15
f 17/26/19 16/25/17 8/17/20
f 7/10/18 8/17/20 16/25/17
f 9/19/6 17/26/19 1/16/8
f 8/17/20 1/16/8 17/26/19
s 3
f 8/8/21 27/36/22 1/9/23
f 1/9/23 27/36/22 26/35/24
f 7/7/25 28/37/26 8/8/21
f 8/8/21 28/37/26 27/36/22
f 6/6/27 29/38/28 7/7/25
f 7/7/25 29/38/28 28/37/26
f 5/5/29 30/39/30 6/6/27
f 6/6/27 30/39/30 29/38/28
f 4/4/31 31/40/32 5/5/29
f 5/5/29 31/40/32 30/39/30
f 3/3/33 32/41/34 4/4/31
f 4/4/31 32/41/34 31/40/32
f 2/2/35 33/42/36 3/3/33
f 3/3/33 33/42/36 32/41/34
f 1/1/23 26/43/24 2/2/35
f 2/2/35 26/43/24 33/42/36
s 10
f 25/34/37 18/27/38 26/44/39
f 26/44/39 18/27/38 33/45/40
f 18/27/38 19/28/41 33/45/40
f 33/45/40 19/28/41 32/46/42
f 19/28/41 20/29/43 32/46/42
f 32/46/42 20/29/43 31/47/44
f 20/29/43 21/30/45 31/47/44
f 31/47/44 21/30/45 30/48/46
f 21/30/45 22/31/47 30/48/46
f 30/48/46 22/31/47 29/49/48
f 22/31/47 23/32/49 29/49/48
f 29/49/48 23/32/49 28/50/50
f 23/32/49 24/33/51 28/50/50
f 28/50/50 24/33/51 27/51/52
f 24/33/51 25/34/37 27/51/52
f 27/51/52 25/34/37 26/44/39
s 11
f 20/29/53 19/28/54 37/55/55
f 37/55/55 19/28/54 36/54/56
f 19/28/54 18/27/57 36/54/56
f 36/54/56 18/27/57 35/53/58
f 22/31/59 21/30/60 39/57/61
f 39/57/61 21/30/60 38/56/62
f 21/30/60 20/29/53 38/56/62
f 38/56/62 20/29/53 37/55/55
f 41/59/63 24/33/64 40/58/65
f 40/58/65 24/33/64 23/32/66
f 23/32/66 22/31/59 40/58/65
f 40/58/65 22/31/59 39/57/61
f 18/27/57 25/34/67 35/53/58
f 35/53/58 25/34/67 34/52/68
f 25/34/67 24/33/64 34/52/68
f 34/52/68 24/33/64 41/59/63
s 1
f 14/23/69 15/24/70 11/18/3
f 11/18/3 15/24/70 16/25/71
f 16/25/71 17/26/72 11/18/3
f 11/18/3 17/26/72 9/19/1
f 12/21/4 13/22/73 11/18/3
f 11/18/3 13/22/73 14/23/69
s 15
f 46/60/74 45/61/75 48/63/76
f 48/63/76 45/61/75 47/62/77
s 11
f 34/64/68 41/65/63 42/67/78
f 42/67/78 41/65/63 44/66/79
s 16
f 41/65/80 54/68/81 44/66/82
f 44/66/82 54/68/81 55/69/83
s 11
f 41/65/63 40/70/65 54/68/84
f 54/68/84 40/70/65 53/71/85
s 17
f 40/70/86 43/72/87 53/71/88
f 53/71/88 43/72/87 56/73/89
s 18
f 44/66/90 55/69/91 43/72/92
f 43/72/92 55/69/91 56/73/93
s 17
f 50/74/94 49/75/95 57/77/96
f 57/77/96 49/75/95 60/76/97
s 11
f 58/78/98 51/79/99 57/77/100
f 57/77/100 51/79/99 50/74/101
s 16
f 51/79/102 58/78/103 52/80/104
f 52/80/104 58/78/103 59/81/105
s 18
f 49/75/106 52/80/107 60/76/108
f 60/76/108 52/80/107 59/81/109
s 11
f 54/68/84 53/71/85 51/79/99
f 51/79/99 53/71/85 50/74/101
s 16
f 54/68/81 51/79/102 55/69/83
f 55/69/83 51/79/102 52/80/104
s 18
f 55/69/91 52/80/107 56/73/93
f 56/73/93 52/80/107 49/75/106
s 17
f 53/71/88 56/73/89 50/74/94
f 50/74/94 56/73/89 49/75/95
s 11
f 58/78/98 57/77/100 45/61/110
f 45/61/110 57/77/100 47/62/111
s 16
f 59/81/105 58/78/103 46/60/112
f 46/60/112 58/78/103 45/61/113
s 18
f 59/81/109 46/60/114 60/76/108
f 60/76/108 46/60/114 48/63/115
s 17
f 60/76/97 48/63/116 57/77/96
f 57/77/96 48/63/116 47/62/117
s 23
f 64/82/118 63/83/119 66/85/120
f 66/85/120 63/83/119 65/84/121
s 11
f 36/86/56 35/87/58 61/89/122
f 61/89/122 35/87/58 62/88/123
s 24
f 35/87/124 72/90/125 62/88/126
f 62/88/126 72/90/125 73/91/127
s 11
f 35/87/58 34/92/68 72/90/128
f 72/90/128 34/92/68 71/93/129
s 25
f 34/92/130 42/94/131 71/93/132
f 71/93/132 42/94/131 74/95/133
s 26
f 62/88/134 73/91/135 42/94/136
f 42/94/136 73/91/135 74/95/137
s 25
f 68/96/138 67/97/139 75/99/140
f 75/99/140 67/97/139 78/98/141
s 11
f 76/100/142 69/101/143 75/99/144
f 75/99/144 69/101/143 68/96/145
s 24
f 69/101/146 76/100/147 70/102/148
f 70/102/148 76/100/147 77/103/149
s 26
f 67/97/150 70/102/151 78/98/152
f 78/98/152 70/102/151 77/103/153
s 11
f 72/90/128 71/93/129 69/101/143
f 69/101/143 71/93/129 68/96/145
s 24
f 72/90/125 69/101/146 73/91/127
f 73/91/127 69/101/146 70/102/148
s 26
f 73/91/135 70/102/151 74/95/137
f 74/95/137 70/102/151 67/97/150
s 25
f 71/93/132 74/95/133 68/96/138
f 68/96/138 74/95/133 67/97/139
s 11
f 76/100/142 75/99/144 63/83/154
f 63/83/154 75/99/144 65/84/155
s 24
f 77/103/149 76/100/147 64/82/156
f 64/82/156 76/100/147 63/83/157
s 26
f 77/103/153 64/82/158 78/98/152
f 78/98/152 64/82/158 66/85/159
s 25
f 78/98/141 66/85/160 75/99/140
f 75/99/140 66/85/160 65/84/161
s 31
f 82/104/162 81/105/163 84/107/164
f 84/107/164 81/105/163 83/106/165
s 11
f 38/108/62 37/109/55 79/111/166
f 79/111/166 37/109/55 80/110/167
s 32
f 37/109/168 90/112/169 80/110/170
f 80/110/170 90/112/169 91/113/171
s 11
f 37/109/55 36/114/56 90/112/172
f 90/112/172 36/114/56 89/115/173
s 33
f 36/114/174 61/116/175 89/115/176
f 89/115/176 61/116/175 92/117/177
s 34
f 80/110/178 91/113/179 61/116/180
f 61/116/180 91/113/179 92/117/181
s 33
f 86/118/182 85/119/183 93/121/184
f 93/121/184 85/119/183 96/120/185
s 11
f 94/122/186 87/123/187 93/121/188
f 93/121/188 87/123/187 86/118/189
s 32
f 87/123/190 94/122/191 88/124/192
f 88/124/192 94/122/191 95/125/193
s 34
f 85/119/194 88/124/195 96/120/196
f 96/120/196 88/124/195 95/125/197
s 11
f 90/112/172 89/115/173 87/123/187
f 87/123/187 89/115/173 86/118/189
s 32
f 90/112/169 87/123/190 91/113/171
f 91/113/171 87/123/190 88/124/192
s 34
f 91/113/179 88/124/195 92/117/181
f 92/117/181 88/124/195 85/119/194
s 33
f 89/115/176 92/117/177 86/118/182
f 86/118/182 92/117/177 85/119/183
s 11
f 94/122/186 93/121/188 81/105/198
f 81/105/198 93/121/188 83/106/199
s 32
f 95/125/193 94/122/191 82/104/200
f 82/104/200 94/122/191 81/105/201
s 34
f 95/125/197 82/104/202 96/120/196
f 96/120/196 82/104/202 84/107/203
s 33
f 96/120/185 84/107/204 93/121/184
f 93/121/184 84/107/204 83/106/205
s 39
f 99/126/206 98/127/207 101/129/208
f 101/129/208 98/127/207 100/128/209
s 11
f 40/130/65 39/131/61 43/133/210
f 43/133/210 39/131/61 97/132/211
s 40
f 39/131/212 107/134/213 97/132/214
f 97/132/214 107/134/213 108/135/215
s 11
f 39/131/61 38/136/62 107/134/216
f 107/134/216 38/136/62 106/137/217
s 41
f 38/136/218 79/138/219 106/137/220
f 106/137/220 79/138/219 109/139/221
s 42
f 97/132/222 108/135/223 79/138/224
f 79/138/224 108/135/223 109/139/225
s 41
f 103/140/226 102/141/227 110/143/228
f 110/143/228 102/141/227 113/142/229
s 11
f 111/144/230 104/145/231 110/143/232
f 110/143/232 104/145/231 103/140/233
s 40
f 104/145/234 111/144/235 105/146/236
f 105/146/236 111/144/235 112/147/237
s 42
f 102/141/238 105/146/239 113/142/240
f 113/142/240 105/146/239 112/147/241
s 11
f 107/134/216 106/137/217 104/145/231
f 104/145/231 106/137/217 103/140/233
s 40
f 107/134/213 104/145/234 108/135/215
f 108/135/215 104/145/234 105/146/236
s 42
f 108/135/223 105/146/239 109/139/225
f 109/139/225 105/146/239 102/141/238
s 41
f 106/137/220 109/139/221 103/140/226
f 103/140/226 109/139/221 102/141/227
s 11
f 111/144/230 110/143/232 98/127/242
f 98/127/242 110/143/232 100/128/243
s 40
f 112/147/237 111/144/235 99/126/244
f 99/126/244 111/144/235 98/127/245
s 42
f 112/147/241 99/126/246 113/142/240
f 113/142/240 99/126/246 101/129/247
s 41
f 113/142/229 101/129/248 110/143/228
f 110/143/228 101/129/248 100/128/249
s 47
f 80/110/250 43/133/251 79/111/252
f 79/111/252 43/133/251 97/132/253
s 48
f 44/66/254 43/133/255 61/89/256
f 61/89/256 43/133/255 80/110/257
s 49
f 44/66/258 61/89/259 42/67/260
f 42/67/260 61/89/259 62/88/261
