# This file uses centimeters as units for non-parametric coordinates.

mtllib 25x25RampedRooftop.mtl
g default
v -46.263618 899.598633 -131.316452
v -21.263618 899.598633 -131.316452
v -46.263618 901.158142 -131.316452
v -21.263618 902.298340 -131.316452
v -46.263618 900.598633 -156.316452
v -21.263618 900.598633 -156.316452
v -46.263618 899.598633 -156.316452
v -21.263618 899.598633 -156.316452
v -42.863407 901.158142 -131.316452
v -42.863407 900.598633 -156.316452
v -42.863407 899.598633 -156.316452
v -42.863407 899.598633 -131.316452
v -46.263618 900.598633 -153.068405
v -46.263618 899.598633 -153.068405
v -42.863407 899.598633 -153.068405
v -21.263618 899.598633 -153.068405
v -21.263618 903.102356 -156.316452
v -42.863407 900.598633 -153.068405
v -46.263618 901.158142 -134.339767
v -46.263618 899.598633 -134.339767
v -42.863407 899.598633 -134.339767
v -21.263618 899.598633 -134.339767
v -21.263618 902.298340 -134.339767
v -42.863407 901.158142 -134.339767
v -24.942215 902.298340 -131.316452
v -24.942215 902.298340 -134.339767
v -24.942215 903.102356 -156.316452
v -24.942215 900.598633 -156.316452
v -24.942215 899.598633 -156.316452
v -24.942215 899.598633 -153.068405
v -24.942215 899.598633 -134.339767
v -24.942215 899.598633 -131.316452
v -42.863407 903.220825 -153.068405
v -46.263618 903.220825 -153.068405
v -42.863407 903.220825 -156.316452
v -46.263618 903.220825 -156.316452
v -24.942215 900.598633 -153.068405
v -42.863407 900.598633 -153.068405
v -24.942215 900.598633 -156.316452
v -42.863407 900.598633 -156.316452
v -24.942215 900.598633 -134.339767
v -42.863407 900.598633 -134.339767
v -46.263618 900.598633 -149.698929
v -46.263618 899.598633 -149.698929
v -42.863407 899.598633 -149.698929
v -24.942215 899.598633 -149.698929
v -21.263618 899.598633 -149.698929
v -21.263618 903.102356 -151.777786
v -24.942215 903.102356 -151.777786
v -24.942215 900.598633 -149.698929
v -42.863407 900.598633 -149.698929
v -42.863407 900.598633 -149.698929
v -42.791111 903.220825 -152.999344
v -46.335915 903.220825 -152.999344
v -46.335915 903.220825 -156.385513
v -42.791111 903.220825 -156.385513
v -42.757328 903.180298 -152.967072
v -46.369698 903.180298 -152.967072
v -46.369698 903.180298 -156.417786
v -42.757328 903.180298 -156.417786
v -42.863407 903.098694 -153.068405
v -46.263618 903.098694 -153.068405
v -46.263618 903.098694 -156.316452
v -42.863407 903.098694 -156.316452
v -42.863407 902.565552 -153.068405
v -46.263618 902.565552 -153.068405
v -46.263618 902.565552 -156.316452
v -42.863407 902.565552 -156.316452
v -45.158180 900.598633 -153.068405
v -45.158180 900.598633 -149.698929
v -45.158180 901.158142 -134.339767
v -45.158180 901.158142 -131.316452
v -45.158180 899.598633 -131.316452
v -45.158180 899.598633 -134.339767
v -45.158180 899.598633 -149.698929
v -45.158180 899.598633 -153.068405
v -45.158180 899.598633 -156.316452
v -45.158180 900.598633 -156.316452
v -45.158180 902.565552 -156.316452
v -45.158180 903.098694 -156.316452
v -45.195282 903.180298 -156.417786
v -45.183468 903.220825 -156.385513
v -45.158180 903.220825 -156.316452
v -45.158180 903.220825 -153.068405
v -45.183468 903.220825 -152.999344
v -45.195282 903.180298 -152.967072
v -45.158180 903.098694 -153.068405
v -45.158180 902.565552 -153.068405
v -43.852016 900.598633 -153.068405
v -43.852016 900.598633 -149.698929
v -43.852016 901.158142 -134.339767
v -43.852016 901.158142 -131.316452
v -43.852016 899.598633 -131.316452
v -43.852016 899.598633 -134.339767
v -43.852016 899.598633 -149.698929
v -43.852016 899.598633 -153.068405
v -43.852016 899.598633 -156.316452
v -43.852016 900.598633 -156.316452
v -43.852016 902.565552 -156.316452
v -43.852016 903.098694 -156.316452
v -43.807621 903.180298 -156.417786
v -43.821758 903.220825 -156.385513
v -43.852016 903.220825 -156.316452
v -43.852016 903.220825 -153.068405
v -43.821758 903.220825 -152.999344
v -43.807621 903.180298 -152.967072
v -43.852016 903.098694 -153.068405
v -43.852016 902.565552 -153.068405
v -45.158180 902.565552 -153.097061
v -45.158180 900.598633 -153.097061
v -43.852016 900.598633 -153.097061
v -43.852016 902.565552 -153.097061
v -45.130085 902.523254 -153.084427
v -45.130085 900.640930 -153.084427
v -43.880112 900.640930 -153.084427
v -43.880112 902.523254 -153.084427
vt 0.032472 0.834765
vt 0.017511 0.834765
vt 0.032472 0.752222
vt 0.032472 0.752222
vt 0.032472 0.834765
vt 0.017511 0.834765
vt 0.001992 0.834765
vt 0.001992 0.834765
vt 0.150307 0.416276
vt 0.150307 0.398139
vt 0.178917 0.398139
vt 0.178917 0.416276
vt 0.150307 0.069363
vt 0.199834 0.069363
vt 0.150307 0.440238
vt 0.178917 0.440238
vt 0.150307 0.001876
vt 0.199834 0.001876
vt 0.150307 0.460519
vt 0.178917 0.460519
vt 0.206827 0.416275
vt 0.206827 0.398139
vt 0.262292 0.398139
vt 0.262292 0.416275
vt 0.206827 0.069362
vt 0.262292 0.069362
vt 0.544066 0.398139
vt 0.544066 0.416275
vt 0.206827 0.440238
vt 0.262292 0.440238
vt 0.206827 0.001876
vt 0.262292 0.001876
vt 0.605881 0.398139
vt 0.605881 0.416275
vt 0.544066 0.440238
vt 0.206827 0.460518
vt 0.262292 0.460518
vt 0.582204 0.069362
vt 0.582204 0.001876
vt 0.605881 0.440238
vt 0.544066 0.460518
vt 0.665469 0.069362
vt 0.665469 0.001876
vt 0.606407 0.416275
vt 0.606407 0.440238
vt 0.605881 0.460518
vt 0.050099 0.416276
vt 0.050099 0.398139
vt 0.068444 0.398139
vt 0.068444 0.416276
vt 0.014013 0.416276
vt 0.014013 0.398139
vt 0.050099 0.069363
vt 0.068444 0.069363
vt 0.050099 0.440238
vt 0.068444 0.440238
vt 0.014013 0.440238
vt 0.004234 0.416276
vt 0.004234 0.398139
vt 0.050099 0.001876
vt 0.068444 0.001876
vt 0.050099 0.460519
vt 0.068444 0.460519
vt 0.014013 0.460519
vt 0.004234 0.440238
vt 0.002737 0.415461
vt 0.002737 0.396194
vt 0.004165 0.069363
vt 0.004165 0.001876
vt 0.004234 0.460519
vt 0.002737 0.440920
vt 0.001992 0.415721
vt 0.001992 0.396812
vt 0.002737 0.462464
vt 0.001992 0.440702
vt 0.001992 0.461844
vt 0.942543 0.878909
vt 0.942543 0.860772
vt 0.998008 0.860772
vt 0.998008 0.878909
vt 0.660769 0.878909
vt 0.660769 0.860772
vt 0.942543 0.531995
vt 0.998008 0.531995
vt 0.942543 0.902871
vt 0.998008 0.902871
vt 0.598954 0.878909
vt 0.598954 0.860772
vt 0.660769 0.531995
vt 0.660769 0.902871
vt 0.942543 0.464509
vt 0.998008 0.464509
vt 0.942543 0.923151
vt 0.998008 0.923151
vt 0.539366 0.878909
vt 0.539366 0.860772
vt 0.598954 0.531995
vt 0.598954 0.902871
vt 0.660769 0.464509
vt 0.660769 0.923151
vt 0.539366 0.531995
vt 0.539366 0.902871
vt 0.598954 0.464509
vt 0.598954 0.923151
vt 0.539366 0.464509
vt 0.539366 0.923151
vt 0.468953 0.923151
vt 0.468953 0.867686
vt 0.518479 0.867686
vt 0.518479 0.923151
vt 0.468953 0.585912
vt 0.533231 0.547774
vt 0.468953 0.524097
vt 0.533231 0.464510
vt 0.468953 0.464510
vt 0.487297 0.464510
vt 0.076247 0.057342
vt 0.076247 0.001876
vt 0.104856 0.001876
vt 0.104856 0.057342
vt 0.076247 0.339116
vt 0.094592 0.339116
vt 0.076247 0.400931
vt 0.094592 0.400931
vt 0.076247 0.460518
vt 0.094592 0.460518
vt 0.130677 0.400931
vt 0.130677 0.460518
vt 0.140457 0.400931
vt 0.140457 0.460518
vt 0.141954 0.399072
vt 0.141954 0.462377
vt 0.142699 0.399664
vt 0.142699 0.461784
vt 0.134041 0.809957
vt 0.462817 0.809957
vt 0.462817 0.869545
vt 0.134041 0.869545
vt 0.134041 0.748142
vt 0.462817 0.748142
vt 0.134041 0.466368
vt 0.462817 0.466368
vt 0.041076 0.893619
vt 0.041076 0.875482
vt 0.100664 0.875482
vt 0.100664 0.893619
vt 0.039809 0.893064
vt 0.039809 0.874156
vt 0.101931 0.874156
vt 0.101931 0.893064
vt 0.041076 0.917581
vt 0.100664 0.917581
vt 0.039217 0.892804
vt 0.039217 0.873536
vt 0.039809 0.918045
vt 0.102523 0.873536
vt 0.101931 0.918045
vt 0.041076 0.937861
vt 0.100664 0.937861
vt 0.039217 0.918262
vt 0.039809 0.939187
vt 0.101931 0.939187
vt 0.039217 0.939807
vt 0.145465 0.893619
vt 0.109379 0.893619
vt 0.109379 0.875481
vt 0.145465 0.875481
vt 0.155244 0.875481
vt 0.155244 0.893619
vt 0.156741 0.873537
vt 0.156741 0.892804
vt 0.145465 0.917581
vt 0.155244 0.917581
vt 0.156741 0.918263
vt 0.145465 0.937862
vt 0.155244 0.937862
vt 0.156741 0.939807
vt 0.109379 0.937862
vt 0.109379 0.917581
vt 0.163950 0.934982
vt 0.163950 0.875395
vt 0.200035 0.875395
vt 0.200035 0.934982
vt 0.209815 0.875395
vt 0.209815 0.934982
vt 0.211312 0.873537
vt 0.211312 0.936841
vt 0.127906 0.869545
vt 0.081972 0.869545
vt 0.081972 0.869545
vt 0.081972 0.809958
vt 0.081972 0.748143
vt 0.127906 0.786280
vt 0.113154 0.466368
vt 0.081972 0.466368
vt 0.065573 0.795232
vt 0.044655 0.466456
vt 0.075837 0.466456
vt 0.075837 0.795232
vt 0.028256 0.466456
vt 0.038520 0.748231
vt 0.028256 0.748231
vt 0.028256 0.466456
vt 0.219036 0.908845
vt 0.219036 0.874313
vt 0.241968 0.874313
vt 0.241968 0.908845
vt 0.218521 0.909622
vt 0.218521 0.873537
vt 0.242483 0.873537
vt 0.242483 0.909622
vt 0.249704 0.909622
vt 0.249704 0.873537
vt 0.250230 0.873537
vt 0.250230 0.909622
vt 0.258025 0.873537
vt 0.258025 0.909622
vt 0.257500 0.909622
vt 0.257500 0.873537
vt 0.265821 0.873537
vt 0.265821 0.897499
vt 0.265296 0.897499
vt 0.265296 0.873537
vn 0.000000 0.000000 1.000000
vn 0.000000 0.000000 1.000000
vn 0.000000 0.000000 1.000000
vn 0.000000 0.000000 1.000000
vn 0.000000 1.000000 0.000000
vn -0.031763 0.999496 0.000000
vn -0.021177 0.999702 -0.012141
vn 0.000000 0.999834 -0.018205
vn 0.000000 0.000000 -1.000000
vn 0.000000 0.000000 -1.000000
vn 0.000000 0.000000 -1.000000
vn 0.000000 0.000000 -1.000000
vn 0.000000 -1.000000 0.000000
vn 0.000000 -1.000000 0.000000
vn 0.000000 -1.000000 0.000000
vn 0.000000 -1.000000 0.000000
vn 1.000000 0.000000 0.000000
vn 1.000000 0.000000 0.000000
vn 1.000000 0.000000 0.000000
vn 1.000000 0.000000 0.000000
vn -1.000000 0.000000 0.000000
vn -1.000000 0.000000 0.000000
vn -1.000000 0.000000 0.000000
vn -1.000000 0.000000 0.000000
vn -0.031763 0.999496 0.000000
vn -0.021179 0.999658 0.015364
vn 0.000000 0.000000 -1.000000
vn 0.000000 0.000000 -1.000000
vn 0.000000 -1.000000 0.000000
vn 0.000000 -1.000000 0.000000
vn 0.000000 0.000000 1.000000
vn 0.000000 0.000000 1.000000
vn -1.000000 0.000000 0.000000
vn -1.000000 0.000000 0.000000
vn -1.000000 0.000000 0.000000
vn -1.000000 0.000000 0.000000
vn 0.000000 -1.000000 0.000000
vn 0.000000 -1.000000 0.000000
vn 0.000000 -1.000000 0.000000
vn 0.000000 -1.000000 0.000000
vn 0.000000 -1.000000 0.000000
vn 0.000000 -1.000000 0.000000
vn 1.000000 0.000000 0.000000
vn 1.000000 0.000000 0.000000
vn 1.000000 0.000000 0.000000
vn 1.000000 0.000000 0.000000
vn 0.000000 1.000000 0.000000
vn 0.000000 1.000000 0.000000
vn 0.000000 1.000000 0.000000
vn 0.000000 1.000000 0.000000
vn 0.000000 1.000000 0.000000
vn 0.000000 1.000000 0.000000
vn 0.000000 1.000000 0.000000
vn 0.000000 1.000000 0.000000
vn -1.000000 0.000000 0.000000
vn -1.000000 0.000000 0.000000
vn 0.000000 -1.000000 0.000000
vn 0.000000 -1.000000 0.000000
vn 0.000000 -1.000000 0.000000
vn 1.000000 0.000000 0.000000
vn 1.000000 0.000000 0.000000
vn 0.000000 1.000000 0.000000
vn 0.000000 1.000000 0.000000
vn 0.000000 1.000000 0.000000
vn 0.000000 1.000000 0.000000
vn 0.000000 0.999834 -0.018204
vn 0.000000 0.999834 -0.018205
vn 0.000000 1.000000 0.000000
vn 0.000000 0.999735 0.023036
vn 0.000000 0.999735 0.023036
vn 0.000000 0.999735 0.023036
vn 0.000000 0.000000 -1.000000
vn 0.000000 0.707107 -0.707107
vn 0.000000 0.707107 -0.707107
vn 0.000000 0.000000 -1.000000
vn 0.000000 0.000000 -1.000000
vn 0.000000 0.000000 -1.000000
vn 0.000000 -1.000000 0.000000
vn 0.000000 -1.000000 0.000000
vn 0.000000 -1.000000 0.000000
vn 0.000000 -1.000000 0.000000
vn 0.000000 -1.000000 0.000000
vn 0.000000 0.000000 1.000000
vn 0.000000 0.000000 1.000000
vn 0.000000 0.000000 1.000000
vn 0.000000 0.000000 1.000000
vn 0.000000 0.000000 1.000000
vn 0.000000 0.000000 1.000000
vn 1.000000 0.000000 0.000000
vn 1.000000 0.000000 0.000000
vn 1.000000 0.000000 0.000000
vn 1.000000 0.000000 0.000000
vn 0.000000 0.000000 -1.000000
vn 0.000000 0.000000 -1.000000
vn -1.000000 0.000000 0.000000
vn -1.000000 0.000000 0.000000
vn -1.000000 0.000000 0.000000
vn -1.000000 0.000000 0.000000
vn -1.000000 0.000000 0.000000
vn -1.000000 0.000000 0.000000
vn 0.000000 0.000000 0.000000
vn 0.000000 0.000000 0.000000
vn 0.000000 0.000000 0.000000
vn 0.000000 0.000000 0.000000
vn 0.000000 0.000000 0.000000
vn 0.000000 0.000000 0.000000
vn 0.000000 0.000000 0.000000
vn 0.000000 0.000000 0.000000
vn 0.000000 0.000000 -1.000000
vn 0.000000 0.000000 -1.000000
vn 0.000000 0.000000 -1.000000
vn 0.000000 0.000000 -1.000000
vn -1.000000 0.000000 0.000000
vn -1.000000 0.000000 0.000000
vn -1.000000 0.000000 0.000000
vn -1.000000 0.000000 0.000000
vn 1.000000 0.000000 0.000000
vn 1.000000 0.000000 0.000000
vn 1.000000 0.000000 0.000000
vn 1.000000 0.000000 0.000000
vn -1.000000 0.000001 0.000000
vn -1.000000 0.000001 0.000000
vn -1.000000 0.000001 0.000000
vn -1.000000 0.000001 0.000000
vn 0.000000 0.000000 0.000000
vn 0.000000 0.000000 0.000000
vn 0.000000 0.000000 0.000000
vn 0.000000 0.000000 0.000000
vn 0.000000 1.000000 0.000000
vn 0.000000 1.000000 0.000000
vn 0.000000 0.900874 0.434080
vn 0.000000 0.901058 0.433698
vn 0.000000 1.000000 -0.000629
vn 0.000000 1.000000 0.000244
vn -0.424076 0.905627 0.000000
vn -0.424076 0.905627 0.000000
vn 0.000000 1.000000 0.000000
vn 0.000000 1.000000 0.000000
vn 0.000000 0.901038 -0.433741
vn 0.000000 0.900828 -0.434176
vn 0.000000 1.000000 -0.000280
vn 0.000000 1.000000 0.000766
vn 0.424115 0.905608 0.000000
vn 0.424115 0.905608 0.000000
vn 0.000000 1.000000 0.000000
vn 0.000000 1.000000 0.000000
vn 0.000000 -0.109642 0.993971
vn 0.000000 -0.109504 0.993986
vn -0.993947 -0.109858 0.000000
vn -0.993947 -0.109858 0.000000
vn 0.000000 -0.109731 -0.993961
vn 0.000000 -0.109790 -0.993955
vn 0.993943 -0.109897 0.000000
vn 0.993943 -0.109897 0.000000
vn 0.000000 -0.431691 0.902022
vn 0.000000 -0.431554 0.902087
vn -0.897143 -0.441740 0.000000
vn -0.897143 -0.441740 0.000000
vn 0.000000 -0.431655 -0.902039
vn 0.000000 -0.431746 -0.901996
vn 0.897145 -0.441736 0.000000
vn 0.897145 -0.441736 0.000000
vn 0.000000 0.999834 -0.018206
vn 0.000000 0.999834 -0.018206
vn 0.000000 1.000000 0.000000
vn 0.000000 1.000000 0.000000
vn 0.000000 0.999834 -0.018206
vn 0.000000 0.999834 -0.018206
vn 0.000000 1.000000 0.000000
vn 0.000000 1.000000 0.000000
vn 0.000000 0.000000 1.000000
vn 0.000000 0.000000 1.000000
vn 0.000000 0.000000 1.000000
vn 0.000000 0.000000 1.000000
vn 0.000000 -1.000000 0.000000
vn 0.000000 -1.000000 0.000000
vn 0.000000 -1.000000 0.000000
vn 0.000000 -1.000000 0.000000
vn 0.000000 -1.000000 0.000000
vn 0.000000 -1.000000 0.000000
vn 0.000000 -1.000000 0.000000
vn 0.000000 -1.000000 0.000000
vn 0.000000 -1.000000 0.000000
vn 0.000000 -1.000000 0.000000
vn 0.000000 0.000000 -1.000000
vn 0.000000 0.000000 -1.000000
vn 0.000000 0.000000 -1.000000
vn 0.000000 0.000000 -1.000000
vn 0.000000 0.000000 -1.000000
vn 0.000000 0.000000 -1.000000
vn 0.000000 -0.431792 -0.901973
vn 0.000000 -0.431748 -0.901994
vn 0.000000 -0.110139 -0.993916
vn 0.000000 -0.110428 -0.993884
vn 0.000000 0.900700 -0.434441
vn 0.000000 0.900782 -0.434272
vn 0.000000 1.000000 -0.000271
vn 0.000000 1.000000 0.000783
vn 0.000000 1.000000 0.000000
vn 0.000000 1.000000 0.000000
vn 0.000000 1.000000 0.000000
vn 0.000000 1.000000 0.000000
vn 0.000000 0.900829 0.434174
vn 0.000000 0.900760 0.434318
vn 0.000000 1.000000 0.000217
vn 0.000000 1.000000 -0.000685
vn 0.000000 -0.110351 0.993893
vn 0.000000 -0.110065 0.993924
vn 0.000000 -0.431820 0.901960
vn 0.000000 -0.431824 0.901958
vn 0.000000 0.000000 1.000000
vn 0.000000 0.000000 1.000000
vn 0.000000 0.000000 1.000000
vn 0.000000 0.000000 1.000000
vn 0.000000 0.000000 1.000000
vn 0.000000 0.000000 1.000000
vn 0.000000 0.000000 1.000000
vn 0.000000 0.000000 1.000000
vn 1.000000 0.000000 0.000000
vn 1.000000 0.000000 0.000000
vn 1.000000 0.000000 0.000000
vn 1.000000 0.000000 0.000000
vn 0.000000 1.000000 0.000000
vn 0.000000 1.000000 0.000000
vn -1.000000 0.000000 0.000000
vn -1.000000 0.000000 0.000000
vn -1.000000 0.000000 0.000000
vn -1.000000 0.000000 0.000000
vn 0.000000 -1.000000 0.000000
vn 0.000000 -1.000000 0.000000
vn 0.000000 -1.000000 0.000000
vn 0.000000 -1.000000 0.000000
vn -0.410306 0.000000 0.911948
vn -0.410306 0.000000 0.911948
vn -0.410306 0.000000 0.911948
vn -0.410306 0.000000 0.911948
vn 0.000000 -0.286554 0.958064
vn 0.000000 -0.286554 0.958064
vn 0.000000 -0.286554 0.958064
vn 0.000000 -0.286554 0.958064
vn 0.410306 0.000000 0.911948
vn 0.410306 0.000000 0.911948
vn 0.410306 0.000000 0.911948
vn 0.410306 0.000000 0.911948
vn 0.000000 0.286266 0.958150
vn 0.000000 0.286266 0.958150
vn 0.000000 0.286266 0.958150
vn 0.000000 0.286266 0.958150
s 1
g pCube28
usemtl initialShadingGroup
f 93/9/1 12/10/2 9/11/3 92/12/4
s 2
f 92/21/5 9/22/6 24/23/7 91/24/8
s 3
f 98/47/9 10/48/10 11/49/11 97/50/12
s 4
f 94/77/13 21/78/14 12/79/15 93/80/16
s 5
f 2/107/17 22/108/18 23/109/19 4/110/20
s 6
f 20/117/21 1/118/22 3/119/23 19/120/24
s 2
f 9/22/6 25/25/25 26/26/26 24/23/7
s 3
f 11/49/11 10/48/10 28/53/27 29/54/28
s 4
f 12/79/15 21/78/14 31/83/29 32/84/30
s 1
f 9/11/3 12/10/2 32/13/31 25/14/32
s 6
f 7/125/33 14/123/34 13/124/35 5/126/36
s 4
f 97/95/37 11/96/38 15/88/39 96/87/40
f 30/97/41 15/88/39 11/96/38 29/101/42
s 5
f 17/114/43 16/113/44 8/115/45 6/116/46
s 10
f 38/135/47 37/136/48 39/137/49 40/138/50
s 11
f 104/143/51 33/144/52 35/145/53 103/146/54
s 6
f 44/121/55 20/117/21 19/120/24 43/122/56
s 4
f 95/81/57 45/82/58 21/78/14 94/77/13
f 31/83/29 21/78/14 45/82/58 46/89/59
s 5
f 23/109/19 22/108/18 47/111/60 48/112/61
s 10
f 42/141/62 41/142/63 50/140/64 51/139/65
s 2
f 91/24/8 24/23/7 52/27/66 90/28/67
f 25/25/25 4/31/68 23/32/69 26/26/26
f 49/38/70 26/26/26 23/32/69 48/39/71
f 28/53/72 27/68/73 17/69/74 6/60/75
s 3
f 29/54/28 28/53/27 6/60/76 8/61/77
s 4
f 16/103/78 30/97/41 29/101/42 8/105/79
f 22/91/80 31/83/29 46/89/59 47/99/81
f 32/84/30 31/83/29 22/91/80 2/92/82
s 1
f 25/14/32 32/13/31 2/17/83 4/18/84
s 12
f 108/164/85 89/165/86 18/166/87 65/167/88
s 13
f 18/180/89 10/181/90 68/182/91 65/183/92
s 3
f 10/48/10 98/47/9 99/51/93 68/52/94
s 6
f 5/126/36 13/124/35 66/127/95 67/128/96
s off
f 27/188/97 28/189/98 39/190/99 37/191/100
f 28/3/101 10/1/102 40/5/103 39/4/104
f 10/1/105 18/2/106 38/6/107 40/5/108
f 24/196/109 26/197/110 41/198/111 42/199/112
f 26/194/113 49/193/114 50/192/115 41/195/116
f 52/200/117 24/201/118 42/202/119 51/203/120
s 6
f 14/123/34 44/121/55 43/122/56 13/124/35
s 4
f 96/87/40 15/88/39 45/82/58 95/81/57
f 46/89/59 45/82/58 15/88/39 30/97/41
f 47/99/81 46/89/59 30/97/41 16/103/78
s 5
f 48/112/61 47/111/60 16/113/44 17/114/43
s 2
f 27/42/73 49/38/70 48/39/71 17/43/74
s off
f 50/192/121 49/193/122 27/188/123 37/191/124
s 10
f 51/139/65 50/140/64 37/136/48 38/135/47
s off
f 18/2/125 52/8/126 51/7/127 38/6/128
s 2
f 90/28/67 52/27/66 18/33/129 89/34/130
s 12
f 105/147/131 53/148/132 33/144/133 104/143/134
s 6
f 55/162/135 54/161/136 34/158/137 36/159/138
s 3
f 56/149/139 102/150/140 103/146/141 35/145/142
s 13
f 53/148/143 56/149/144 35/145/145 33/144/146
s 12
f 106/153/147 57/154/148 53/148/132 105/147/131
s 6
f 59/132/149 58/131/150 54/133/136 55/134/135
s 3
f 60/67/151 101/66/152 102/72/140 56/73/139
s 13
f 57/154/153 60/156/154 56/149/144 53/148/143
s 12
f 107/169/155 61/168/156 57/170/148 106/171/147
s 6
f 63/130/157 62/129/158 58/131/150 59/132/149
s 3
f 64/59/159 100/58/160 101/66/152 60/67/151
s 13
f 61/185/161 64/184/162 60/186/154 57/187/153
s 12
f 108/164/85 65/167/88 61/168/156 107/169/155
s 6
f 67/128/96 66/127/95 62/129/158 63/130/157
s 3
f 68/52/94 99/51/93 100/58/160 64/59/159
s 13
f 65/183/92 68/182/91 64/184/162 61/185/161
s 2
f 43/41/163 70/35/164 69/40/165 13/46/166
f 19/37/167 71/30/168 70/35/164 43/41/163
f 3/36/169 72/29/170 71/30/168 19/37/167
s 1
f 1/19/171 73/15/172 72/16/173 3/20/174
s 4
f 20/93/175 74/85/176 73/86/177 1/94/178
f 44/100/179 75/90/180 74/85/176 20/93/175
f 14/104/181 76/98/182 75/90/180 44/100/179
f 7/106/183 77/102/184 76/98/182 14/104/181
s 3
f 5/62/185 78/55/186 77/56/187 7/63/188
f 79/57/189 78/55/186 5/62/185 67/64/190
f 80/65/191 79/57/189 67/64/190 63/70/192
f 81/71/193 80/65/191 63/70/192 59/74/194
f 82/75/195 81/71/193 59/74/194 55/76/196
f 83/152/197 82/157/195 55/162/196 36/159/198
s 11
f 34/158/199 84/151/200 83/152/201 36/159/202
s 12
f 54/161/203 85/155/204 84/151/205 34/158/206
f 58/163/207 86/160/208 85/155/204 54/161/203
f 62/176/209 87/173/210 86/174/208 58/177/207
f 66/175/211 88/172/212 87/173/210 62/176/209
f 13/178/213 69/179/214 88/172/212 66/175/211
s 2
f 70/35/164 90/28/67 89/34/130 69/40/165
f 71/30/168 91/24/8 90/28/67 70/35/164
f 72/29/170 92/21/5 91/24/8 71/30/168
s 1
f 73/15/172 93/9/1 92/12/4 72/16/173
s 4
f 74/85/176 94/77/13 93/80/16 73/86/177
f 75/90/180 95/81/57 94/77/13 74/85/176
f 76/98/182 96/87/40 95/81/57 75/90/180
f 77/102/184 97/95/37 96/87/40 76/98/182
s 3
f 78/55/186 98/47/9 97/50/12 77/56/187
f 99/51/93 98/47/9 78/55/186 79/57/189
f 100/58/160 99/51/93 79/57/189 80/65/191
f 101/66/152 100/58/160 80/65/191 81/71/193
f 102/72/140 101/66/152 81/71/193 82/75/195
f 103/146/141 102/150/140 82/157/195 83/152/197
s 11
f 84/151/200 104/143/51 103/146/54 83/152/201
s 12
f 85/155/204 105/147/131 104/143/134 84/151/205
f 86/160/208 106/153/147 105/147/131 85/155/204
f 87/173/210 107/169/155 106/171/147 86/174/208
f 88/172/212 108/164/85 107/169/155 87/173/210
s off
f 113/204/215 114/205/216 115/206/217 116/207/218
f 88/212/219 69/213/220 110/214/221 109/215/222
s 2
f 69/40/165 89/34/130 111/44/223 110/45/224
s off
f 89/216/225 108/217/226 112/218/227 111/219/228
f 108/220/229 88/221/230 109/222/231 112/223/232
f 109/208/233 110/209/234 114/205/235 113/204/236
f 110/209/237 111/210/238 115/206/239 114/205/240
f 111/210/241 112/211/242 116/207/243 115/206/244
f 112/211/245 109/208/246 113/204/247 116/207/248
