# This file uses centimeters as units for non-parametric coordinates.

mtllib 25x47WalledRooftop.mtl
g default
v -44.782215 899.598633 -263.639313
v -19.782215 899.598633 -263.639313
v -44.782215 901.669312 -263.639313
v -19.782215 901.669312 -263.639313
v -44.782215 901.669312 -310.486206
v -19.782215 901.669312 -310.486206
v -44.782215 899.598633 -310.486206
v -19.782215 899.598633 -310.486206
v -20.789478 901.669312 -263.639313
v -20.789478 901.669312 -310.486206
v -20.789478 899.598633 -310.486206
v -20.789478 899.598633 -263.639313
v -19.782215 901.669312 -264.643097
v -20.789478 901.669312 -264.643097
v -44.782215 901.669312 -264.643097
v -44.782215 899.598633 -264.643097
v -20.789478 899.598633 -264.643097
v -19.782215 899.598633 -264.643097
v -44.782215 901.669312 -309.484131
v -44.782215 899.598633 -309.484131
v -20.789478 899.598633 -309.484131
v -19.782215 899.598633 -309.484131
v -19.782215 901.669312 -309.484131
v -20.789478 901.669312 -309.484131
v -43.778141 901.669312 -310.486206
v -43.778141 899.598633 -310.486206
v -43.778141 899.598633 -309.484131
v -43.778141 899.598633 -264.643097
v -43.778141 899.598633 -263.639313
v -43.778141 901.669312 -263.639313
v -43.778141 901.669312 -264.643097
v -43.778141 901.669312 -309.484131
v -43.778141 900.598633 -264.643097
v -43.778141 900.598633 -309.484131
v -20.789478 900.598633 -264.643097
v -20.789478 900.598633 -309.484131
v -44.782215 903.855835 -263.639313
v -43.778141 903.855835 -263.639313
v -43.778141 903.855835 -264.643097
v -44.782215 903.855835 -264.643097
v -20.789478 903.855835 -263.639313
v -19.782215 903.855835 -263.639313
v -19.782215 903.855835 -264.643097
v -20.789478 903.855835 -264.643097
v -19.782215 903.855835 -309.484131
v -20.789478 903.855835 -309.484131
v -19.782215 903.855835 -310.486206
v -20.789478 903.855835 -310.486206
v -43.778141 903.855835 -309.484131
v -44.782215 903.855835 -309.484131
v -43.778141 903.855835 -310.486206
v -44.782215 903.855835 -310.486206
v -44.850479 904.058228 -263.571075
v -43.709877 904.058228 -263.571075
v -43.709877 904.058228 -264.711334
v -44.850479 904.058228 -264.711334
v -20.844021 904.058228 -263.584961
v -19.727673 904.058228 -263.584961
v -19.727673 904.058228 -264.697449
v -20.844021 904.058228 -264.697449
v -19.720215 904.058228 -309.422424
v -20.851479 904.058228 -309.422424
v -19.720215 904.058228 -310.547882
v -20.851479 904.058228 -310.547882
v -43.642757 904.058228 -309.348999
v -44.917599 904.058228 -309.348999
v -43.642757 904.058228 -310.621307
v -44.917599 904.058228 -310.621307
v -45.003281 904.336914 -263.418304
v -43.557076 904.336914 -263.418304
v -43.557076 904.336914 -264.864105
v -45.003281 904.336914 -264.864105
v -20.987724 904.336914 -263.441742
v -19.583969 904.336914 -263.441742
v -19.583969 904.336914 -264.840668
v -20.987724 904.336914 -264.840668
v -19.596985 904.336914 -309.299805
v -20.974709 904.336914 -309.299805
v -19.596985 904.336914 -310.670471
v -20.974709 904.336914 -310.670471
v -43.517643 904.336914 -309.224121
v -45.042713 904.336914 -309.224121
v -43.517643 904.336914 -310.746185
v -45.042713 904.336914 -310.746185
v -44.917904 904.536987 -263.503662
v -43.642448 904.536987 -263.503662
v -43.642448 904.536987 -264.778748
v -44.917904 904.536987 -264.778748
v -20.961803 904.536987 -263.467590
v -19.609890 904.536987 -263.467590
v -19.609890 904.536987 -264.814819
v -20.961803 904.536987 -264.814819
v -19.638275 904.536987 -309.340942
v -20.933414 904.536987 -309.340942
v -19.638275 904.536987 -310.629395
v -20.933414 904.536987 -310.629395
v -43.594391 904.536987 -309.300720
v -44.965965 904.536987 -309.300720
v -43.594391 904.536987 -310.669586
v -44.965965 904.536987 -310.669586
v -44.782215 904.814331 -263.639313
v -43.778141 904.814331 -263.639313
v -43.778141 904.814331 -264.643097
v -44.782215 904.814331 -264.643097
v -20.789478 904.814331 -263.639313
v -19.782215 904.814331 -263.639313
v -19.782215 904.814331 -264.643097
v -20.789478 904.814331 -264.643097
v -19.782215 904.814331 -309.484131
v -20.789478 904.814331 -309.484131
v -19.782215 904.814331 -310.486206
v -20.789478 904.814331 -310.486206
v -43.778141 904.814331 -309.484131
v -44.782215 904.814331 -309.484131
v -43.778141 904.814331 -310.486206
v -44.782215 904.814331 -310.486206
vt 0.375000 0.000000
vt 0.625000 0.000000
vt 0.375000 0.250000
vt 0.625000 0.250000
vt 0.375000 0.500000
vt 0.625000 0.500000
vt 0.375000 0.750000
vt 0.625000 0.750000
vt 0.375000 1.000000
vt 0.625000 1.000000
vt 0.875000 0.000000
vt 0.875000 0.250000
vt 0.125000 0.000000
vt 0.125000 0.250000
vt 0.614927 0.250000
vt 0.614927 0.500000
vt 0.614927 0.750000
vt 0.614927 0.000000
vt 0.614927 1.000000
vt 0.625000 0.260038
vt 0.635038 0.250000
vt 0.614927 0.260038
vt 0.364962 0.250000
vt 0.375000 0.260038
vt 0.364962 0.000000
vt 0.375000 0.989962
vt 0.614927 0.989962
vt 0.625000 0.989962
vt 0.635038 0.000000
vt 0.135021 0.250000
vt 0.375000 0.489979
vt 0.135021 0.000000
vt 0.375000 0.760021
vt 0.614927 0.760021
vt 0.625000 0.760021
vt 0.864979 0.000000
vt 0.625000 0.489979
vt 0.864979 0.250000
vt 0.614927 0.489979
vt 0.385041 0.500000
vt 0.385041 0.750000
vt 0.385041 0.760021
vt 0.385041 0.989962
vt 0.385041 0.000000
vt 0.385041 1.000000
vt 0.385041 0.250000
vt 0.385041 0.260038
vt 0.385041 0.489979
vt 0.385041 0.489979
vt 0.385041 0.260038
vt 0.614927 0.260038
vt 0.614927 0.489979
vt 0.375000 0.250000
vt 0.385041 0.250000
vt 0.385041 0.260038
vt 0.375000 0.260038
vt 0.614927 0.250000
vt 0.625000 0.250000
vt 0.625000 0.260038
vt 0.614927 0.260038
vt 0.614927 0.489979
vt 0.625000 0.489979
vt 0.625000 0.500000
vt 0.614927 0.500000
vt 0.375000 0.489979
vt 0.385041 0.489979
vt 0.385041 0.500000
vt 0.375000 0.500000
vt 0.375000 0.250000
vt 0.385041 0.250000
vt 0.385041 0.260038
vt 0.375000 0.260038
vt 0.614927 0.250000
vt 0.625000 0.250000
vt 0.625000 0.260038
vt 0.614927 0.260038
vt 0.614927 0.489979
vt 0.625000 0.489979
vt 0.625000 0.500000
vt 0.614927 0.500000
vt 0.375000 0.489979
vt 0.385041 0.489979
vt 0.385041 0.500000
vt 0.375000 0.500000
vt 0.375000 0.250000
vt 0.385041 0.250000
vt 0.385041 0.260038
vt 0.375000 0.260038
vt 0.614927 0.250000
vt 0.625000 0.250000
vt 0.625000 0.260038
vt 0.614927 0.260038
vt 0.614927 0.489979
vt 0.625000 0.489979
vt 0.625000 0.500000
vt 0.614927 0.500000
vt 0.375000 0.489979
vt 0.385041 0.489979
vt 0.385041 0.500000
vt 0.375000 0.500000
vt 0.375000 0.250000
vt 0.385041 0.250000
vt 0.385041 0.260038
vt 0.375000 0.260038
vt 0.614927 0.250000
vt 0.625000 0.250000
vt 0.625000 0.260038
vt 0.614927 0.260038
vt 0.614927 0.489979
vt 0.625000 0.489979
vt 0.625000 0.500000
vt 0.614927 0.500000
vt 0.375000 0.489979
vt 0.385041 0.489979
vt 0.385041 0.500000
vt 0.375000 0.500000
vt 0.375000 0.250000
vt 0.385041 0.250000
vt 0.385041 0.260038
vt 0.375000 0.260038
vt 0.614927 0.250000
vt 0.625000 0.250000
vt 0.625000 0.260038
vt 0.614927 0.260038
vt 0.614927 0.489979
vt 0.625000 0.489979
vt 0.625000 0.500000
vt 0.614927 0.500000
vt 0.375000 0.489979
vt 0.385041 0.489979
vt 0.385041 0.500000
vt 0.375000 0.500000
vn 0.000000 0.000000 1.000000
vn 0.000000 0.000000 1.000000
vn 0.000000 0.000000 1.000000
vn 0.000000 0.000000 1.000000
vn 0.000000 1.000000 0.000000
vn 0.000000 1.000000 0.000000
vn 0.000000 1.000000 0.000000
vn 0.000000 1.000000 0.000000
vn 0.000000 0.000000 -1.000000
vn 0.000000 0.000000 -1.000000
vn 0.000000 0.000000 -1.000000
vn 0.000000 0.000000 -1.000000
vn 0.000000 -1.000000 0.000000
vn 0.000000 -1.000000 0.000000
vn 0.000000 -1.000000 0.000000
vn 0.000000 -1.000000 0.000000
vn 1.000000 0.000000 0.000000
vn 1.000000 0.000000 0.000000
vn 1.000000 0.000000 0.000000
vn 1.000000 0.000000 0.000000
vn -1.000000 0.000000 0.000000
vn -1.000000 0.000000 0.000000
vn -1.000000 0.000000 0.000000
vn -1.000000 0.000000 0.000000
vn 0.000000 1.000000 0.000000
vn 0.000000 1.000000 0.000000
vn 0.000000 1.000000 0.000000
vn 0.000000 1.000000 0.000000
vn 0.000000 0.000000 -1.000000
vn 0.000000 0.000000 -1.000000
vn 0.000000 0.000000 -1.000000
vn 0.000000 0.000000 -1.000000
vn 0.000000 -1.000000 0.000000
vn 0.000000 -1.000000 0.000000
vn 0.000000 -1.000000 0.000000
vn 0.000000 -1.000000 0.000000
vn 0.000000 0.000000 1.000000
vn 0.000000 0.000000 1.000000
vn 0.000000 0.000000 1.000000
vn 0.000000 0.000000 1.000000
vn 0.000000 1.000000 0.000000
vn 0.000000 1.000000 0.000000
vn 0.000000 1.000000 0.000000
vn 0.000000 1.000000 0.000000
vn 0.000000 1.000000 0.000000
vn 0.000000 1.000000 0.000000
vn 0.000000 1.000000 0.000000
vn 0.000000 1.000000 0.000000
vn -1.000000 0.000000 0.000000
vn -1.000000 0.000000 0.000000
vn 0.000000 -1.000000 0.000000
vn 0.000000 -1.000000 0.000000
vn 0.000000 -1.000000 0.000000
vn 0.000000 -1.000000 0.000000
vn 1.000000 0.000000 0.000000
vn 1.000000 0.000000 0.000000
vn -1.000000 0.000000 0.000000
vn -1.000000 0.000000 0.000000
vn 0.000000 -1.000000 0.000000
vn 0.000000 -1.000000 0.000000
vn 0.000000 -1.000000 0.000000
vn 0.000000 -1.000000 0.000000
vn 1.000000 0.000000 0.000000
vn 1.000000 0.000000 0.000000
vn 0.000000 1.000000 0.000000
vn 0.000000 1.000000 0.000000
vn 0.000000 1.000000 0.000000
vn 0.000000 1.000000 0.000000
vn 0.000000 1.000000 0.000000
vn 0.000000 1.000000 0.000000
vn 0.000000 1.000000 0.000000
vn 0.000000 1.000000 0.000000
vn 0.000000 1.000000 0.000000
vn 0.000000 1.000000 0.000000
vn 0.000000 1.000000 0.000000
vn 0.000000 1.000000 0.000000
vn 0.000000 1.000000 0.000000
vn 0.000000 1.000000 0.000000
vn 0.000000 1.000000 0.000000
vn 0.000000 1.000000 0.000000
vn 0.000000 1.000000 0.000000
vn 0.000000 1.000000 0.000000
vn 0.000000 1.000000 0.000000
vn 0.000000 1.000000 0.000000
vn 1.000000 0.000000 0.000000
vn 1.000000 0.000000 0.000000
vn 1.000000 0.000000 0.000000
vn 1.000000 0.000000 0.000000
vn 0.000000 0.000000 -1.000000
vn 0.000000 0.000000 -1.000000
vn 0.000000 0.000000 -1.000000
vn 0.000000 0.000000 -1.000000
vn -1.000000 0.000000 0.000000
vn -1.000000 0.000000 0.000000
vn -1.000000 0.000000 0.000000
vn -1.000000 0.000000 0.000000
vn 0.000000 0.000000 1.000000
vn 0.000000 0.000000 1.000000
vn 0.000000 0.000000 1.000000
vn 0.000000 0.000000 1.000000
vn 0.000000 -0.161805 0.986823
vn 0.000000 -0.161805 0.986823
vn 1.000000 0.000000 0.000000
vn 1.000000 0.000000 0.000000
vn 0.986801 -0.161936 0.000000
vn 0.986801 -0.161936 0.000000
vn 0.000000 0.000000 -1.000000
vn 0.000000 0.000000 -1.000000
vn 0.000000 -0.161805 -0.986823
vn 0.000000 -0.161805 -0.986823
vn -0.986802 -0.161931 0.000000
vn -0.986802 -0.161931 0.000000
vn 0.000000 -0.130823 0.991406
vn 0.000000 -0.130823 0.991406
vn 0.991351 -0.131236 0.000000
vn 0.991351 -0.131236 0.000000
vn 0.000000 0.000000 -1.000000
vn 0.000000 0.000000 -1.000000
vn 0.000000 -0.130823 -0.991406
vn 0.000000 -0.130823 -0.991406
vn -1.000000 0.000000 0.000000
vn -1.000000 0.000000 0.000000
vn -0.991351 -0.131236 0.000000
vn -0.991351 -0.131236 0.000000
vn 0.000000 0.000000 1.000000
vn 0.000000 0.000000 1.000000
vn 0.000000 -0.147449 0.989070
vn 0.000000 -0.147449 0.989070
vn 0.988975 -0.148084 0.000000
vn 0.988975 -0.148084 0.000000
vn 0.000000 -0.147380 -0.989080
vn 0.000000 -0.147380 -0.989080
vn -1.000000 0.000000 0.000000
vn -1.000000 0.000000 0.000000
vn -0.988974 -0.148087 0.000000
vn -0.988974 -0.148087 0.000000
vn 0.000000 0.000000 1.000000
vn 0.000000 0.000000 1.000000
vn 0.000000 -0.290128 0.956988
vn 0.000000 -0.290128 0.956988
vn 1.000000 0.000000 0.000000
vn 1.000000 0.000000 0.000000
vn 0.956869 -0.290519 0.000000
vn 0.956869 -0.290519 0.000000
vn 0.000000 -0.290078 -0.957003
vn 0.000000 -0.290078 -0.957003
vn -0.956868 -0.290523 0.000000
vn -0.956868 -0.290523 0.000000
vn 0.000000 -0.401587 0.915821
vn 0.000000 -0.401587 0.915821
vn 0.915754 -0.401740 0.000000
vn 0.915754 -0.401740 0.000000
vn 0.000000 -0.401587 -0.915821
vn 0.000000 -0.401587 -0.915821
vn -0.915754 -0.401738 0.000000
vn -0.915754 -0.401738 0.000000
vn 0.000000 -0.360272 0.932847
vn 0.000000 -0.360272 0.932847
vn 0.932450 -0.361299 0.000000
vn 0.932450 -0.361299 0.000000
vn 0.000000 -0.360272 -0.932847
vn 0.000000 -0.360272 -0.932847
vn -0.932450 -0.361300 0.000000
vn -0.932450 -0.361300 0.000000
vn 0.000000 -0.347780 0.937576
vn 0.000000 -0.347780 0.937576
vn 0.937022 -0.349271 0.000000
vn 0.937022 -0.349271 0.000000
vn 0.000000 -0.347672 -0.937616
vn 0.000000 -0.347672 -0.937616
vn -0.937021 -0.349275 0.000000
vn -0.937021 -0.349275 0.000000
vn 0.000000 -0.483808 0.875174
vn 0.000000 -0.483808 0.875174
vn 0.874810 -0.484466 0.000000
vn 0.874810 -0.484466 0.000000
vn 0.000000 -0.483762 -0.875199
vn 0.000000 -0.483762 -0.875199
vn -0.874808 -0.484470 0.000000
vn -0.874808 -0.484470 0.000000
vn 0.000000 -0.049121 0.998793
vn 0.000000 -0.049121 0.998793
vn 0.998795 -0.049085 0.000000
vn 0.998795 -0.049085 0.000000
vn 0.000000 -0.049096 -0.998794
vn 0.000000 -0.049096 -0.998794
vn -0.998795 -0.049074 0.000000
vn -0.998795 -0.049074 0.000000
vn 0.000000 -0.172263 0.985051
vn 0.000000 -0.172263 0.985051
vn 0.984965 -0.172753 0.000000
vn 0.984965 -0.172753 0.000000
vn 0.000000 -0.172263 -0.985051
vn 0.000000 -0.172263 -0.985051
vn -0.984965 -0.172753 0.000000
vn -0.984965 -0.172753 0.000000
vn 0.000000 -0.105652 0.994403
vn 0.000000 -0.105652 0.994403
vn 0.994345 -0.106203 0.000000
vn 0.994345 -0.106203 0.000000
vn 0.000000 -0.105741 -0.994394
vn 0.000000 -0.105741 -0.994394
vn -0.994346 -0.106193 0.000000
vn -0.994346 -0.106193 0.000000
vn 0.000000 -0.027795 0.999614
vn 0.000000 -0.027795 0.999614
vn 0.999613 -0.027839 0.000000
vn 0.999613 -0.027839 0.000000
vn 0.000000 -0.027795 -0.999614
vn 0.000000 -0.027795 -0.999614
vn -0.999612 -0.027846 0.000000
vn -0.999612 -0.027846 0.000000
vn 0.000000 0.415993 0.909368
vn 0.000000 0.415993 0.909368
vn 0.909314 0.416110 0.000000
vn 0.909314 0.416110 0.000000
vn 0.000000 0.415998 -0.909365
vn 0.000000 0.415998 -0.909365
vn -0.909311 0.416118 0.000000
vn -0.909311 0.416118 0.000000
vn 0.000000 0.334848 0.942272
vn 0.000000 0.334848 0.942272
vn 0.941949 0.335757 0.000000
vn 0.941949 0.335757 0.000000
vn 0.000000 0.334848 -0.942272
vn 0.000000 0.334848 -0.942272
vn -0.941949 0.335757 0.000000
vn -0.941949 0.335757 0.000000
vn 0.000000 0.333196 0.942858
vn 0.000000 0.333196 0.942858
vn 0.942379 0.334547 0.000000
vn 0.942379 0.334547 0.000000
vn 0.000000 0.333041 -0.942912
vn 0.000000 0.333041 -0.942912
vn -0.942377 0.334554 0.000000
vn -0.942377 0.334554 0.000000
vn 0.000000 0.457362 0.889281
vn 0.000000 0.457362 0.889281
vn 0.888968 0.457969 0.000000
vn 0.888968 0.457969 0.000000
vn 0.000000 0.457328 -0.889298
vn 0.000000 0.457328 -0.889298
vn -0.888971 0.457964 0.000000
vn -0.888971 0.457964 0.000000
vn 0.000000 0.439365 0.898309
vn 0.000000 0.439365 0.898309
vn 0.898258 0.439469 0.000000
vn 0.898258 0.439469 0.000000
vn 0.000000 0.439331 -0.898325
vn 0.000000 0.439331 -0.898325
vn -0.898263 0.439458 0.000000
vn -0.898263 0.439458 0.000000
vn 0.000000 0.526450 0.850206
vn 0.000000 0.526450 0.850206
vn 0.849386 0.527773 0.000000
vn 0.849386 0.527773 0.000000
vn 0.000000 0.526450 -0.850206
vn 0.000000 0.526450 -0.850206
vn -0.849387 0.527770 0.000000
vn -0.849387 0.527770 0.000000
vn 0.000000 0.458809 0.888535
vn 0.000000 0.458809 0.888535
vn 0.887579 0.460656 0.000000
vn 0.887579 0.460656 0.000000
vn 0.000000 0.458757 -0.888562
vn 0.000000 0.458757 -0.888562
vn -0.887583 0.460648 0.000000
vn -0.887583 0.460648 0.000000
vn 0.000000 0.551674 0.834060
vn 0.000000 0.551674 0.834060
vn 0.833637 0.552313 0.000000
vn 0.833637 0.552313 0.000000
vn 0.000000 0.551611 -0.834102
vn 0.000000 0.551611 -0.834102
vn -0.833636 0.552315 0.000000
vn -0.833636 0.552315 0.000000
s 1
g pCube20
usemtl initialShadingGroup
f 1/1/1 29/44/2 30/46/3 3/3/4
s off
f 101/117/5 102/118/6 103/119/7 104/120/8
s 2
f 5/5/9 25/40/10 26/41/11 7/7/12
s 3
f 16/26/13 28/43/14 29/45/15 1/9/16
s 4
f 2/2/17 18/29/18 13/21/19 4/4/20
s 5
f 16/25/21 1/1/22 3/3/23 15/23/24
s off
f 105/121/25 106/122/26 107/123/27 108/124/28
s 2
f 11/17/29 10/16/30 6/6/31 8/8/32
s 3
f 12/19/33 17/27/34 18/28/35 2/10/36
s 1
f 9/15/37 12/18/38 2/2/39 4/4/40
s off
f 14/22/41 13/20/42 23/37/43 24/39/44
f 15/24/45 31/47/46 32/48/47 19/31/48
s 5
f 20/32/49 16/25/21 15/23/24 19/30/50
s 3
f 20/33/51 27/42/52 28/43/14 16/26/13
f 18/28/35 17/27/34 21/34/53 22/35/54
s 4
f 13/21/19 18/29/18 22/36/55 23/38/56
s 5
f 7/13/57 20/32/49 19/30/50 5/14/58
s 3
f 7/7/59 26/41/60 27/42/52 20/33/51
f 22/35/54 21/34/53 11/17/61 8/8/62
s 4
f 23/38/56 22/36/55 8/11/63 6/12/64
s off
f 110/125/65 109/126/66 111/127/67 112/128/68
f 114/129/69 113/130/70 115/131/71 116/132/72
s 2
f 25/40/10 10/16/30 11/17/29 26/41/11
s 3
f 27/42/52 26/41/60 11/17/61 21/34/53
f 28/43/14 27/42/52 21/34/53 17/27/34
f 29/45/15 28/43/14 17/27/34 12/19/33
s 1
f 30/46/3 29/44/2 12/18/38 9/15/37
s off
f 31/47/73 30/46/74 9/15/75 14/22/76
f 34/49/77 33/50/78 35/51/79 36/52/80
f 25/40/81 32/48/82 24/39/83 10/16/84
f 32/48/85 31/47/86 33/50/87 34/49/88
f 31/47/89 14/22/90 35/51/91 33/50/92
f 14/22/93 24/39/94 36/52/95 35/51/96
f 24/39/97 32/48/98 34/49/99 36/52/100
s 1
f 3/3/4 30/46/3 38/54/101 37/53/102
s 6
f 30/46/103 31/47/104 39/55/105 38/54/106
s 7
f 31/47/107 15/24/108 40/56/109 39/55/110
s 5
f 15/24/24 3/3/23 37/53/111 40/56/112
s 1
f 9/15/37 4/4/40 42/58/113 41/57/114
s 4
f 4/4/20 13/20/19 43/59/115 42/58/116
s 8
f 13/20/117 14/22/118 44/60/119 43/59/120
s 9
f 14/22/121 9/15/122 41/57/123 44/60/124
s 10
f 24/39/125 23/37/126 45/62/127 46/61/128
s 4
f 23/37/56 6/6/64 47/63/129 45/62/130
s 2
f 6/6/31 10/16/30 48/64/131 47/63/132
s 11
f 10/16/133 24/39/134 46/61/135 48/64/136
s 12
f 19/31/137 32/48/138 49/66/139 50/65/140
s 13
f 32/48/141 25/40/142 51/67/143 49/66/144
s 2
f 25/40/10 5/5/9 52/68/145 51/67/146
s 5
f 5/5/58 19/31/50 50/65/147 52/68/148
s 1
f 37/53/102 38/54/101 54/70/149 53/69/150
s 6
f 38/54/106 39/55/105 55/71/151 54/70/152
s 7
f 39/55/110 40/56/109 56/72/153 55/71/154
s 5
f 40/56/112 37/53/111 53/69/155 56/72/156
s 1
f 41/57/114 42/58/113 58/74/157 57/73/158
s 4
f 42/58/116 43/59/115 59/75/159 58/74/160
s 8
f 43/59/120 44/60/119 60/76/161 59/75/162
s 9
f 44/60/124 41/57/123 57/73/163 60/76/164
s 10
f 46/61/128 45/62/127 61/78/165 62/77/166
s 4
f 45/62/130 47/63/129 63/79/167 61/78/168
s 2
f 47/63/132 48/64/131 64/80/169 63/79/170
s 11
f 48/64/136 46/61/135 62/77/171 64/80/172
s 12
f 50/65/140 49/66/139 65/82/173 66/81/174
s 13
f 49/66/144 51/67/143 67/83/175 65/82/176
s 2
f 51/67/146 52/68/145 68/84/177 67/83/178
s 5
f 52/68/148 50/65/147 66/81/179 68/84/180
s 1
f 53/69/150 54/70/149 70/86/181 69/85/182
s 6
f 54/70/152 55/71/151 71/87/183 70/86/184
s 7
f 55/71/154 56/72/153 72/88/185 71/87/186
s 5
f 56/72/156 53/69/155 69/85/187 72/88/188
s 1
f 57/73/158 58/74/157 74/90/189 73/89/190
s 4
f 58/74/160 59/75/159 75/91/191 74/90/192
s 8
f 59/75/162 60/76/161 76/92/193 75/91/194
s 9
f 60/76/164 57/73/163 73/89/195 76/92/196
s 10
f 62/77/166 61/78/165 77/94/197 78/93/198
s 4
f 61/78/168 63/79/167 79/95/199 77/94/200
s 2
f 63/79/170 64/80/169 80/96/201 79/95/202
s 11
f 64/80/172 62/77/171 78/93/203 80/96/204
s 12
f 66/81/174 65/82/173 81/98/205 82/97/206
s 13
f 65/82/176 67/83/175 83/99/207 81/98/208
s 2
f 67/83/178 68/84/177 84/100/209 83/99/210
s 5
f 68/84/180 66/81/179 82/97/211 84/100/212
s 1
f 69/85/182 70/86/181 86/102/213 85/101/214
s 6
f 70/86/184 71/87/183 87/103/215 86/102/216
s 7
f 71/87/186 72/88/185 88/104/217 87/103/218
s 5
f 72/88/188 69/85/187 85/101/219 88/104/220
s 1
f 73/89/190 74/90/189 90/106/221 89/105/222
s 4
f 74/90/192 75/91/191 91/107/223 90/106/224
s 8
f 75/91/194 76/92/193 92/108/225 91/107/226
s 9
f 76/92/196 73/89/195 89/105/227 92/108/228
s 10
f 78/93/198 77/94/197 93/110/229 94/109/230
s 4
f 77/94/200 79/95/199 95/111/231 93/110/232
s 2
f 79/95/202 80/96/201 96/112/233 95/111/234
s 11
f 80/96/204 78/93/203 94/109/235 96/112/236
s 12
f 82/97/206 81/98/205 97/114/237 98/113/238
s 13
f 81/98/208 83/99/207 99/115/239 97/114/240
s 2
f 83/99/210 84/100/209 100/116/241 99/115/242
s 5
f 84/100/212 82/97/211 98/113/243 100/116/244
s 1
f 85/101/214 86/102/213 102/118/245 101/117/246
s 6
f 86/102/216 87/103/215 103/119/247 102/118/248
s 7
f 87/103/218 88/104/217 104/120/249 103/119/250
s 5
f 88/104/220 85/101/219 101/117/251 104/120/252
s 1
f 89/105/222 90/106/221 106/122/253 105/121/254
s 4
f 90/106/224 91/107/223 107/123/255 106/122/256
s 8
f 91/107/226 92/108/225 108/124/257 107/123/258
s 9
f 92/108/228 89/105/227 105/121/259 108/124/260
s 10
f 94/109/230 93/110/229 109/126/261 110/125/262
s 4
f 93/110/232 95/111/231 111/127/263 109/126/264
s 2
f 95/111/234 96/112/233 112/128/265 111/127/266
s 11
f 96/112/236 94/109/235 110/125/267 112/128/268
s 12
f 98/113/238 97/114/237 113/130/269 114/129/270
s 13
f 97/114/240 99/115/239 115/131/271 113/130/272
s 2
f 99/115/242 100/116/241 116/132/273 115/131/274
s 5
f 100/116/244 98/113/243 114/129/275 116/132/276
