# This file uses centimeters as units for non-parametric coordinates.

mtllib Di.mtl
v -0.012361 0.000404 0.012361
v 0.012361 0.000404 0.012361
v -0.012361 0.024873 0.012361
v 0.012361 0.024873 0.012361
v -0.012361 0.024873 -0.012361
v 0.012361 0.024873 -0.012361
v -0.012361 0.000404 -0.012361
v 0.012361 0.000404 -0.012361
v 0.011533 0.024873 -0.012361
v 0.011533 0.000404 -0.012361
v 0.011533 0.000404 0.012361
v 0.011533 0.024873 0.012361
v -0.011503 0.024873 -0.012361
v -0.011503 0.000404 -0.012361
v -0.011503 0.000404 0.012361
v -0.011503 0.024873 0.012361
v 0.012638 0.024502 -0.012638
v 0.011791 0.024502 -0.012638
v -0.011761 0.024502 -0.012638
v -0.012638 0.024502 -0.012638
v -0.012638 0.024502 0.012638
v -0.011761 0.024502 0.012638
v 0.011791 0.024502 0.012638
v 0.012638 0.024502 0.012638
v 0.012638 0.024502 0.011904
v 0.012361 0.024873 0.011643
v 0.011791 0.025277 0.011904
v -0.011761 0.025277 0.011904
v -0.012361 0.024873 0.011643
v -0.012638 0.024502 0.011904
v -0.012361 0.000404 0.011643
v -0.011761 0.000000 0.011904
v 0.011791 0.000000 0.011904
v 0.012361 0.000404 0.011643
v 0.012638 0.024502 -0.011914
v 0.012361 0.024873 -0.011653
v 0.011791 0.025277 -0.011914
v -0.011761 0.025277 -0.011914
v -0.012361 0.024873 -0.011653
v -0.012638 0.024502 -0.011914
v -0.012361 0.000404 -0.011653
v -0.011761 0.000000 -0.011914
v 0.011791 0.000000 -0.011914
v 0.012361 0.000404 -0.011653
v 0.012638 0.000868 -0.011914
v 0.012638 0.000868 0.011904
v 0.012638 0.000868 0.012638
v 0.011791 0.000868 0.012638
v -0.011761 0.000868 0.012638
v -0.012638 0.000868 0.012638
v -0.012638 0.000868 0.011904
v -0.012638 0.000868 -0.011914
v -0.012638 0.000868 -0.012638
v -0.011761 0.000868 -0.012638
v 0.011791 0.000868 -0.012638
v 0.012638 0.000868 -0.012638
vt 0.005492 0.005604
vt 0.016681 0.005604
vt 0.013320 0.011566
vt 0.005492 0.014968
vt 0.001880 0.001992
vt 0.013320 0.001992
vt 0.316964 0.005604
vt 0.320334 0.011566
vt 0.013320 0.322041
vt 0.005492 0.318636
vt 0.001880 0.011566
vt 0.320334 0.001992
vt 0.327762 0.005604
vt 0.327762 0.014968
vt 0.320334 0.322041
vt 0.016681 0.327874
vt 0.005492 0.327874
vt 0.001880 0.322041
vt 0.331374 0.001992
vt 0.331374 0.011566
vt 0.327762 0.318636
vt 0.316964 0.327874
vt 0.013320 0.331486
vt 0.001880 0.331486
vt 0.331374 0.322041
vt 0.327762 0.327874
vt 0.320334 0.331486
vt 0.331374 0.331486
vt 0.342263 0.318510
vt 0.350092 0.321912
vt 0.353453 0.327874
vt 0.342263 0.327874
vt 0.342263 0.014842
vt 0.350092 0.011437
vt 0.657106 0.321912
vt 0.653736 0.327874
vt 0.350092 0.331486
vt 0.338652 0.331486
vt 0.338652 0.321912
vt 0.342263 0.005604
vt 0.353453 0.005604
vt 0.657106 0.011437
vt 0.338652 0.011437
vt 0.664534 0.318510
vt 0.664534 0.327874
vt 0.657106 0.331486
vt 0.338652 0.001992
vt 0.350092 0.001992
vt 0.653736 0.005604
vt 0.664534 0.014842
vt 0.668146 0.321912
vt 0.668146 0.331486
vt 0.657106 0.001992
vt 0.664534 0.005604
vt 0.668146 0.011437
vt 0.668146 0.001992
vt 0.941846 0.655173
vt 0.633755 0.655173
vt 0.633755 0.344698
vt 0.941846 0.344698
vt 0.633755 0.664747
vt 0.941846 0.664747
vt 0.633755 0.335253
vt 0.941846 0.335253
vt 0.627965 0.335253
vt 0.627965 0.346293
vt 0.319874 0.346293
vt 0.319874 0.335253
vt 0.627965 0.653307
vt 0.319874 0.653307
vt 0.319874 0.664747
vt 0.627965 0.664747
vt 0.005993 0.344827
vt 0.005993 0.335253
vt 0.314084 0.335253
vt 0.314084 0.344827
vt 0.005993 0.655302
vt 0.314084 0.655302
vt 0.005993 0.664747
vt 0.314084 0.664747
vt 0.001880 0.998008
vt 0.001880 0.986568
vt 0.309971 0.986568
vt 0.309971 0.998008
vt 0.001880 0.679554
vt 0.309971 0.679554
vt 0.001880 0.668514
vt 0.309971 0.668514
vn 0.000000 0.315647 0.948877
vn 0.000000 0.315647 0.948877
vn 0.000000 0.599021 0.800733
vn 0.000000 0.599020 0.800734
vn -0.308722 0.876707 0.368883
vn -0.158316 0.833967 0.528616
vn -0.233697 0.931747 0.277909
vn -0.444701 0.875458 0.189245
vn 0.000000 0.599021 -0.800733
vn 0.000000 0.599022 -0.800733
vn 0.000000 0.315648 -0.948876
vn 0.000000 0.315648 -0.948877
vn -0.444701 -0.875458 0.189244
vn -0.233697 -0.931747 0.277909
vn -0.158316 -0.833967 0.528616
vn -0.308722 -0.876708 0.368882
vn 0.948877 0.315647 0.000000
vn 0.948877 0.315647 0.000000
vn 0.800734 0.599021 0.000000
vn 0.800733 0.599021 0.000000
vn -0.948877 0.315647 0.000000
vn -0.948877 0.315647 0.000000
vn -0.800733 0.599021 0.000000
vn -0.800734 0.599020 0.000000
vn 0.000000 0.599022 -0.800733
vn 0.000000 0.599021 -0.800733
vn 0.000000 0.315648 -0.948877
vn 0.000000 0.315648 -0.948876
vn 0.164703 -0.832088 0.529625
vn 0.243052 -0.929041 0.278940
vn 0.461677 -0.866462 0.189997
vn 0.320933 -0.871811 0.370065
vn 0.000000 0.599021 0.800733
vn 0.000000 0.315647 0.948877
vn 0.000000 0.315647 0.948877
vn 0.000000 0.599020 0.800734
vn 0.243052 0.929041 0.278941
vn 0.164703 0.832088 0.529625
vn 0.320933 0.871810 0.370066
vn 0.461677 0.866462 0.189998
vn 0.000000 -0.266095 -0.963947
vn 0.000000 -0.266094 -0.963947
vn 0.000000 -0.513002 -0.858388
vn 0.000000 -0.513002 -0.858387
vn 0.000000 -0.266095 -0.963947
vn 0.000000 -0.513002 -0.858387
vn 0.000000 -0.266095 -0.963947
vn 0.000000 -0.513002 -0.858387
vn -0.858387 -0.513002 0.000000
vn -0.858387 -0.513003 0.000000
vn -0.963947 -0.266095 0.000000
vn -0.963947 -0.266095 0.000000
vn 0.000000 -0.513002 0.858387
vn 0.000000 -0.513002 0.858387
vn 0.000000 -0.266095 0.963947
vn 0.000000 -0.266095 0.963947
vn 0.000000 -0.266095 0.963947
vn 0.000000 -0.513002 0.858387
vn 0.000000 -0.266094 0.963947
vn 0.000000 -0.513002 0.858388
vn 0.858387 -0.513002 0.000000
vn 0.858387 -0.513002 0.000000
vn 0.963947 -0.266095 0.000000
vn 0.963947 -0.266095 0.000000
vn 0.948877 0.315647 0.000000
vn 0.800734 0.599021 0.000000
vn 0.243490 0.927694 -0.283014
vn 0.462089 0.865598 -0.192909
vn -0.234120 0.930420 -0.281970
vn -0.445103 0.874621 -0.192149
vn -0.948877 0.315647 0.000000
vn -0.800734 0.599020 0.000000
vn -0.858387 -0.513002 0.000000
vn -0.963947 -0.266095 0.000000
vn -0.445103 -0.874621 -0.192149
vn -0.234120 -0.930420 -0.281970
vn 0.243490 -0.927694 -0.283014
vn 0.462089 -0.865598 -0.192908
vn 0.858387 -0.513002 0.000000
vn 0.963947 -0.266095 0.000000
vn 0.948877 0.315647 0.000000
vn 0.800734 0.599021 0.000000
vn 0.164958 0.827410 -0.536825
vn 0.321305 0.869322 -0.375556
vn -0.158566 0.829316 -0.535809
vn -0.309086 0.874253 -0.374363
vn -0.948877 0.315648 0.000000
vn -0.800733 0.599021 0.000000
vn -0.858387 -0.513003 0.000000
vn -0.963947 -0.266095 0.000000
vn -0.309086 -0.874253 -0.374363
vn -0.158566 -0.829316 -0.535809
vn 0.164958 -0.827410 -0.536825
vn 0.321305 -0.869323 -0.375555
vn 0.963947 -0.266095 0.000000
vn 0.858387 -0.513003 0.000000
usemtl initialShadingGroup
f 21/5/1 22/6/2 16/2/3 3/1/4
f 3/1/5 16/2/6 28/3/7 29/4/8
f 5/17/9 13/16/10 19/23/11 20/24/12
f 31/29/13 32/30/14 15/31/15 1/32/16
f 24/19/17 25/20/18 26/14/19 4/13/20
f 30/11/21 21/5/22 3/1/23 29/4/24
f 9/22/25 6/26/26 17/28/27 18/27/28
f 11/36/29 33/35/30 34/44/31 2/45/32
f 12/7/33 23/12/34 24/19/35 4/13/36
f 27/8/37 12/7/38 4/13/39 26/14/40
f 13/16/10 9/22/25 18/27/28 19/23/11
f 15/31/15 32/30/14 33/35/30 11/36/29
f 16/2/3 22/6/2 23/12/34 12/7/33
f 28/3/7 16/2/6 12/7/38 27/8/37
f 55/53/41 56/56/42 8/54/43 10/49/44
f 54/48/45 55/53/41 10/49/44 14/41/46
f 53/47/47 54/48/45 14/41/46 7/40/48
f 31/29/49 1/32/50 50/38/51 51/39/52
f 1/32/53 15/31/54 49/37/55 50/38/56
f 48/46/57 49/37/55 15/31/54 11/36/58
f 47/52/59 48/46/57 11/36/58 2/45/60
f 2/45/61 34/44/62 46/51/63 47/52/64
f 25/20/18 35/25/65 36/21/66 26/14/19
f 37/15/67 27/8/37 26/14/40 36/21/68
f 38/9/69 28/3/7 27/8/37 37/15/67
f 29/4/8 28/3/7 38/9/69 39/10/70
f 40/18/71 30/11/21 29/4/24 39/10/72
f 41/33/73 31/29/49 51/39/52 52/43/74
f 41/33/75 42/34/76 32/30/14 31/29/13
f 33/35/30 32/30/14 42/34/76 43/42/77
f 34/44/31 33/35/30 43/42/77 44/50/78
f 46/51/63 34/44/62 44/50/79 45/55/80
f 35/25/65 17/28/81 6/26/82 36/21/66
f 9/22/83 37/15/67 36/21/68 6/26/84
f 13/16/85 38/9/69 37/15/67 9/22/83
f 39/10/70 38/9/69 13/16/85 5/17/86
f 20/24/87 40/18/71 39/10/72 5/17/88
f 7/40/89 41/33/73 52/43/74 53/47/90
f 7/40/91 14/41/92 42/34/76 41/33/75
f 43/42/77 42/34/76 14/41/92 10/49/93
f 44/50/78 43/42/77 10/49/93 8/54/94
f 56/56/95 45/55/80 44/50/79 8/54/96
f 25/57/18 46/58/63 45/59/80 35/60/65
f 47/61/64 46/58/63 25/57/18 24/62/17
f 24/65/35 23/66/34 48/67/57 47/68/59
f 23/66/34 22/69/2 49/70/55 48/67/57
f 50/71/56 49/70/55 22/69/2 21/72/1
f 51/73/52 50/74/51 21/75/22 30/76/21
f 52/77/74 51/73/52 30/76/21 40/78/71
f 53/79/90 52/77/74 40/78/71 20/80/87
f 20/81/12 19/82/11 54/83/45 53/84/47
f 19/82/11 18/85/28 55/86/41 54/83/45
f 18/85/28 17/87/27 56/88/42 55/86/41
f 35/60/65 45/59/80 56/63/95 17/64/81
