# This file uses centimeters as units for non-parametric coordinates.

mtllib Gem2.mtl
v 0.009338 0.020571 -0.004090
v 0.000000 0.020571 -0.006071
v -0.009338 0.020571 -0.004090
v -0.013206 0.020571 -0.000000
v -0.009338 0.020571 0.004090
v -0.000000 0.020571 0.006071
v 0.009338 0.020571 0.004090
v 0.013206 0.020571 -0.000000
v 0.015109 0.019255 -0.003188
v 0.006258 0.019255 -0.008102
v -0.006258 0.019255 -0.008102
v -0.015109 0.019255 -0.003188
v -0.015109 0.019255 0.003188
v -0.006258 0.019255 0.008102
v 0.006258 0.019255 0.008102
v 0.015109 0.019255 0.003188
v 0.014390 0.015800 -0.007555
v 0.000000 0.015800 -0.011805
v -0.014390 0.015800 -0.007555
v -0.022379 0.015800 -0.000000
v -0.014390 0.015800 0.007555
v -0.000000 0.015800 0.011805
v 0.014390 0.015800 0.007555
v 0.022379 0.015800 -0.000000
v 0.019350 0.015800 -0.004068
v 0.007788 0.015800 -0.010391
v -0.007788 0.015800 -0.010391
v -0.019350 0.015800 -0.004068
v -0.019350 0.015800 0.004068
v -0.007788 0.015800 0.010391
v 0.007788 0.015800 0.010391
v 0.019350 0.015800 0.004068
v 0.019350 0.014237 -0.004068
v 0.014390 0.014237 -0.007555
v 0.007788 0.014237 -0.010391
v 0.000000 0.014237 -0.011805
v -0.007788 0.014237 -0.010391
v -0.014390 0.014237 -0.007555
v -0.019350 0.014237 -0.004068
v -0.022379 0.014237 -0.000000
v -0.019350 0.014237 0.004068
v -0.014390 0.014237 0.007555
v -0.007788 0.014237 0.010391
v -0.000000 0.014237 0.011805
v 0.007788 0.014237 0.010391
v 0.014390 0.014237 0.007555
v 0.019350 0.014237 0.004068
v 0.022379 0.014237 -0.000000
v 0.000000 -0.000282 0.000000
vt 0.176311 0.137585
vt 0.236768 0.194755
vt 0.266045 0.332777
vt 0.236768 0.470799
vt 0.176311 0.527969
vt 0.115854 0.470799
vt 0.086578 0.332777
vt 0.115854 0.194755
vt 0.223431 0.109451
vt 0.296072 0.240272
vt 0.296072 0.425282
vt 0.223431 0.556103
vt 0.129191 0.556103
vt 0.056551 0.425282
vt 0.056551 0.240272
vt 0.129191 0.109451
vt 0.287974 0.120084
vt 0.176311 0.001992
vt 0.350795 0.332777
vt 0.287974 0.545470
vt 0.176311 0.663562
vt 0.064648 0.545470
vt 0.001827 0.332777
vt 0.064648 0.120084
vt 0.329905 0.217668
vt 0.236444 0.046764
vt 0.116178 0.046764
vt 0.329906 0.447885
vt 0.236444 0.618790
vt 0.116178 0.618790
vt 0.022717 0.447886
vt 0.022717 0.217668
vt 0.357769 0.217668
vt 0.357769 0.120084
vt 0.380872 0.120084
vt 0.380872 0.217668
vt 0.357769 0.046764
vt 0.380872 0.046764
vt 0.595478 0.332777
vt 0.357769 0.332777
vt 0.380872 0.332777
vt 0.357769 0.001992
vt 0.380872 0.001992
vt 0.357769 0.447885
vt 0.380872 0.447885
vt 0.357769 0.545470
vt 0.380872 0.545470
vt 0.357769 0.618790
vt 0.380872 0.618790
vt 0.357769 0.663562
vt 0.380872 0.663562
vt 0.840400 0.447886
vt 0.840400 0.545470
vt 0.817297 0.545470
vt 0.817297 0.447886
vt 0.840400 0.618790
vt 0.817297 0.618790
vt 0.602691 0.332777
vt 0.840400 0.332777
vt 0.817297 0.332777
vt 0.840400 0.663562
vt 0.817297 0.663562
vt 0.840400 0.217668
vt 0.817297 0.217668
vt 0.840400 0.120084
vt 0.817297 0.120084
vt 0.840400 0.046764
vt 0.817297 0.046764
vt 0.840400 0.001992
vt 0.817297 0.001992
vt 0.855329 0.998008
vt 0.795196 0.953236
vt 0.855329 0.667223
vt 0.915462 0.953236
vt 0.729435 0.667223
vt 0.789568 0.711995
vt 0.729435 0.998008
vt 0.669302 0.711995
vn 0.000000 1.000000 -0.000000
vn 0.000000 1.000000 -0.000000
vn 0.000000 1.000000 -0.000000
vn 0.000000 1.000000 -0.000000
vn 0.000000 1.000000 -0.000000
vn 0.000000 1.000000 -0.000000
vn 0.000000 1.000000 -0.000000
vn 0.000000 1.000000 -0.000000
vn 0.251213 0.938327 -0.237558
vn 0.251213 0.938327 -0.237558
vn 0.251213 0.938327 -0.237558
vn 0.077181 0.928251 -0.363859
vn 0.077181 0.928251 -0.363859
vn 0.077181 0.928251 -0.363859
vn -0.077181 0.928251 -0.363859
vn -0.077181 0.928251 -0.363859
vn -0.077181 0.928251 -0.363859
vn -0.251213 0.938327 -0.237558
vn -0.251213 0.938327 -0.237558
vn -0.251213 0.938327 -0.237558
vn -0.251213 0.938327 0.237558
vn -0.251213 0.938327 0.237558
vn -0.251213 0.938327 0.237558
vn -0.077181 0.928251 0.363859
vn -0.077181 0.928251 0.363859
vn -0.077181 0.928251 0.363859
vn 0.077181 0.928251 0.363859
vn 0.077181 0.928251 0.363859
vn 0.077181 0.928251 0.363859
vn 0.251213 0.938327 0.237558
vn 0.251213 0.938327 0.237558
vn 0.251213 0.938327 0.237558
vn 0.318735 0.754259 -0.574022
vn 0.318735 0.754259 -0.574022
vn 0.318735 0.754259 -0.574022
vn 0.318735 0.754259 -0.574022
vn 0.000000 0.768669 -0.639647
vn 0.000000 0.768669 -0.639647
vn 0.000000 0.768669 -0.639647
vn 0.000000 0.768669 -0.639647
vn -0.318735 0.754259 -0.574022
vn -0.318735 0.754259 -0.574022
vn -0.318735 0.754259 -0.574022
vn -0.318735 0.754259 -0.574022
vn -0.461439 0.887172 -0.000000
vn -0.461439 0.887172 -0.000000
vn -0.461439 0.887172 -0.000000
vn -0.461439 0.887172 -0.000000
vn -0.318735 0.754259 0.574022
vn -0.318735 0.754259 0.574022
vn -0.318735 0.754259 0.574022
vn -0.318735 0.754259 0.574022
vn 0.000000 0.768669 0.639647
vn 0.000000 0.768669 0.639647
vn 0.000000 0.768669 0.639647
vn 0.000000 0.768669 0.639647
vn 0.318735 0.754259 0.574022
vn 0.318735 0.754259 0.574022
vn 0.318735 0.754259 0.574022
vn 0.318735 0.754259 0.574022
vn 0.461439 0.887172 0.000000
vn 0.461439 0.887172 0.000000
vn 0.461439 0.887172 0.000000
vn 0.461439 0.887172 0.000000
vn 0.424351 0.674813 -0.603783
vn 0.424351 0.674813 -0.603783
vn 0.424351 0.674813 -0.603783
vn 0.310759 0.616755 -0.723216
vn 0.310759 0.616755 -0.723216
vn 0.310759 0.616755 -0.723216
vn 0.144154 0.590127 -0.794336
vn 0.144154 0.590127 -0.794336
vn 0.144154 0.590127 -0.794336
vn -0.144153 0.590127 -0.794336
vn -0.144153 0.590127 -0.794336
vn -0.144153 0.590127 -0.794336
vn -0.310759 0.616755 -0.723217
vn -0.310759 0.616755 -0.723217
vn -0.310759 0.616755 -0.723217
vn -0.424350 0.674812 -0.603784
vn -0.424350 0.674812 -0.603784
vn -0.424350 0.674812 -0.603784
vn -0.529754 0.750857 -0.394430
vn -0.529754 0.750857 -0.394430
vn -0.529754 0.750857 -0.394430
vn -0.529754 0.750856 0.394430
vn -0.529754 0.750856 0.394430
vn -0.529754 0.750856 0.394430
vn -0.424350 0.674812 0.603784
vn -0.424350 0.674812 0.603784
vn -0.424350 0.674812 0.603784
vn -0.310760 0.616755 0.723216
vn -0.310760 0.616755 0.723216
vn -0.310760 0.616755 0.723216
vn -0.144154 0.590128 0.794336
vn -0.144154 0.590128 0.794336
vn -0.144154 0.590128 0.794336
vn 0.144153 0.590128 0.794336
vn 0.144153 0.590128 0.794336
vn 0.144153 0.590128 0.794336
vn 0.310759 0.616755 0.723217
vn 0.310759 0.616755 0.723217
vn 0.310759 0.616755 0.723217
vn 0.424350 0.674812 0.603784
vn 0.424350 0.674812 0.603784
vn 0.424350 0.674812 0.603784
vn 0.529754 0.750856 0.394430
vn 0.529754 0.750856 0.394430
vn 0.529754 0.750856 0.394430
vn 0.529754 0.750856 -0.394431
vn 0.529754 0.750856 -0.394431
vn 0.529754 0.750856 -0.394431
vn 0.575009 0.000000 -0.818147
vn 0.575009 0.000000 -0.818147
vn 0.575009 0.000000 -0.818147
vn 0.575009 0.000000 -0.818147
vn 0.394788 0.000000 -0.918772
vn 0.394788 0.000000 -0.918772
vn 0.394788 0.000000 -0.918772
vn 0.394788 0.000000 -0.918772
vn 0.178561 0.000000 -0.983929
vn 0.178561 0.000000 -0.983929
vn 0.178561 0.000000 -0.983929
vn 0.178561 0.000000 -0.983929
vn -0.178560 0.000000 -0.983929
vn -0.178560 0.000000 -0.983929
vn -0.178560 0.000000 -0.983929
vn -0.178560 0.000000 -0.983929
vn -0.394787 0.000000 -0.918773
vn -0.394787 0.000000 -0.918773
vn -0.394787 0.000000 -0.918773
vn -0.394787 0.000000 -0.918773
vn -0.575008 0.000000 -0.818148
vn -0.575008 0.000000 -0.818148
vn -0.575008 0.000000 -0.818148
vn -0.575008 0.000000 -0.818148
vn -0.802091 0.000000 -0.597201
vn -0.802091 0.000000 -0.597201
vn -0.802091 0.000000 -0.597201
vn -0.802091 0.000000 -0.597201
vn -0.802091 0.000000 0.597201
vn -0.802091 0.000000 0.597201
vn -0.802091 0.000000 0.597201
vn -0.802091 0.000000 0.597201
vn -0.575009 0.000000 0.818147
vn -0.575009 0.000000 0.818147
vn -0.575009 0.000000 0.818147
vn -0.575009 0.000000 0.818147
vn -0.394788 0.000000 0.918772
vn -0.394788 0.000000 0.918772
vn -0.394788 0.000000 0.918772
vn -0.394788 0.000000 0.918772
vn -0.178560 0.000000 0.983929
vn -0.178560 0.000000 0.983929
vn -0.178560 0.000000 0.983929
vn -0.178560 0.000000 0.983929
vn 0.178560 0.000000 0.983929
vn 0.178560 0.000000 0.983929
vn 0.178560 0.000000 0.983929
vn 0.178560 0.000000 0.983929
vn 0.394788 0.000000 0.918772
vn 0.394788 0.000000 0.918772
vn 0.394788 0.000000 0.918772
vn 0.394788 0.000000 0.918772
vn 0.575008 0.000000 0.818148
vn 0.575008 0.000000 0.818148
vn 0.575008 0.000000 0.818148
vn 0.575008 0.000000 0.818148
vn 0.802091 0.000000 0.597201
vn 0.802091 0.000000 0.597201
vn 0.802091 0.000000 0.597201
vn 0.802091 0.000000 0.597201
vn 0.802091 0.000000 -0.597202
vn 0.802091 0.000000 -0.597202
vn 0.802091 0.000000 -0.597202
vn 0.802091 0.000000 -0.597202
vn 0.407493 -0.705539 -0.579797
vn 0.407493 -0.705539 -0.579797
vn 0.407493 -0.705539 -0.579797
vn 0.297945 -0.656074 -0.693394
vn 0.297945 -0.656074 -0.693394
vn 0.297945 -0.656074 -0.693394
vn 0.139434 -0.624684 -0.768328
vn 0.139434 -0.624684 -0.768328
vn 0.139434 -0.624684 -0.768328
vn -0.139434 -0.624684 -0.768328
vn -0.139434 -0.624684 -0.768328
vn -0.139434 -0.624684 -0.768328
vn -0.297944 -0.656074 -0.693395
vn -0.297944 -0.656074 -0.693395
vn -0.297944 -0.656074 -0.693395
vn -0.407492 -0.705539 -0.579798
vn -0.407492 -0.705539 -0.579798
vn -0.407492 -0.705539 -0.579798
vn -0.504423 -0.777498 -0.375571
vn -0.504423 -0.777498 -0.375571
vn -0.504423 -0.777498 -0.375571
vn -0.504424 -0.777498 0.375571
vn -0.504424 -0.777498 0.375571
vn -0.504424 -0.777498 0.375571
vn -0.407492 -0.705539 0.579798
vn -0.407492 -0.705539 0.579798
vn -0.407492 -0.705539 0.579798
vn -0.297945 -0.656074 0.693394
vn -0.297945 -0.656074 0.693394
vn -0.297945 -0.656074 0.693394
vn -0.139434 -0.624684 0.768328
vn -0.139434 -0.624684 0.768328
vn -0.139434 -0.624684 0.768328
vn 0.139434 -0.624684 0.768328
vn 0.139434 -0.624684 0.768328
vn 0.139434 -0.624684 0.768328
vn 0.297945 -0.656074 0.693394
vn 0.297945 -0.656074 0.693394
vn 0.297945 -0.656074 0.693394
vn 0.407492 -0.705539 0.579798
vn 0.407492 -0.705539 0.579798
vn 0.407492 -0.705539 0.579798
vn 0.504424 -0.777498 0.375571
vn 0.504424 -0.777498 0.375571
vn 0.504424 -0.777498 0.375571
vn 0.504423 -0.777498 -0.375572
vn 0.504423 -0.777498 -0.375572
vn 0.504423 -0.777498 -0.375572
usemtl initialShadingGroup
f 8/1/1 1/2/2 2/3/3 3/4/4 4/5/5 5/6/6 6/7/7 7/8/8
f 9/9/9 1/2/10 8/1/11
f 10/10/12 2/3/13 1/2/14
f 11/11/15 3/4/16 2/3/17
f 12/12/18 4/5/19 3/4/20
f 13/13/21 5/6/22 4/5/23
f 14/14/24 6/7/25 5/6/26
f 15/15/27 7/8/28 6/7/29
f 16/16/30 8/1/31 7/8/32
f 17/17/33 10/10/34 1/2/35 9/9/36
f 18/19/37 11/11/38 2/3/39 10/10/40
f 19/20/41 12/12/42 3/4/43 11/11/44
f 20/21/45 13/13/46 4/5/47 12/12/48
f 21/22/49 14/14/50 5/6/51 13/13/52
f 22/23/53 15/15/54 6/7/55 14/14/56
f 23/24/57 16/16/58 7/8/59 15/15/60
f 24/18/61 9/9/62 8/1/63 16/16/64
f 17/17/65 9/9/66 25/26/67
f 10/10/68 17/17/69 26/25/70
f 18/19/71 10/10/72 26/25/73
f 11/11/74 18/19/75 27/28/76
f 19/20/77 11/11/78 27/28/79
f 12/12/80 19/20/81 28/29/82
f 20/21/83 12/12/84 28/29/85
f 13/13/86 20/21/87 29/30/88
f 21/22/89 13/13/90 29/30/91
f 14/14/92 21/22/93 30/31/94
f 22/23/95 14/14/96 30/31/97
f 15/15/98 22/23/99 31/32/100
f 23/24/101 15/15/102 31/32/103
f 16/16/104 23/24/105 32/27/106
f 24/18/107 16/16/108 32/27/109
f 9/9/110 24/18/111 25/26/112
f 17/34/113 25/37/114 33/38/115 34/35/116
f 26/33/117 17/34/118 34/35/119 35/36/120
f 18/40/121 26/33/122 35/36/123 36/41/124
f 27/44/125 18/40/126 36/41/127 37/45/128
f 19/46/129 27/44/130 37/45/131 38/47/132
f 28/48/133 19/46/134 38/47/135 39/49/136
f 20/50/137 28/48/138 39/49/139 40/51/140
f 29/56/141 20/61/142 40/62/143 41/57/144
f 21/53/145 29/56/146 41/57/147 42/54/148
f 30/52/149 21/53/150 42/54/151 43/55/152
f 22/59/153 30/52/154 43/55/155 44/60/156
f 31/63/157 22/59/158 44/60/159 45/64/160
f 23/65/161 31/63/162 45/64/163 46/66/164
f 32/67/165 23/65/166 46/66/167 47/68/168
f 24/69/169 32/67/170 47/68/171 48/70/172
f 25/37/173 24/42/174 48/43/175 33/38/176
f 34/35/177 33/38/178 49/39/179
f 35/36/180 34/35/181 49/39/182
f 36/41/183 35/36/184 49/39/185
f 37/45/186 36/41/187 49/39/188
f 38/47/189 37/45/190 49/39/191
f 39/49/192 38/47/193 49/39/194
f 40/71/195 39/72/196 49/73/197
f 41/74/198 40/71/199 49/73/200
f 42/54/201 41/57/202 49/58/203
f 43/55/204 42/54/205 49/58/206
f 44/60/207 43/55/208 49/58/209
f 45/64/210 44/60/211 49/58/212
f 46/66/213 45/64/214 49/58/215
f 47/68/216 46/66/217 49/58/218
f 48/75/219 47/76/220 49/77/221
f 33/78/222 48/75/223 49/77/224
