# This file uses centimeters as units for non-parametric coordinates.

mtllib Gem4.mtl
v -0.009396 0.020949 0.010152
v 0.009396 0.020949 0.010152
v -0.009396 0.020949 -0.010152
v 0.009396 0.020949 -0.010152
v -0.017847 0.014948 0.019284
v 0.017847 0.014948 0.019284
v -0.017847 0.014948 -0.019284
v 0.017847 0.014948 -0.019284
v -0.013213 0.017547 -0.016913
v -0.015653 0.017547 -0.013699
v 0.012705 0.017547 -0.016913
v 0.015653 0.017547 -0.013819
v -0.015653 0.017547 0.014099
v -0.012264 0.017547 0.016913
v 0.012677 0.017547 0.016913
v 0.015653 0.017547 0.013868
v 0.000000 0.020949 -0.011074
v 0.010249 0.020949 0.000000
v 0.000000 0.020949 0.011074
v -0.010249 0.020949 0.000000
v 0.000000 0.002033 0.000000
v 0.000000 0.011314 0.014776
v 0.000000 0.011314 -0.014776
v -0.013675 0.011314 0.000000
v 0.013675 0.011314 0.000000
v -0.009375 0.008396 0.000000
v 0.000000 0.009244 -0.011481
v 0.010472 0.009140 0.000000
v 0.000000 0.009680 0.012175
v -0.006062 0.006147 0.000000
v 0.000000 0.006477 -0.007076
v 0.005236 0.005586 0.000000
v 0.000000 0.006206 0.006644
vt 0.110542 0.119478
vt 0.231425 0.107617
vt 0.352308 0.119478
vt 0.363285 0.250091
vt 0.352308 0.380703
vt 0.231425 0.392564
vt 0.110542 0.380703
vt 0.099565 0.250091
vt 0.073635 0.032499
vt 0.394521 0.032499
vt 0.432809 0.071667
vt 0.432809 0.427874
vt 0.394881 0.467682
vt 0.061438 0.467682
vt 0.030041 0.426335
vt 0.030041 0.068693
vt 0.001808 0.001992
vt 0.461043 0.001992
vt 0.461043 0.498189
vt 0.001808 0.498189
vt 0.905601 0.998008
vt 0.446367 0.998008
vt 0.675984 0.940010
vt 0.675984 0.906546
vt 0.675984 0.835385
vt 0.675984 0.749910
vt 0.597997 0.749910
vt 0.743345 0.749910
vt 0.555365 0.749910
vt 0.446367 0.501811
vt 0.810707 0.749910
vt 0.905601 0.501811
vt 0.500044 0.749910
vt 0.675984 0.658877
vt 0.851924 0.749910
vt 0.675984 0.602200
vt 0.675984 0.559809
vn 0.000000 1.000000 0.000000
vn 0.000000 1.000000 0.000000
vn 0.000000 1.000000 0.000000
vn 0.000000 1.000000 0.000000
vn 0.000000 1.000000 0.000000
vn 0.000000 1.000000 0.000000
vn 0.000000 1.000000 0.000000
vn 0.000000 1.000000 0.000000
vn 0.310967 0.900499 0.303977
vn 0.310967 0.900499 0.303977
vn 0.310967 0.900499 0.303977
vn 0.310967 0.900499 0.303977
vn -0.350295 0.898078 -0.265988
vn -0.350295 0.898078 -0.265988
vn -0.350295 0.898078 -0.265988
vn -0.350295 0.898078 -0.265988
vn 0.000000 0.864023 -0.503452
vn 0.000000 0.864023 -0.503452
vn 0.000000 0.864023 -0.503452
vn -0.000000 0.673987 -0.738744
vn -0.000000 0.673987 -0.738744
vn -0.000000 0.673987 -0.738744
vn -0.000000 0.673987 -0.738744
vn -0.277828 0.900465 0.334625
vn -0.277828 0.900465 0.334625
vn -0.277828 0.900465 0.334625
vn -0.277828 0.900465 0.334625
vn 0.315026 0.900375 -0.300139
vn 0.315026 0.900375 -0.300139
vn 0.315026 0.900375 -0.300139
vn 0.315026 0.900375 -0.300139
vn -0.460310 0.886915 -0.038687
vn -0.460310 0.886915 -0.038687
vn -0.460310 0.886915 -0.038687
vn -0.764059 0.645146 0.000000
vn -0.764059 0.645146 0.000000
vn -0.764059 0.645146 0.000000
vn -0.764059 0.645146 0.000000
vn -0.042643 0.899608 0.434612
vn -0.042643 0.899608 0.434612
vn -0.042643 0.899608 0.434612
vn 0.000000 0.673987 0.738744
vn 0.000000 0.673987 0.738744
vn 0.000000 0.673987 0.738744
vn 0.000000 0.673987 0.738744
vn 0.764059 0.645146 0.000000
vn 0.764059 0.645146 0.000000
vn 0.764059 0.645146 0.000000
vn 0.764059 0.645146 0.000000
vn 0.532782 0.846252 0.000000
vn 0.532782 0.846252 0.000000
vn 0.532782 0.846252 0.000000
vn -0.042192 0.901838 -0.430009
vn -0.042192 0.901838 -0.430009
vn -0.042192 0.901838 -0.430009
vn 0.042433 0.900652 -0.432464
vn 0.042433 0.900652 -0.432464
vn 0.042433 0.900652 -0.432464
vn 0.459755 0.887205 -0.038640
vn 0.459755 0.887205 -0.038640
vn 0.459755 0.887205 -0.038640
vn 0.042446 0.900586 0.432600
vn 0.042446 0.900586 0.432600
vn 0.042446 0.900586 0.432600
vn 0.000000 0.864023 0.503452
vn 0.000000 0.864023 0.503452
vn 0.000000 0.864023 0.503452
vn -0.458457 0.887881 0.038531
vn -0.458457 0.887881 0.038531
vn -0.458457 0.887881 0.038531
vn -0.532782 0.846252 0.000000
vn -0.532782 0.846252 0.000000
vn -0.532782 0.846252 0.000000
vn 0.459524 0.887325 0.038621
vn 0.459524 0.887325 0.038621
vn 0.459524 0.887325 0.038621
vn 0.000000 -0.778539 0.627596
vn 0.000000 -0.778539 0.627596
vn 0.000000 -0.778539 0.627596
vn 0.000000 -0.778539 -0.627596
vn 0.000000 -0.778539 -0.627596
vn 0.000000 -0.778539 -0.627596
vn -0.656796 -0.754068 -0.000000
vn -0.656796 -0.754068 -0.000000
vn -0.656796 -0.754068 -0.000000
vn 0.656796 -0.754068 0.000000
vn 0.656796 -0.754068 0.000000
vn 0.656796 -0.754068 0.000000
vn 0.038038 -0.846186 0.531529
vn 0.038038 -0.846186 0.531529
vn 0.038038 -0.846186 0.531529
vn 0.038038 -0.846186 -0.531529
vn 0.038038 -0.846186 -0.531529
vn 0.038038 -0.846186 -0.531529
vn -0.561243 -0.826936 0.034405
vn -0.561243 -0.826936 0.034405
vn -0.561243 -0.826936 0.034405
vn 0.561243 -0.826936 0.034406
vn 0.561243 -0.826936 0.034406
vn 0.561243 -0.826936 0.034406
vn -0.038038 -0.846186 0.531529
vn -0.038038 -0.846186 0.531529
vn -0.038038 -0.846186 0.531529
vn -0.038038 -0.846186 -0.531529
vn -0.038038 -0.846186 -0.531529
vn -0.038038 -0.846186 -0.531529
vn -0.561243 -0.826936 -0.034405
vn -0.561243 -0.826936 -0.034405
vn -0.561243 -0.826936 -0.034405
vn 0.561243 -0.826936 -0.034406
vn 0.561243 -0.826936 -0.034406
vn 0.561243 -0.826936 -0.034406
vn -0.561244 -0.826935 0.034405
vn -0.561244 -0.826935 0.034405
vn -0.561244 -0.826935 0.034405
vn -0.561244 -0.826935 -0.034405
vn -0.561244 -0.826935 -0.034405
vn -0.561244 -0.826935 -0.034405
vn -0.038041 -0.846188 -0.531524
vn -0.038041 -0.846188 -0.531524
vn -0.038041 -0.846188 -0.531524
vn 0.038041 -0.846188 -0.531524
vn 0.038041 -0.846188 -0.531524
vn 0.038041 -0.846188 -0.531524
vn 0.561242 -0.826936 -0.034406
vn 0.561242 -0.826936 -0.034406
vn 0.561242 -0.826936 -0.034406
vn 0.561242 -0.826936 0.034406
vn 0.561242 -0.826936 0.034406
vn 0.561242 -0.826936 0.034406
vn 0.038038 -0.846184 0.531531
vn 0.038038 -0.846184 0.531531
vn 0.038038 -0.846184 0.531531
vn -0.038038 -0.846184 0.531531
vn -0.038038 -0.846184 0.531531
vn -0.038038 -0.846184 0.531531
vn -0.561242 -0.826936 0.034406
vn -0.561242 -0.826936 0.034406
vn -0.561242 -0.826936 0.034406
vn -0.561242 -0.826936 -0.034406
vn -0.561242 -0.826936 -0.034406
vn -0.561242 -0.826936 -0.034406
vn -0.038038 -0.846186 -0.531529
vn -0.038038 -0.846186 -0.531529
vn -0.038038 -0.846186 -0.531529
vn 0.038038 -0.846185 -0.531529
vn 0.038038 -0.846185 -0.531529
vn 0.038038 -0.846185 -0.531529
vn 0.561244 -0.826935 -0.034404
vn 0.561244 -0.826935 -0.034404
vn 0.561244 -0.826935 -0.034404
vn 0.561244 -0.826935 0.034404
vn 0.561244 -0.826935 0.034404
vn 0.561244 -0.826935 0.034404
vn 0.038042 -0.846188 0.531525
vn 0.038042 -0.846188 0.531525
vn 0.038042 -0.846188 0.531525
vn -0.038042 -0.846188 0.531525
vn -0.038042 -0.846188 0.531525
vn -0.038042 -0.846188 0.531525
usemtl initialShadingGroup
f 1/1/1 19/2/2 2/3/3 18/4/4 4/5/5 17/6/6 3/7/7 20/8/8
f 6/18/9 16/11/10 2/3/11 15/10/12
f 7/20/13 10/15/14 3/7/15 9/14/16
f 17/6/17 11/13/18 9/14/19
f 7/20/20 9/14/21 11/13/22 8/19/23
f 13/16/24 5/17/25 14/9/26 1/1/27
f 12/12/28 8/19/29 11/13/30 4/5/31
f 20/8/32 3/7/33 10/15/34
f 5/17/35 13/16/36 10/15/37 7/20/38
f 19/2/39 1/1/40 14/9/41
f 6/18/42 15/10/43 14/9/44 5/17/45
f 12/12/46 16/11/47 6/18/48 8/19/49
f 18/4/50 16/11/51 12/12/52
f 3/7/53 17/6/54 9/14/55
f 17/6/56 4/5/57 11/13/58
f 4/5/59 18/4/60 12/12/61
f 2/3/62 19/2/63 15/10/64
f 19/2/65 14/9/66 15/10/67
f 1/1/68 20/8/69 13/16/70
f 20/8/71 10/15/72 13/16/73
f 18/4/74 2/3/75 16/11/76
f 6/21/77 5/22/78 22/23/79
f 7/30/80 8/32/81 23/37/82
f 5/22/83 7/30/84 24/33/85
f 8/32/86 6/21/87 25/35/88
f 6/21/89 33/25/90 21/26/91
f 31/34/92 8/32/93 21/26/94
f 5/22/95 30/27/96 21/26/97
f 32/28/98 6/21/99 21/26/100
f 33/25/101 5/22/102 21/26/103
f 7/30/104 31/34/105 21/26/106
f 30/27/107 7/30/108 21/26/109
f 8/32/110 32/28/111 21/26/112
f 5/22/113 24/33/114 26/29/115
f 24/33/116 7/30/117 26/29/118
f 7/30/119 23/37/120 27/36/121
f 23/37/122 8/32/123 27/36/124
f 8/32/125 25/35/126 28/31/127
f 25/35/128 6/21/129 28/31/130
f 6/21/131 22/23/132 29/24/133
f 22/23/134 5/22/135 29/24/136
f 5/22/137 26/29/138 30/27/139
f 26/29/140 7/30/141 30/27/142
f 7/30/143 27/36/144 31/34/145
f 27/36/146 8/32/147 31/34/148
f 8/32/149 28/31/150 32/28/151
f 28/31/152 6/21/153 32/28/154
f 6/21/155 29/24/156 33/25/157
f 29/24/158 5/22/159 33/25/160
