# This file uses centimeters as units for non-parametric coordinates.

mtllib TutorialRoom.mtl
g default
v -12.575001 -4.000000 12.575001
v -12.575001 4.000000 12.575001
v -12.475000 4.000000 12.475000
v -12.475000 -4.000000 12.475000
v 12.575001 -4.000000 12.575001
v 12.575001 4.000000 12.575001
v 12.475000 4.000000 12.475000
v 12.475000 -4.000000 12.475000
v 12.574999 -4.000000 -12.575001
v 12.574999 4.000000 -12.575001
v 12.474998 4.000000 -12.475000
v 12.474998 -4.000000 -12.475000
v -12.575001 -4.000000 -12.574999
v -12.575001 4.000000 -12.574999
v -12.475000 4.000000 -12.474998
v -12.475000 -4.000000 -12.474998
vt 0.375000 0.000000
vt 0.375000 0.250000
vt 0.377332 0.500000
vt 0.377332 0.750000
vt 0.375000 0.000000
vt 0.375000 0.250000
vt 0.375000 0.250000
vt 0.375000 0.000000
vt 0.377332 0.500000
vt 0.377332 0.750000
vt 0.375000 0.000000
vt 0.375000 0.250000
vt 0.375000 0.250000
vt 0.375000 0.000000
vt 0.377332 0.500000
vt 0.377332 0.750000
vt 0.375000 0.000000
vt 0.375000 0.250000
vt 0.375000 0.250000
vt 0.375000 0.000000
vt 0.377332 0.500000
vt 0.377332 0.750000
vt 0.375000 0.000000
vt 0.375000 0.250000
vn 0.000000 0.000000 1.000000
vn 0.000000 0.000000 1.000000
vn 0.000000 0.000000 1.000000
vn 0.000000 0.000000 1.000000
vn 0.000000 1.000000 0.000000
vn 0.000000 1.000000 0.000000
vn 0.000000 1.000000 0.000000
vn 0.000000 1.000000 0.000000
vn -1.000000 0.000000 0.000000
vn -1.000000 0.000000 0.000000
vn -1.000000 0.000000 0.000000
vn -1.000000 0.000000 0.000000
vn 0.000000 0.000000 -1.000000
vn 0.000000 0.000000 -1.000000
vn 0.000000 0.000000 -1.000000
vn 0.000000 0.000000 -1.000000
vn 1.000000 0.000000 0.000000
vn 1.000000 0.000000 0.000000
vn 1.000000 0.000000 0.000000
vn 1.000000 0.000000 0.000000
vn 0.000000 1.000000 0.000000
vn 0.000000 1.000000 0.000000
vn 0.000000 1.000000 0.000000
vn 0.000000 1.000000 0.000000
vn 1.000000 0.000000 -0.000000
vn 1.000000 0.000000 -0.000000
vn 1.000000 0.000000 -0.000000
vn 1.000000 0.000000 -0.000000
vn 0.000000 1.000000 0.000000
vn 0.000000 1.000000 0.000000
vn 0.000000 1.000000 0.000000
vn 0.000000 1.000000 0.000000
vn -1.000000 0.000000 0.000000
vn -1.000000 0.000000 0.000000
vn -1.000000 0.000000 0.000000
vn -1.000000 0.000000 0.000000
vn -0.000000 0.000000 -1.000000
vn -0.000000 0.000000 -1.000000
vn -0.000000 0.000000 -1.000000
vn -0.000000 0.000000 -1.000000
vn 0.000000 1.000000 0.000000
vn 0.000000 1.000000 0.000000
vn 0.000000 1.000000 0.000000
vn 0.000000 1.000000 0.000000
vn 0.000000 0.000000 1.000000
vn 0.000000 0.000000 1.000000
vn 0.000000 0.000000 1.000000
vn 0.000000 0.000000 1.000000
s off
g polySurface5
usemtl initialShadingGroup
f 2/2/1 1/1/2 5/8/3 6/7/4
f 3/3/5 2/2/6 6/7/7 7/12/8
f 13/20/9 1/1/10 2/2/11 14/19/12
f 8/11/13 4/4/14 3/3/15 7/12/16
f 3/6/17 4/5/18 16/22/19 15/21/20
f 2/2/21 3/6/22 15/21/23 14/19/24
f 6/7/25 5/8/26 9/14/27 10/13/28
f 7/9/29 6/7/30 10/13/31 11/18/32
f 12/17/33 8/10/34 7/9/35 11/18/36
f 10/13/37 9/14/38 13/20/39 14/19/40
f 11/15/41 10/13/42 14/19/43 15/24/44
f 16/23/45 12/16/46 11/15/47 15/24/48
