# This file uses centimeters as units for non-parametric coordinates.

mtllib ViewArea.mtl
g default
v 1.043702 0.677571 14.407551
v -1.043702 0.677571 14.407551
v -0.000000 3.315869 14.407551
v 0.000000 1.557004 0.206295
vt 0.375000 0.033494
vt 0.375000 0.466506
vt 0.750000 0.250000
vt 0.250000 0.500000
vt 0.416667 0.500000
vt 0.583333 0.500000
vt 0.750000 0.500000
vt 0.500000 1.000000
vn 0.000000 0.000000 1.000000
vn 0.000000 0.000000 1.000000
vn 0.000000 0.000000 1.000000
vn 0.000000 -0.998088 -0.061808
vn 0.000000 -0.998088 -0.061808
vn 0.000000 -0.998088 -0.061808
vn -0.928918 0.367477 -0.045513
vn -0.928918 0.367477 -0.045513
vn -0.928918 0.367477 -0.045513
vn 0.928918 0.367477 -0.045513
vn 0.928918 0.367477 -0.045513
vn 0.928918 0.367477 -0.045513
s off
g pCone1
usemtl initialShadingGroup
f 1/1/1 3/3/2 2/2/3
f 1/4/4 2/5/5 4/8/6
f 2/5/7 3/6/8 4/8/9
f 3/6/10 1/7/11 4/8/12
