# This file uses centimeters as units for non-parametric coordinates.

mtllib barBase_MESH.mtl
g default
v -21.404736 3.835499 -17.824541
v -21.404736 2.995275 -17.824541
v -21.404736 2.995275 -20.824541
v -21.404736 3.835499 -20.824541
v -19.404737 2.995275 -20.824541
v -19.404737 2.995275 -17.824541
v -21.404736 4.085002 -17.824541
v -21.404736 4.085002 -20.824541
v -22.412415 0.000000 -20.824541
v -21.404736 0.000000 -20.824541
v -21.404736 0.000000 -17.824541
v -22.412416 0.000000 -17.824541
v -22.412415 3.835499 -20.824541
v -22.412416 3.835499 -17.824541
v -23.331928 3.835499 -20.824541
v -23.331928 3.835499 -17.824541
v -23.331926 4.085002 -20.824541
v -23.331928 4.085002 -17.824541
v -22.412416 4.085002 -17.824541
v -22.412416 4.085002 -20.824541
v -19.404737 0.000000 -20.824541
v -19.404737 0.000000 -17.824541
v -22.412415 2.995275 -20.824541
v -22.412416 2.995275 -17.824541
vt 0.820909 0.250000
vt 0.875000 0.250000
vt 0.875000 0.000000
vt 0.820909 0.000000
vt 0.409691 0.750000
vt 0.625000 0.750000
vt 0.625000 0.500000
vt 0.409691 0.500000
vt 0.771970 0.250000
vt 0.771970 0.000000
vt 0.375000 0.777533
vt 0.420539 0.777533
vt 0.420539 0.981922
vt 0.375000 0.981922
vt 0.152533 0.240564
vt 0.152533 0.000000
vt 0.356922 0.000000
vt 0.356922 0.240564
vt 0.167090 0.240564
vt 0.350299 0.240564
vt 0.167096 0.250000
vt 0.349476 0.250000
vt 0.393150 0.253607
vt 0.238749 0.283047
vt 0.290898 0.301234
vt 0.426188 0.254299
vt 0.506867 0.777533
vt 0.506867 0.593146
vt 0.506867 0.425625
vt 0.506867 0.981922
vt 0.152533 0.122334
vt 0.356922 0.122334
vn 1.000000 0.000000 0.000000
vn 1.000000 0.000000 0.000000
vn 1.000000 0.000000 0.000000
vn 1.000000 0.000000 0.000000
vn 0.000000 1.000000 0.000000
vn 0.000000 1.000000 0.000000
vn 0.000000 1.000000 0.000000
vn 0.000000 1.000000 0.000000
vn 1.000000 0.000000 0.000000
vn 1.000000 0.000000 0.000000
vn -0.000000 -1.000000 0.000000
vn -0.000000 -1.000000 0.000000
vn -0.000000 -1.000000 0.000000
vn -0.000000 -1.000000 0.000000
vn -1.000000 0.000000 -0.000001
vn -1.000000 0.000000 -0.000001
vn -1.000000 0.000000 -0.000001
vn -1.000000 0.000000 -0.000001
vn -0.000000 -1.000000 0.000000
vn -0.000000 -1.000000 0.000000
vn -0.000000 -1.000000 0.000000
vn 0.000000 -1.000000 0.000000
vn -1.000000 0.000000 -0.000001
vn -1.000000 0.000000 -0.000000
vn -1.000000 0.000000 -0.000000
vn -1.000000 0.000000 0.000000
vn 0.000000 1.000000 -0.000000
vn 0.000000 1.000000 -0.000000
vn 0.000000 1.000000 -0.000000
vn 0.000000 1.000000 0.000000
vn 0.000000 1.000000 0.000000
vn 0.000000 1.000000 0.000000
vn 1.000000 0.000000 0.000000
vn 1.000000 0.000000 0.000000
vn 1.000000 0.000000 0.000000
vn 1.000000 0.000000 0.000000
vn 0.000000 -1.000000 0.000000
vn 0.000000 -1.000000 0.000000
vn -1.000000 0.000000 -0.000001
vn -1.000000 0.000000 -0.000001
s 1
g polySurface15 polySurface13
usemtl initialShadingGroup
f 1/1/1 2/2/2 4/4/3
f 4/4/3 2/2/2 3/3/4
s 2
f 5/5/5 3/6/6 6/8/7
f 6/8/7 3/6/6 2/7/8
s 1
f 7/9/9 1/1/1 8/10/10
f 8/10/10 1/1/1 4/4/3
s 3
f 9/11/11 10/12/12 12/14/13
f 12/14/13 10/12/12 11/13/14
s 4
f 13/15/15 23/31/16 14/18/17
f 14/18/17 23/31/16 24/32/18
s 5
f 15/19/19 13/15/20 16/20/21
f 16/20/21 13/15/20 14/18/22
s 6
f 17/21/23 15/19/24 18/22/25
f 18/22/25 15/19/24 16/20/26
s 7
f 18/22/27 19/23/28 17/21/29
f 17/21/29 19/23/28 20/24/30
f 8/25/31 20/24/30 7/26/32
f 7/26/32 20/24/30 19/23/28
s 8
f 21/27/33 5/28/34 22/30/35
f 22/30/35 5/28/34 6/29/36
s 3
f 11/13/14 10/12/12 22/30/37
f 22/30/37 10/12/12 21/27/38
s 4
f 23/31/16 9/16/39 24/32/18
f 24/32/18 9/16/39 12/17/40
