# This file uses centimeters as units for non-parametric coordinates.

v -0.010921 0.285832 0.450001
v -0.010921 0.285832 -0.449999
v 0.589079 0.285832 -0.449999
v 0.589079 0.285832 0.450001
v -0.010921 0.612750 0.450001
v -0.010921 0.612750 -0.449999
v -0.313225 -0.612750 -0.449999
v -0.313225 -0.612750 0.450001
v -0.313225 0.537899 -0.449999
v -0.313225 0.537899 0.450001
v -0.589079 0.537899 -0.449999
v -0.589079 0.537899 0.450001
v -0.589079 0.612750 -0.449999
v -0.589079 0.612750 0.450001
v 0.589079 -0.612750 -0.449999
v 0.589079 -0.612750 0.450001
v -0.589079 0.612750 0.430193
v -0.010921 0.612750 0.430193
v -0.010921 0.285832 0.430193
v 0.589079 0.285832 0.430193
v 0.589079 -0.612750 0.430193
v -0.313225 -0.612750 0.430193
v -0.313225 0.537899 0.430193
v -0.589079 0.537899 0.430193
v -0.589079 0.537899 -0.436714
v -0.313225 0.537899 -0.436714
v -0.313225 -0.612750 -0.436714
v 0.589079 -0.612750 -0.436714
v 0.589079 0.285832 -0.436714
v -0.010921 0.285832 -0.436714
v -0.010921 0.612750 -0.436714
v -0.589079 0.612750 -0.436714
v -0.589079 0.604296 -0.450001
v -0.589079 0.604296 -0.436714
v -0.589079 0.604296 0.430193
v -0.589079 0.604296 0.450001
v -0.589079 0.548450 -0.449999
v -0.589079 0.548450 -0.436714
v -0.589079 0.548450 0.430193
v -0.589079 0.548450 0.450001
v -0.579952 0.612750 -0.449999
v -0.579952 0.612750 -0.436714
v -0.579954 0.612750 0.430193
v -0.579954 0.612750 0.450001
v -0.580185 0.537899 -0.449999
v -0.580185 0.537899 -0.436714
v -0.580185 0.537899 0.430193
v -0.580185 0.537899 0.450001
v -0.327347 0.537899 -0.449999
v -0.327347 0.537899 -0.436714
v -0.327347 0.537899 0.430193
v -0.327347 0.537899 0.450001
v -0.313225 0.525736 -0.449999
v -0.313225 0.525736 -0.436714
v -0.313225 0.525736 0.430193
v -0.313225 0.525736 0.450001
v -0.010921 0.592897 0.450001
v -0.010921 0.592897 0.430193
v -0.010921 0.592897 -0.436714
v -0.010921 0.592897 -0.449999
v -0.031811 0.612750 0.450001
v -0.031811 0.612750 0.430193
v -0.031811 0.612750 -0.436714
v -0.031811 0.612750 -0.449999
v -0.010921 0.301435 0.450001
v -0.010921 0.301435 0.430193
v -0.010921 0.301435 -0.436714
v -0.010921 0.301435 -0.449999
v 0.014397 0.285832 0.450001
v 0.014397 0.285832 0.430193
v 0.014395 0.285832 -0.436714
v 0.014397 0.285832 -0.449999
v 0.574091 0.285832 0.450001
v 0.574091 0.285832 0.430193
v 0.574091 0.285832 -0.436714
v 0.574091 0.285832 -0.450001
v 0.589079 0.276443 0.450001
v 0.589079 0.276443 0.430193
v 0.589079 0.276443 -0.436714
v 0.589079 0.276443 -0.449999
v 0.589079 -0.599682 0.450001
v 0.589079 -0.599682 0.430193
v 0.589079 -0.599682 -0.436716
v 0.589079 -0.599682 -0.449999
v -0.313225 -0.602167 0.450001
v -0.313225 -0.602167 0.430193
v -0.313225 -0.602167 -0.436714
v -0.313225 -0.602167 -0.449999
v -0.296246 -0.612750 -0.449999
v -0.296246 -0.612750 -0.436714
v -0.296246 -0.612750 0.430193
v -0.296246 -0.612750 0.450001
v 0.565620 -0.612750 -0.449999
v 0.565620 -0.612750 -0.436714
v 0.565620 -0.612750 0.430193
v 0.565620 -0.612750 0.450001
vt 0.627982 0.602994
vt 0.621325 0.602994
vt 0.621325 0.312323
vt 0.627982 0.312323
vt 0.627982 0.609635
vt 0.621325 0.609635
vt 0.523599 0.602994
vt 0.523599 0.312323
vt 0.621325 0.307868
vt 0.627982 0.307868
vt 0.523599 0.609635
vt 0.518367 0.602994
vt 0.518367 0.312323
vt 0.523599 0.307868
vt 0.518367 0.609635
vt 0.518367 0.307868
vt 0.641599 0.604409
vt 0.633110 0.604409
vt 0.633110 0.313738
vt 0.641599 0.313738
vt 0.641599 0.608863
vt 0.633110 0.608863
vt 0.633110 0.307096
vt 0.641599 0.307096
vt 0.829263 0.604409
vt 0.829263 0.313738
vt 0.829263 0.608864
vt 0.829263 0.307096
vt 0.834288 0.604409
vt 0.834288 0.313738
vt 0.834288 0.608863
vt 0.834288 0.307096
vt 0.604879 0.298838
vt 0.604879 0.304531
vt 0.314208 0.304531
vt 0.314208 0.298838
vt 0.611520 0.298838
vt 0.611520 0.304531
vt 0.309753 0.304531
vt 0.309753 0.298838
vt 0.604879 0.009858
vt 0.314208 0.009858
vt 0.611520 0.009858
vt 0.309753 0.009858
vt 0.604879 0.001992
vt 0.314208 0.001992
vt 0.611520 0.001992
vt 0.309753 0.001992
vt 0.296791 0.383722
vt 0.296791 0.387801
vt 0.006120 0.387801
vt 0.006120 0.383722
vt 0.303432 0.383722
vt 0.303432 0.387801
vt 0.001665 0.387801
vt 0.001665 0.383722
vt 0.006120 0.005540
vt 0.296791 0.005540
vt 0.303432 0.005540
vt 0.001665 0.005540
vt 0.296791 0.001992
vt 0.006120 0.001992
vt 0.303432 0.001992
vt 0.001665 0.001992
vt 0.420745 0.312323
vt 0.423728 0.312323
vt 0.423728 0.602994
vt 0.420745 0.602994
vt 0.420745 0.307868
vt 0.423728 0.307868
vt 0.508503 0.312323
vt 0.508503 0.602994
vt 0.423728 0.609635
vt 0.420745 0.609635
vt 0.508503 0.307868
vt 0.513238 0.312323
vt 0.513238 0.602994
vt 0.508503 0.609635
vt 0.513238 0.307868
vt 0.513238 0.609635
vt 0.642776 0.299305
vt 0.639941 0.299305
vt 0.639941 0.008634
vt 0.642776 0.008634
vt 0.642776 0.303759
vt 0.639941 0.303760
vt 0.621216 0.299305
vt 0.621216 0.008634
vt 0.639941 0.001992
vt 0.642776 0.001992
vt 0.621216 0.303759
vt 0.617679 0.299305
vt 0.617679 0.008634
vt 0.621216 0.001992
vt 0.617679 0.303759
vt 0.617679 0.001992
vt 0.408612 0.688450
vt 0.224822 0.688450
vt 0.224822 0.397779
vt 0.408612 0.397779
vt 0.408612 0.692904
vt 0.224822 0.692904
vt 0.221762 0.688450
vt 0.221762 0.397779
vt 0.224822 0.391137
vt 0.408612 0.391137
vt 0.415617 0.688450
vt 0.415617 0.397779
vt 0.221762 0.692904
vt 0.415617 0.692904
vt 0.221762 0.391137
vt 0.415617 0.391137
vt 0.299809 0.700695
vt 0.302957 0.700695
vt 0.302957 0.991366
vt 0.299809 0.991366
vt 0.299809 0.696241
vt 0.302957 0.696241
vt 0.302957 0.998008
vt 0.299809 0.998008
vt 0.006047 0.700695
vt 0.006047 0.991366
vt 0.006047 0.696241
vt 0.006047 0.998008
vt 0.001665 0.700695
vt 0.001665 0.991366
vt 0.001665 0.696241
vt 0.001665 0.998008
vn 1.000000 0.000000 0.000000
vn 1.000000 0.000000 0.000000
vn 1.000000 0.000000 0.000000
vn 1.000000 0.000000 0.000000
vn 0.000000 1.000000 0.000000
vn 0.000000 1.000000 0.000000
vn 0.000000 1.000000 0.000000
vn 0.000000 1.000000 0.000000
vn 0.000000 -1.000000 0.000000
vn 0.000000 -1.000000 0.000000
vn 0.000000 -1.000000 0.000000
vn 0.000000 -1.000000 0.000000
vn -1.000000 0.000000 0.000000
vn -1.000000 0.000000 0.000000
vn -1.000000 0.000000 0.000000
vn -1.000000 0.000000 0.000000
vn 0.000000 -1.000000 0.000000
vn 0.000000 -1.000000 0.000000
vn 0.000000 -1.000000 0.000000
vn 0.000000 -1.000000 0.000000
vn -1.000000 0.000000 0.000000
vn -1.000000 0.000000 0.000000
vn -1.000000 0.000000 0.000000
vn -1.000000 0.000000 0.000000
vn 0.000000 1.000000 0.000000
vn 0.000000 1.000000 0.000000
vn 0.000000 1.000000 0.000000
vn 0.000000 1.000000 0.000000
vn 1.000000 0.000000 0.000000
vn 1.000000 0.000000 0.000000
vn 1.000000 0.000000 0.000000
vn 1.000000 0.000000 0.000000
vn 0.000000 1.000000 0.000000
vn 0.000000 1.000000 0.000000
vn 0.000000 1.000000 0.000000
vn 0.000000 1.000000 0.000000
vn 1.000000 0.000000 0.000000
vn 1.000000 0.000000 0.000000
vn 1.000000 0.000000 0.000000
vn 1.000000 0.000000 0.000000
vn 0.000000 1.000000 0.000000
vn 0.000000 1.000000 0.000000
vn 0.000000 1.000000 0.000000
vn 0.000000 1.000000 0.000000
vn 1.000000 0.000000 0.000000
vn 1.000000 0.000000 0.000000
vn 1.000000 0.000000 0.000000
vn 1.000000 0.000000 0.000000
vn 0.000000 -1.000000 0.000000
vn 0.000000 -1.000000 0.000000
vn 0.000000 -1.000000 0.000000
vn 0.000000 -1.000000 0.000000
vn -1.000000 0.000000 0.000000
vn -1.000000 0.000000 0.000000
vn -1.000000 0.000000 0.000000
vn -1.000000 0.000000 0.000000
vn 0.000000 -1.000000 0.000000
vn 0.000000 -1.000000 0.000000
vn 0.000000 -1.000000 0.000000
vn 0.000000 -1.000000 0.000000
vn -1.000000 0.000000 0.000000
vn -1.000000 0.000000 0.000000
vn -1.000000 0.000000 0.000000
vn -1.000000 0.000000 0.000000
vn 0.000000 -1.000000 0.000000
vn 0.000000 -1.000000 0.000000
vn 0.000000 -1.000000 0.000000
vn 0.000000 -1.000000 0.000000
vn -1.000000 0.000000 0.000000
vn -1.000000 0.000000 0.000000
vn -1.000000 0.000000 0.000000
vn -1.000000 0.000000 0.000000
vn 0.000000 -1.000000 0.000000
vn 0.000000 -1.000000 0.000000
vn 0.000000 -1.000000 0.000000
vn 0.000000 -1.000000 0.000000
vn 1.000000 0.000000 0.000000
vn 1.000000 0.000000 0.000000
vn 1.000000 0.000000 0.000000
vn 1.000000 0.000000 0.000000
vn 0.000000 1.000000 0.000000
vn 0.000000 1.000000 0.000000
vn 0.000000 1.000000 0.000000
vn 0.000000 1.000000 0.000000
vn 1.000000 0.000000 0.000000
vn 1.000000 0.000000 0.000000
vn 1.000000 0.000000 0.000000
vn 1.000000 0.000000 0.000000
vn 0.000000 1.000000 0.000000
vn 0.000000 1.000000 0.000000
vn 0.000000 1.000000 0.000000
vn 0.000000 1.000000 0.000000
vn -1.000000 0.000000 0.000000
vn -1.000000 0.000000 0.000000
vn -1.000000 0.000000 0.000000
vn -1.000000 0.000000 0.000000
vn -1.000000 0.000000 0.000000
vn -1.000000 0.000000 0.000000
vn -1.000000 0.000000 0.000000
vn -1.000000 0.000000 0.000000
vn -1.000000 0.000000 0.000000
vn -1.000000 0.000000 0.000000
vn -1.000000 0.000000 0.000000
vn -1.000000 0.000000 0.000000
vn -1.000000 0.000000 0.000000
vn -1.000000 0.000000 0.000000
vn -1.000000 0.000000 0.000000
vn -1.000000 0.000000 0.000000
vn -1.000000 0.000000 0.000000
vn -1.000000 0.000000 0.000000
vn -1.000000 0.000000 0.000000
vn -1.000000 0.000000 0.000000
vn -1.000000 0.000000 0.000000
vn -1.000000 0.000000 0.000000
vn -1.000000 0.000000 0.000000
vn -1.000000 0.000000 0.000000
vn -1.000000 0.000000 0.000000
vn -1.000000 0.000000 0.000000
vn -1.000000 0.000000 0.000000
vn -1.000000 0.000000 0.000000
vn 0.000000 1.000000 0.000000
vn 0.000000 1.000000 0.000000
vn 0.000000 1.000000 0.000000
vn 0.000000 1.000000 0.000000
vn 0.000000 1.000000 0.000000
vn 0.000000 1.000000 0.000000
vn 0.000000 1.000000 0.000000
vn 0.000000 1.000000 0.000000
vn 0.000000 1.000000 0.000000
vn 0.000000 1.000000 0.000000
vn 0.000000 1.000000 0.000000
vn 0.000000 1.000000 0.000000
vn 0.000000 -1.000000 0.000000
vn 0.000000 -1.000000 0.000000
vn 0.000000 -1.000000 0.000000
vn 0.000000 -1.000000 0.000000
vn 0.000000 -1.000000 0.000000
vn 0.000000 -1.000000 0.000000
vn 0.000000 -1.000000 0.000000
vn 0.000000 -1.000000 0.000000
vn 0.000000 -1.000000 0.000000
vn 0.000000 -1.000000 0.000000
vn 0.000000 -1.000000 0.000000
vn 0.000000 -1.000000 0.000000
vn 0.000000 -1.000000 0.000000
vn 0.000000 -1.000000 0.000000
vn 0.000000 -1.000000 0.000000
vn 0.000000 -1.000000 0.000000
vn 0.000000 -1.000000 0.000000
vn 0.000000 -1.000000 0.000000
vn 0.000000 -1.000000 0.000000
vn 0.000000 -1.000000 0.000000
vn 0.000000 -1.000000 0.000000
vn 0.000000 -1.000000 0.000000
vn 0.000000 -1.000000 0.000000
vn 0.000000 -1.000000 0.000000
vn -1.000000 0.000000 0.000000
vn -1.000000 0.000000 0.000000
vn -1.000000 0.000000 0.000000
vn -1.000000 0.000000 0.000000
vn -1.000000 0.000000 0.000000
vn -1.000000 0.000000 0.000000
vn -1.000000 0.000000 0.000000
vn -1.000000 0.000000 0.000000
vn -1.000000 0.000000 0.000000
vn -1.000000 0.000000 0.000000
vn -1.000000 0.000000 0.000000
vn -1.000000 0.000000 0.000000
vn 1.000000 0.000000 0.000000
vn 1.000000 0.000000 0.000000
vn 1.000000 0.000000 0.000000
vn 1.000000 0.000000 0.000000
vn 1.000000 0.000000 0.000000
vn 1.000000 0.000000 0.000000
vn 1.000000 0.000000 0.000000
vn 1.000000 0.000000 0.000000
vn 1.000000 0.000000 0.000000
vn 1.000000 0.000000 0.000000
vn 1.000000 0.000000 0.000000
vn 1.000000 0.000000 0.000000
vn 0.000000 1.000000 0.000000
vn 0.000000 1.000000 0.000000
vn 0.000000 1.000000 0.000000
vn 0.000000 1.000000 0.000000
vn 0.000000 1.000000 0.000000
vn 0.000000 1.000000 0.000000
vn 0.000000 1.000000 0.000000
vn 0.000000 1.000000 0.000000
vn 0.000000 1.000000 0.000000
vn 0.000000 1.000000 0.000000
vn 0.000000 1.000000 0.000000
vn 0.000000 1.000000 0.000000
vn 1.000000 0.000000 0.000000
vn 1.000000 0.000000 0.000000
vn 1.000000 0.000000 0.000000
vn 1.000000 0.000000 0.000000
vn 1.000000 0.000000 0.000000
vn 1.000000 0.000000 0.000000
vn 1.000000 0.000000 0.000000
vn 1.000000 0.000000 0.000000
vn 1.000000 0.000000 0.000000
vn 1.000000 0.000000 0.000000
vn 1.000000 0.000000 0.000000
vn 1.000000 0.000000 0.000000
vn 0.000000 1.000000 0.000000
vn 0.000000 1.000000 0.000000
vn 0.000000 1.000000 0.000000
vn 0.000000 1.000000 0.000000
vn 0.000000 1.000000 0.000000
vn 0.000000 1.000000 0.000000
vn 0.000000 1.000000 0.000000
vn 0.000000 1.000000 0.000000
vn 0.000000 1.000000 0.000000
vn 0.000000 1.000000 0.000000
vn 0.000000 1.000000 0.000000
vn 0.000000 1.000000 0.000000
vn 0.000000 1.000000 0.000000
vn 0.000000 1.000000 0.000000
vn 0.000000 1.000000 0.000000
vn 0.000000 1.000000 0.000000
vn 0.000000 1.000000 0.000000
vn 0.000000 1.000000 0.000000
vn 0.000000 1.000000 0.000000
vn 0.000000 1.000000 0.000000
vn 0.000000 1.000000 0.000000
vn 0.000000 1.000000 0.000000
vn 0.000000 1.000000 0.000000
vn 0.000000 1.000000 0.000000
vn 1.000000 0.000000 0.000000
vn 1.000000 0.000000 0.000000
vn 1.000000 0.000000 0.000000
vn 1.000000 0.000000 0.000000
vn 1.000000 0.000000 0.000000
vn 1.000000 0.000000 0.000000
vn 1.000000 0.000000 0.000000
vn 1.000000 0.000000 0.000000
vn 1.000000 0.000000 0.000000
vn 1.000000 0.000000 0.000000
vn 1.000000 0.000000 0.000000
vn 1.000000 0.000000 0.000000
vn 1.000000 0.000000 0.000000
vn 1.000000 0.000000 0.000000
vn 1.000000 0.000000 0.000000
vn 1.000000 0.000000 0.000000
vn 1.000000 0.000000 0.000000
vn 1.000000 0.000000 0.000000
vn 1.000000 0.000000 0.000000
vn 1.000000 0.000000 0.000000
vn 1.000000 0.000000 0.000000
vn 1.000000 0.000000 0.000000
vn 1.000000 0.000000 0.000000
vn 1.000000 0.000000 0.000000
vn -1.000000 0.000000 0.000000
vn -1.000000 0.000000 0.000000
vn -1.000000 0.000000 0.000000
vn -1.000000 0.000000 0.000000
vn -1.000000 0.000000 0.000000
vn -1.000000 0.000000 0.000000
vn -1.000000 0.000000 0.000000
vn -1.000000 0.000000 0.000000
vn -1.000000 0.000000 0.000000
vn -1.000000 0.000000 0.000000
vn -1.000000 0.000000 0.000000
vn -1.000000 0.000000 0.000000
vn 0.000000 -1.000000 0.000000
vn 0.000000 -1.000000 0.000000
vn 0.000000 -1.000000 0.000000
vn 0.000000 -1.000000 0.000000
vn 0.000000 -1.000000 0.000000
vn 0.000000 -1.000000 0.000000
vn 0.000000 -1.000000 0.000000
vn 0.000000 -1.000000 0.000000
vn 0.000000 -1.000000 0.000000
vn 0.000000 -1.000000 0.000000
vn 0.000000 -1.000000 0.000000
vn 0.000000 -1.000000 0.000000
vn 0.000000 -1.000000 0.000000
vn 0.000000 -1.000000 0.000000
vn 0.000000 -1.000000 0.000000
vn 0.000000 -1.000000 0.000000
vn 0.000000 -1.000000 0.000000
vn 0.000000 -1.000000 0.000000
vn 0.000000 -1.000000 0.000000
vn 0.000000 -1.000000 0.000000
vn 0.000000 -1.000000 0.000000
vn 0.000000 -1.000000 0.000000
vn 0.000000 -1.000000 0.000000
vn 0.000000 -1.000000 0.000000
f 18/1/1 58/2/2 59/3/3 31/4/4
f 71/17/5 30/18/6 19/19/7 70/20/8
f 91/33/9 22/34/10 27/35/11 90/36/12
f 55/49/13 23/50/14 26/51/15 54/52/16
f 25/65/17 46/66/18 47/67/19 24/68/20
f 32/81/21 34/82/22 35/83/23 17/84/24
f 63/97/25 42/98/26 43/99/27 62/100/28
f 79/113/29 29/114/30 20/115/31 78/116/32
f 62/100/33 43/99/34 44/105/35 61/106/36
f 5/5/37 57/6/38 58/2/39 18/1/40
f 70/20/41 19/19/42 1/23/43 69/24/44
f 78/116/45 20/115/46 4/119/47 77/120/48
f 92/37/49 8/38/50 22/34/51 91/33/52
f 56/53/53 10/54/54 23/50/55 55/49/56
f 24/68/57 47/67/58 48/73/59 12/74/60
f 17/84/61 35/83/62 36/89/63 14/90/64
f 11/69/65 45/70/66 46/66/67 25/65/68
f 54/52/69 26/51/70 9/55/71 53/56/72
f 90/36/73 27/35/74 7/39/75 89/40/76
f 80/117/77 3/118/78 29/114/79 79/113/80
f 72/21/81 2/22/82 30/18/83 71/17/84
f 31/4/85 59/3/86 60/9/87 6/10/88
f 64/101/89 41/102/90 42/98/91 63/97/92
f 13/85/93 33/86/94 34/82/95 32/81/96
f 33/86/97 37/91/98 38/87/99 34/82/100
f 35/83/101 34/82/102 38/87/103 39/88/104
f 36/89/105 35/83/106 39/88/107 40/94/108
f 37/91/109 11/95/110 25/92/111 38/87/112
f 39/88/113 38/87/114 25/92/115 24/93/116
f 40/94/117 39/88/118 24/93/119 12/96/120
f 41/102/121 13/109/122 32/103/123 42/98/124
f 43/99/125 42/98/126 32/103/127 17/104/128
f 44/105/129 43/99/130 17/104/131 14/111/132
f 45/70/133 49/75/134 50/71/135 46/66/136
f 47/67/137 46/66/138 50/71/139 51/72/140
f 48/73/141 47/67/142 51/72/143 52/78/144
f 49/75/145 9/79/146 26/76/147 50/71/148
f 51/72/149 50/71/150 26/76/151 23/77/152
f 52/78/153 51/72/154 23/77/155 10/80/156
f 27/62/157 87/57/158 88/60/159 7/64/160
f 22/61/161 86/58/162 87/57/163 27/62/164
f 8/63/165 85/59/166 86/58/167 22/61/168
f 57/6/169 65/11/170 66/7/171 58/2/172
f 59/3/173 58/2/174 66/7/175 67/8/176
f 60/9/177 59/3/178 67/8/179 68/14/180
f 18/108/181 62/100/182 61/106/183 5/112/184
f 31/107/185 63/97/186 62/100/187 18/108/188
f 6/110/189 64/101/190 63/97/191 31/107/192
f 65/11/193 1/15/194 19/12/195 66/7/196
f 67/8/197 66/7/198 19/12/199 30/13/200
f 68/14/201 67/8/202 30/13/203 2/16/204
f 74/26/205 70/20/206 69/24/207 73/28/208
f 75/25/209 71/17/210 70/20/211 74/26/212
f 76/27/213 72/21/214 71/17/215 75/25/216
f 20/30/217 74/26/218 73/28/219 4/32/220
f 29/29/221 75/25/222 74/26/223 20/30/224
f 3/31/225 76/27/226 75/25/227 29/29/228
f 82/122/229 78/116/230 77/120/231 81/124/232
f 83/121/233 79/113/234 78/116/235 82/122/236
f 84/123/237 80/117/238 79/113/239 83/121/240
f 21/126/241 82/122/242 81/124/243 16/128/244
f 28/125/245 83/121/246 82/122/247 21/126/248
f 15/127/249 84/123/250 83/121/251 28/125/252
f 85/59/253 56/53/254 55/49/255 86/58/256
f 87/57/257 86/58/258 55/49/259 54/52/260
f 88/60/261 87/57/262 54/52/263 53/56/264
f 94/42/265 90/36/266 89/40/267 93/44/268
f 95/41/269 91/33/270 90/36/271 94/42/272
f 96/43/273 92/37/274 91/33/275 95/41/276
f 28/46/277 94/42/278 93/44/279 15/48/280
f 21/45/281 95/41/282 94/42/283 28/46/284
f 16/47/285 96/43/286 95/41/287 21/45/288
