# This file uses centimeters as units for non-parametric coordinates.

mtllib chair_MESH.mtl
g default
v -11.891666 1.363321 -12.759947
v -11.891666 2.911942 -12.562087
v -11.891666 2.911942 -12.462087
v -11.891666 1.463321 -12.859947
v -12.080684 1.559657 -13.037848
v -12.080684 1.559657 -13.908731
v -11.891666 1.363321 -14.086630
v -11.891666 1.463321 -14.086630
v -11.891667 0.004988 -14.106704
v -11.791665 0.004988 -14.106704
v -11.891667 0.004988 -14.206703
v -11.791665 0.004988 -14.206703
v -11.791665 1.463321 -13.777142
v -11.891667 1.463321 -13.777142
v -11.891667 1.333961 -13.814604
v -11.791665 1.362640 -13.755524
v -11.791665 1.332430 -13.949728
v -11.891667 1.333461 -13.949107
v -11.891667 1.271565 -13.872094
v -11.791665 1.271565 -13.872094
v -11.791665 1.411507 -13.879461
v -11.891667 1.411507 -13.879462
v -11.791665 1.333961 -13.814604
v -11.791665 1.216732 -13.990042
v -11.891667 1.216732 -13.990042
v -11.891667 1.177168 -13.898821
v -11.791665 1.177168 -13.898821
v -11.891667 0.004988 -12.620636
v -11.791665 0.004988 -12.620636
v -11.791665 0.004988 -12.720635
v -11.891667 0.004988 -12.720635
v -11.791665 1.411507 -12.947878
v -11.891667 1.411507 -12.947877
v -11.891667 1.463321 -13.050198
v -11.791665 1.463321 -13.050198
v -11.891667 1.333961 -13.012735
v -11.791665 1.333961 -13.012735
v -11.791665 1.362640 -13.071815
v -11.791665 1.216732 -12.837297
v -11.891667 1.216732 -12.837297
v -11.891667 1.333461 -12.878232
v -11.791665 1.332430 -12.877611
v -11.891667 1.177168 -12.928518
v -11.891667 1.271565 -12.955245
v -11.791665 1.177168 -12.928518
v -11.791665 1.271565 -12.955245
v -11.791665 1.095140 -13.913368
v -11.891667 1.095140 -13.913368
v -11.891667 1.131935 -14.005204
v -11.791665 1.131935 -14.005204
v -11.891667 1.094980 -12.912440
v -11.791665 1.094980 -12.912440
v -11.791665 1.131733 -12.820632
v -11.891667 1.131733 -12.820632
v -13.308332 1.363321 -12.759947
v -13.308332 1.463321 -12.859947
v -13.308332 2.911942 -12.562087
v -13.308332 2.911942 -12.462087
v -13.119315 1.559657 -13.037848
v -13.119315 1.559657 -13.908731
v -13.308332 1.463321 -14.086630
v -13.308332 1.363321 -14.086630
v -13.308331 0.004988 -14.206703
v -13.408334 0.004988 -14.206703
v -13.408334 0.004988 -14.106704
v -13.308331 0.004988 -14.106704
v -13.408334 1.411507 -13.879461
v -13.308331 1.411507 -13.879462
v -13.308331 1.463321 -13.777142
v -13.408334 1.463321 -13.777142
v -13.408334 1.333961 -13.814604
v -13.408334 1.362640 -13.755524
v -13.308331 1.333961 -13.814604
v -13.408334 1.216732 -13.990042
v -13.308331 1.216732 -13.990042
v -13.308331 1.333461 -13.949107
v -13.408334 1.332430 -13.949728
v -13.308331 1.177168 -13.898821
v -13.308331 1.271565 -13.872094
v -13.408334 1.177168 -13.898821
v -13.408334 1.271565 -13.872094
v -13.308331 1.131935 -14.005204
v -13.408334 1.131935 -14.005204
v -13.308331 1.095140 -13.913368
v -13.408334 1.095140 -13.913368
v -13.308331 0.004988 -12.620636
v -13.308331 0.004988 -12.720635
v -13.408334 0.004988 -12.720635
v -13.408334 0.004988 -12.620636
v -13.408334 1.411507 -12.947878
v -13.408334 1.463321 -13.050198
v -13.308331 1.463321 -13.050198
v -13.308331 1.411507 -12.947877
v -13.408334 1.333961 -13.012735
v -13.308331 1.333961 -13.012735
v -13.408334 1.362640 -13.071815
v -13.408334 1.216732 -12.837297
v -13.408334 1.332430 -12.877611
v -13.308331 1.333461 -12.878232
v -13.308331 1.216732 -12.837297
v -13.308331 1.271565 -12.955245
v -13.308331 1.177168 -12.928518
v -13.408334 1.177168 -12.928518
v -13.408334 1.271565 -12.955245
v -13.308331 1.131733 -12.820632
v -13.408334 1.131733 -12.820632
v -13.308331 1.094980 -12.912440
v -13.408334 1.094980 -12.912440
v -11.891667 1.362640 -13.755524
v -11.891666 1.362640 -13.071815
v -13.308331 1.362640 -13.071815
v -13.308335 1.362640 -13.755524
vt 0.250000 0.000000
vt 0.375000 0.875000
vt 0.875000 0.000000
vt 0.625000 0.000000
vt 0.402547 0.708680
vt 0.625000 0.125000
vt 0.625000 0.250000
vt 0.625000 0.500000
vt 0.625000 0.625000
vt 0.625000 0.750000
vt 0.625000 1.000000
vt 0.875000 0.125000
vt 0.875000 0.250000
vt 0.625000 0.000000
vt 0.875000 0.000000
vt 0.375000 0.750000
vt 0.625000 0.750000
vt 0.625000 1.000000
vt 0.375000 1.000000
vt 0.625000 0.684614
vt 0.375000 0.684614
vt 0.375000 0.681430
vt 0.625000 0.681430
vt 0.625000 0.065386
vt 0.625000 0.068570
vt 0.375000 0.066978
vt 0.875000 0.065386
vt 0.875000 0.068570
vt 0.625000 0.691573
vt 0.375000 0.691573
vt 0.375000 0.688135
vt 0.625000 0.688135
vt 0.125000 0.058427
vt 0.375000 0.058427
vt 0.375000 0.061865
vt 0.125000 0.061865
vt 0.625000 0.058427
vt 0.625000 0.061865
vt 0.875000 0.058427
vt 0.875000 0.061865
vt 0.125000 0.065386
vt 0.125000 0.000000
vt 0.375000 0.000000
vt 0.625000 0.000000
vt 0.875000 0.000000
vt 0.375000 0.750000
vt 0.375000 1.000000
vt 0.625000 1.000000
vt 0.625000 0.750000
vt 0.625000 0.684614
vt 0.625000 0.681430
vt 0.375000 0.681430
vt 0.375000 0.684614
vt 0.625000 0.065386
vt 0.375000 0.066978
vt 0.625000 0.068570
vt 0.875000 0.068570
vt 0.875000 0.065386
vt 0.625000 0.691573
vt 0.625000 0.688135
vt 0.375000 0.688135
vt 0.375000 0.691573
vt 0.125000 0.058427
vt 0.125000 0.061865
vt 0.375000 0.061865
vt 0.375000 0.058427
vt 0.625000 0.058427
vt 0.625000 0.061865
vt 0.875000 0.061865
vt 0.875000 0.058427
vt 0.125000 0.065386
vt 0.375000 0.000000
vt 0.125000 0.000000
vt 0.625000 0.000000
vt 0.875000 0.000000
vt 0.625000 0.054338
vt 0.375000 0.054338
vt 0.125000 0.054338
vt 0.375000 0.695662
vt 0.625000 0.695662
vt 0.875000 0.054338
vt 0.625000 0.058427
vt 0.375000 0.058427
vt 0.375000 0.054338
vt 0.625000 0.054338
vt 0.625000 0.054511
vt 0.875000 0.054511
vt 0.625000 0.695489
vt 0.375000 0.695489
vt 0.125000 0.054511
vt 0.375000 0.054511
vt 0.375000 0.875000
vt 0.402547 0.708680
vt 0.875000 0.000000
vt 0.625000 0.000000
vt 0.250000 0.000000
vt 0.625000 0.125000
vt 0.625000 0.250000
vt 0.625000 0.500000
vt 0.625000 0.625000
vt 0.625000 0.750000
vt 0.625000 1.000000
vt 0.875000 0.125000
vt 0.875000 0.250000
vt 0.625000 0.000000
vt 0.875000 0.000000
vt 0.375000 0.750000
vt 0.625000 0.750000
vt 0.625000 1.000000
vt 0.375000 1.000000
vt 0.625000 0.684614
vt 0.375000 0.684614
vt 0.375000 0.681430
vt 0.625000 0.681430
vt 0.625000 0.065386
vt 0.625000 0.068570
vt 0.375000 0.066978
vt 0.875000 0.065386
vt 0.875000 0.068570
vt 0.625000 0.691573
vt 0.375000 0.691573
vt 0.375000 0.688135
vt 0.625000 0.688135
vt 0.125000 0.058427
vt 0.375000 0.058427
vt 0.375000 0.061865
vt 0.125000 0.061865
vt 0.625000 0.058427
vt 0.625000 0.061865
vt 0.875000 0.058427
vt 0.875000 0.061865
vt 0.125000 0.065386
vt 0.375000 0.695662
vt 0.625000 0.695662
vt 0.375000 0.054338
vt 0.125000 0.054338
vt 0.125000 0.000000
vt 0.375000 0.000000
vt 0.625000 0.054338
vt 0.625000 0.000000
vt 0.875000 0.000000
vt 0.875000 0.054338
vt 0.375000 0.750000
vt 0.375000 1.000000
vt 0.625000 1.000000
vt 0.625000 0.750000
vt 0.625000 0.684614
vt 0.625000 0.681430
vt 0.375000 0.681430
vt 0.375000 0.684614
vt 0.625000 0.065386
vt 0.375000 0.066978
vt 0.625000 0.068570
vt 0.875000 0.068570
vt 0.875000 0.065386
vt 0.625000 0.691573
vt 0.625000 0.688135
vt 0.375000 0.688135
vt 0.375000 0.691573
vt 0.125000 0.058427
vt 0.125000 0.061865
vt 0.375000 0.061865
vt 0.375000 0.058427
vt 0.625000 0.058427
vt 0.625000 0.061865
vt 0.875000 0.061865
vt 0.875000 0.058427
vt 0.125000 0.065386
vt 0.375000 0.695489
vt 0.625000 0.695489
vt 0.375000 0.054511
vt 0.375000 0.000000
vt 0.125000 0.000000
vt 0.125000 0.054511
vt 0.625000 0.054511
vt 0.625000 0.000000
vt 0.875000 0.000000
vt 0.875000 0.054511
vt 0.375000 0.058427
vt 0.625000 0.058427
vt 0.375000 0.054338
vt 0.625000 0.054338
vt 0.375000 0.066978
vt 0.375000 0.066978
vt 0.375000 0.066978
vt 0.375000 0.066978
vn 1.000000 -0.000003 0.000000
vn 1.000000 -0.000000 0.000000
vn 1.000000 -0.000000 0.000000
vn 1.000000 0.000002 0.000000
vn 0.000000 0.201403 -0.979508
vn 0.000000 0.201403 -0.979508
vn 0.000000 0.201403 -0.979508
vn 0.000000 0.201403 -0.979508
vn 0.240434 0.937348 0.252132
vn 0.192109 0.960474 0.201454
vn -0.159219 0.929053 0.333930
vn -0.190287 0.976646 0.099772
vn 0.118647 0.985111 -0.124418
vn -0.119528 0.960662 -0.250683
vn 0.240436 0.937347 -0.252133
vn -0.318440 0.933123 -0.166966
vn 0.000000 -1.000000 -0.000000
vn 0.000000 -1.000000 -0.000000
vn 0.000000 -1.000000 -0.000000
vn 0.000000 -1.000000 0.000000
vn 0.000000 0.000000 -1.000000
vn 0.000000 0.000000 -1.000000
vn 0.000000 0.000000 -1.000000
vn 0.000000 0.000000 -1.000000
vn 1.000000 0.000005 0.000000
vn 1.000000 0.000003 0.000000
vn 1.000000 0.000003 0.000000
vn 1.000000 0.000000 0.000000
vn 0.000000 -1.000000 0.000000
vn 0.000000 -1.000000 0.000000
vn 0.000000 -1.000000 0.000000
vn 0.000000 -1.000000 0.000000
vn 0.000746 0.752409 -0.658696
vn -0.000002 0.829497 -0.558511
vn 0.000000 0.972660 -0.232235
vn 0.000000 0.972660 -0.232236
vn 1.000000 0.000007 0.000000
vn 1.000000 0.000001 0.000000
vn 1.000000 0.000000 0.000000
vn 1.000000 -0.000009 0.000000
vn 0.000000 0.227657 -0.973741
vn -0.000823 0.279446 -0.960161
vn -0.000086 0.448963 -0.893550
vn -0.000088 0.563146 -0.826357
vn -1.000000 0.000000 0.000000
vn -1.000000 -0.000003 0.000000
vn -1.000000 0.000002 0.000000
vn -1.000000 0.000001 0.000000
vn 0.000000 -0.272421 0.962178
vn 0.000000 -0.417612 0.908626
vn 0.000000 -0.272421 0.962178
vn 0.000000 -0.556030 0.831163
vn 1.000000 0.000003 0.000000
vn 1.000000 0.000007 0.000000
vn 1.000000 0.000003 0.000000
vn 1.000000 0.000001 0.000000
vn -1.000000 -0.000001 0.000000
vn -1.000000 0.000011 0.000000
vn 0.000000 -0.802630 0.596477
vn 0.000000 -0.802628 0.596480
vn 0.000000 0.176014 -0.984388
vn 0.000000 0.176013 -0.984388
vn 0.000000 0.176010 -0.984388
vn 0.000000 0.176012 -0.984388
vn -1.000000 -0.000001 0.000000
vn -1.000000 -0.000001 0.000000
vn -1.000000 -0.000001 0.000000
vn -1.000000 0.000000 0.000000
vn 0.000000 -0.174621 0.984636
vn 0.000000 -0.174621 0.984636
vn 0.000000 -0.174621 0.984636
vn 0.000000 -0.174621 0.984636
vn 1.000000 0.000005 0.000000
vn 1.000000 -0.000006 0.000000
vn 1.000000 -0.000001 0.000000
vn 1.000000 -0.000002 0.000000
vn 0.000000 -1.000000 0.000000
vn 0.000000 -1.000000 0.000000
vn 0.000000 -1.000000 0.000000
vn 0.000000 -1.000000 0.000000
vn 0.000753 0.752408 0.658697
vn 0.000003 0.951169 0.308669
vn 0.000003 0.829497 0.558511
vn 0.000000 0.988019 0.154336
vn 0.000000 -0.988849 -0.148925
vn 0.000000 -0.802629 -0.596478
vn 0.000000 -0.954612 -0.297851
vn 0.000000 -0.802628 -0.596480
vn 1.000000 0.000007 0.000000
vn 1.000000 0.000006 0.000000
vn 1.000000 0.000002 0.000000
vn 1.000000 -0.000004 0.000000
vn 0.000000 0.238478 0.971148
vn -0.000078 0.448962 0.893551
vn -0.000818 0.284763 0.958598
vn -0.000078 0.563144 0.826358
vn -1.000000 0.000001 0.000000
vn -1.000000 -0.000003 0.000000
vn -1.000000 0.000002 0.000000
vn -1.000000 0.000000 0.000000
vn 0.000000 -0.272421 -0.962178
vn 0.000000 -0.272421 -0.962178
vn 0.000000 -0.417612 -0.908626
vn 0.000000 -0.556030 -0.831163
vn 1.000000 -0.000002 0.000000
vn 1.000000 0.000007 0.000000
vn 1.000000 -0.000001 0.000000
vn 1.000000 0.000003 0.000000
vn -1.000000 0.000011 0.000000
vn -1.000000 -0.000001 0.000000
vn 0.000000 0.186531 0.982449
vn 0.000000 0.174767 0.984610
vn 0.000000 0.180652 0.983547
vn 0.000000 0.174767 0.984610
vn -1.000000 0.000000 0.000000
vn -1.000000 0.000000 0.000000
vn -1.000000 0.000000 0.000000
vn -1.000000 0.000000 0.000000
vn 0.000000 -0.173309 -0.984867
vn 0.000000 -0.173307 -0.984868
vn 0.000000 -0.173307 -0.984868
vn 0.000000 -0.173305 -0.984868
vn 1.000000 0.000002 0.000000
vn 1.000000 0.000001 0.000000
vn 1.000000 0.000001 0.000000
vn 1.000000 -0.000002 0.000000
vn 0.000000 -0.974580 0.224041
vn 0.000000 -0.974580 0.224042
vn 0.000000 1.000000 0.000000
vn 0.000000 1.000000 0.000000
vn 0.000000 1.000000 0.000000
vn 0.000000 1.000000 0.000000
vn -1.000000 0.000000 0.000000
vn -1.000000 0.000004 0.000000
vn -1.000000 0.000004 0.000000
vn -1.000000 0.000009 0.000000
vn 0.000000 -1.000000 -0.000160
vn 0.000000 -1.000000 -0.000160
vn 0.000000 -1.000000 -0.000160
vn 0.000000 -1.000000 -0.000160
vn 1.000000 0.000001 0.000000
vn 1.000000 0.000012 0.000000
vn 1.000000 0.000012 0.000000
vn 1.000000 0.000023 0.000000
vn -1.000000 -0.000001 0.000000
vn -1.000000 0.000001 0.000000
vn -1.000000 0.000001 0.000000
vn -1.000000 0.000003 0.000000
vn 0.000000 -0.188877 0.982001
vn 0.000000 -0.188877 0.982001
vn 0.000000 -0.188877 0.982001
vn 0.000000 -0.188877 0.982001
vn 0.000000 1.000000 0.000000
vn 0.000000 1.000000 0.000000
vn 0.000000 1.000000 0.000000
vn 0.000000 1.000000 0.000000
vn -1.000000 0.000000 0.000000
vn -1.000000 0.000000 0.000000
vn -1.000000 0.000000 0.000000
vn -1.000000 0.000000 0.000000
vn 0.000000 -1.000000 0.000000
vn 0.000000 -1.000000 0.000000
vn 0.000000 -1.000000 0.000000
vn 0.000000 -1.000000 0.000000
vn -0.000747 0.752409 -0.658696
vn -0.000001 0.972660 -0.232235
vn -0.000002 0.829498 -0.558510
vn 0.000000 0.972660 -0.232236
vn 0.000000 -0.974579 0.224045
vn 0.000000 -0.802629 0.596479
vn 0.000000 -0.974579 0.224044
vn 0.000000 -0.802631 0.596476
vn -1.000000 -0.000016 0.000000
vn -1.000000 -0.000004 0.000000
vn -1.000000 -0.000006 0.000000
vn -1.000000 0.000000 0.000000
vn 0.000000 0.227657 -0.973741
vn 0.000090 0.448961 -0.893551
vn 0.000825 0.279446 -0.960161
vn 0.000090 0.563146 -0.826357
vn 1.000000 0.000000 0.000000
vn 1.000000 0.000000 0.000000
vn 1.000000 0.000000 0.000000
vn 1.000000 -0.000002 0.000000
vn 0.000000 -0.272421 0.962178
vn 0.000000 -0.272421 0.962178
vn 0.000000 -0.417609 0.908627
vn 0.000000 -0.556030 0.831163
vn -1.000000 0.000003 0.000000
vn -1.000000 -0.000006 0.000000
vn -1.000000 -0.000004 0.000000
vn -1.000000 -0.000006 0.000000
vn 1.000000 0.000000 0.000000
vn 1.000000 0.000000 0.000000
vn 0.000000 0.176014 -0.984388
vn 0.000000 0.176008 -0.984389
vn 0.000000 0.176011 -0.984388
vn 0.000000 0.176008 -0.984389
vn 1.000000 0.000000 0.000000
vn 1.000000 0.000001 0.000000
vn 1.000000 -0.000002 0.000000
vn 1.000000 -0.000002 0.000000
vn 0.000000 -0.174621 0.984636
vn 0.000000 -0.174623 0.984635
vn 0.000000 -0.174623 0.984635
vn 0.000000 -0.174625 0.984635
vn -1.000000 -0.000002 0.000000
vn -1.000000 0.000009 0.000000
vn -1.000000 -0.000001 0.000000
vn -1.000000 0.000003 0.000000
vn 0.000000 -1.000000 0.000000
vn 0.000000 -1.000000 0.000000
vn 0.000000 -1.000000 0.000000
vn 0.000000 -1.000000 0.000000
vn -0.000752 0.752410 0.658694
vn -0.000004 0.829499 0.558509
vn -0.000004 0.951169 0.308670
vn 0.000000 0.988019 0.154336
vn -1.000000 -0.000011 0.000000
vn -1.000000 -0.000006 0.000000
vn -1.000000 -0.000005 0.000000
vn -1.000000 0.000001 0.000000
vn 0.000000 0.238477 0.971148
vn 0.000820 0.284764 0.958597
vn 0.000083 0.448964 0.893550
vn 0.000083 0.563149 0.826356
vn 1.000000 -0.000002 0.000000
vn 1.000000 0.000000 0.000000
vn 1.000000 0.000000 0.000000
vn 1.000000 0.000000 0.000000
vn 0.000000 -0.272421 -0.962178
vn 0.000000 -0.417609 -0.908627
vn 0.000000 -0.272421 -0.962178
vn 0.000000 -0.556030 -0.831163
vn -1.000000 0.000004 0.000000
vn -1.000000 0.000011 0.000000
vn -1.000000 0.000006 0.000000
vn -1.000000 0.000002 0.000000
vn 1.000000 0.000000 0.000000
vn 1.000000 0.000000 0.000000
vn 0.000000 -0.802629 -0.596479
vn 0.000000 -0.802631 -0.596476
vn 0.000000 0.186530 0.982449
vn 0.000000 0.180651 0.983547
vn 0.000000 0.174767 0.984610
vn 0.000000 0.174767 0.984610
vn 1.000000 -0.000002 0.000000
vn 1.000000 0.000000 0.000000
vn 1.000000 -0.000002 0.000000
vn 1.000000 0.000000 0.000000
vn 0.000000 -0.173305 -0.984868
vn 0.000000 -0.173307 -0.984868
vn 0.000000 -0.173307 -0.984868
vn 0.000000 -0.173309 -0.984867
vn -1.000000 0.000000 0.000000
vn -1.000000 0.000001 0.000000
vn -1.000000 0.000001 0.000000
vn -1.000000 0.000002 0.000000
vn 0.000000 -0.988848 -0.148927
vn 0.000000 -0.954612 -0.297852
vn 0.000000 1.000000 0.000000
vn 0.000000 1.000000 0.000000
vn 0.000000 1.000000 0.000000
vn 0.000000 1.000000 0.000000
vn 1.000000 0.000007 0.000000
vn 1.000000 0.000003 0.000000
vn 1.000000 0.000003 0.000000
vn 1.000000 0.000000 0.000000
vn 0.000000 -1.000000 -0.000160
vn 0.000000 -1.000000 -0.000160
vn 0.000000 -1.000000 -0.000160
vn 0.000000 -1.000000 -0.000160
vn -1.000000 0.000000 0.000000
vn -1.000000 0.000003 0.000000
vn -1.000000 0.000003 0.000000
vn -1.000000 0.000007 0.000000
s 1
g polySurface33
usemtl initialShadingGroup
f 1/2/1 4/5/2 3/4/3
f 3/4/3 4/5/2 2/3/4
s 2
f 2/3/5 4/5/6 57/94/7
f 57/94/7 4/5/6 56/93/8
s 3
f 4/6/9 5/7/10 56/97/11
f 56/97/11 5/7/10 59/98/12
f 5/7/10 6/8/13 59/98/12
f 59/98/12 6/8/13 60/99/14
f 6/8/13 8/9/15 60/99/14
f 60/99/14 8/9/15 61/100/16
s 4
f 7/10/17 1/11/18 62/101/19
f 62/101/19 1/11/18 55/102/20
s 3
f 4/6/9 8/12/15 5/7/10
f 5/7/10 8/12/15 6/13/13
s 5
f 8/9/21 7/10/22 61/100/23
f 61/100/23 7/10/22 62/101/24
s 6
f 1/14/25 7/15/26 4/6/27
f 4/6/27 7/15/26 8/12/28
s 7
f 11/16/29 12/17/30 9/19/31
f 9/19/31 12/17/30 10/18/32
s 8
f 21/20/33 22/21/34 13/23/35
f 13/23/35 22/21/34 14/22/36
s 9
f 23/24/37 21/27/38 16/25/39
f 16/25/39 21/27/38 13/28/40
s 8
f 24/29/41 25/30/42 17/32/43
f 17/32/43 25/30/42 18/31/44
s 11
f 26/34/45 19/35/46 25/33/47
f 25/33/47 19/35/46 18/36/48
s 12
f 27/37/49 20/38/50 26/34/51
f 26/34/51 20/38/50 19/35/52
s 9
f 27/37/53 24/39/54 20/38/55
f 20/38/55 24/39/54 17/40/56
s 8
f 17/32/43 18/31/44 21/20/33
f 21/20/33 18/31/44 22/21/34
s 11
f 19/35/46 15/26/57 18/36/48
f 18/36/48 15/26/57 22/41/58
s 12
f 20/38/50 23/24/59 19/35/52
f 19/35/52 23/24/59 15/26/60
s 9
f 20/38/55 17/40/56 23/24/37
f 23/24/37 17/40/56 21/27/38
s 8
f 49/79/61 50/80/62 11/16/63
f 11/16/63 50/80/62 12/17/64
s 11
f 49/78/65 11/42/66 48/77/67
f 48/77/67 11/42/66 9/43/68
s 16
f 47/76/69 48/77/70 10/44/71
f 10/44/71 48/77/70 9/43/72
s 9
f 50/81/73 47/76/74 12/45/75
f 12/45/75 47/76/74 10/44/76
s 18
f 28/46/77 31/47/78 29/49/79
f 29/49/79 31/47/78 30/48/80
s 8
f 32/50/81 35/51/82 33/53/83
f 33/53/83 35/51/82 34/52/84
s 12
f 38/56/85 37/54/86 110/184/87
f 110/184/87 37/54/86 36/55/88
s 9
f 37/54/89 38/56/90 32/58/91
f 32/58/91 38/56/90 35/57/92
s 8
f 39/59/93 42/60/94 40/62/95
f 40/62/95 42/60/94 41/61/96
s 23
f 41/64/97 44/65/98 40/63/99
f 40/63/99 44/65/98 43/66/100
s 12
f 45/67/101 43/66/102 46/68/103
f 46/68/103 43/66/102 44/65/104
s 9
f 45/67/105 46/68/106 39/70/107
f 39/70/107 46/68/106 42/69/108
s 8
f 42/60/94 32/50/81 41/61/96
f 41/61/96 32/50/81 33/53/83
s 23
f 33/71/109 36/55/110 41/64/97
f 41/64/97 36/55/110 44/65/98
s 12
f 46/68/103 44/65/104 37/54/86
f 37/54/86 44/65/104 36/55/88
s 9
f 46/68/106 37/54/89 42/69/108
f 42/69/108 37/54/89 32/58/91
s 8
f 54/89/111 28/46/112 53/88/113
f 53/88/113 28/46/112 29/49/114
s 23
f 31/72/115 28/73/116 51/91/117
f 51/91/117 28/73/116 54/90/118
s 28
f 51/91/119 52/86/120 31/72/121
f 31/72/121 52/86/120 30/74/122
s 9
f 30/74/123 52/86/124 29/75/125
f 29/75/125 52/86/124 53/87/126
s 8
f 14/22/36 34/52/84 13/23/35
f 13/23/35 34/52/84 35/51/82
s 12
f 16/25/127 109/183/128 23/24/59
f 23/24/59 109/183/128 15/26/60
s 9
f 13/28/40 35/57/92 16/25/39
f 16/25/39 35/57/92 38/56/90
s 11
f 25/33/47 49/78/65 26/34/45
f 26/34/45 49/78/65 48/77/67
s 8
f 25/30/42 24/29/41 49/79/61
f 49/79/61 24/29/41 50/80/62
s 9
f 47/76/74 50/81/73 27/37/53
f 27/37/53 50/81/73 24/39/54
s 31
f 27/37/129 26/34/130 45/82/131
f 45/82/131 26/34/130 43/83/132
s 32
f 26/34/133 48/77/134 43/83/135
f 43/83/135 48/77/134 51/84/136
s 33
f 48/77/137 47/76/138 51/84/139
f 51/84/139 47/76/138 52/85/140
s 34
f 27/37/141 45/82/142 47/76/143
f 47/76/143 45/82/142 52/85/144
s 9
f 52/86/124 45/67/105 53/87/126
f 53/87/126 45/67/105 39/70/107
s 8
f 40/62/95 54/89/111 39/59/93
f 39/59/93 54/89/111 53/88/113
s 23
f 51/91/117 54/90/118 43/66/100
f 43/66/100 54/90/118 40/63/99
s 35
f 55/92/145 58/95/146 56/93/147
f 56/93/147 58/95/146 57/94/148
s 36
f 3/4/149 58/95/150 1/1/151
f 1/1/151 58/95/150 55/96/152
s 37
f 2/3/153 57/94/154 3/4/155
f 3/4/155 57/94/154 58/95/156
s 3
f 56/97/11 59/98/12 61/103/16
f 61/103/16 59/98/12 60/104/14
s 38
f 55/105/157 56/97/158 62/106/159
f 62/106/159 56/97/158 61/103/160
s 39
f 63/107/161 66/110/162 64/108/163
f 64/108/163 66/110/162 65/109/164
s 40
f 67/111/165 70/114/166 68/112/167
f 68/112/167 70/114/166 69/113/168
s 41
f 72/116/169 71/115/170 112/186/171
f 112/186/171 71/115/170 73/117/172
s 42
f 71/115/173 72/116/174 67/118/175
f 67/118/175 72/116/174 70/119/176
s 40
f 74/120/177 77/123/178 75/121/179
f 75/121/179 77/123/178 76/122/180
s 44
f 76/127/181 79/126/182 75/124/183
f 75/124/183 79/126/182 78/125/184
s 41
f 80/128/185 78/125/186 81/129/187
f 81/129/187 78/125/186 79/126/188
s 42
f 80/128/189 81/129/190 74/130/191
f 74/130/191 81/129/190 77/131/192
s 40
f 77/123/178 67/111/165 76/122/180
f 76/122/180 67/111/165 68/112/167
s 44
f 68/132/193 73/117/194 76/127/181
f 76/127/181 73/117/194 79/126/182
s 41
f 81/129/187 79/126/188 71/115/170
f 71/115/170 79/126/188 73/117/172
s 42
f 81/129/190 71/115/173 77/131/192
f 77/131/192 71/115/173 67/118/175
s 40
f 82/133/195 63/107/196 83/134/197
f 83/134/197 63/107/196 64/108/198
s 44
f 66/138/199 63/137/200 84/135/201
f 84/135/201 63/137/200 82/136/202
s 49
f 85/139/203 65/140/204 84/135/205
f 84/135/205 65/140/204 66/138/206
s 42
f 65/140/207 85/139/208 64/141/209
f 64/141/209 85/139/208 83/142/210
s 51
f 86/143/211 89/146/212 87/144/213
f 87/144/213 89/146/212 88/145/214
s 40
f 90/147/215 93/150/216 91/148/217
f 91/148/217 93/150/216 92/149/218
s 42
f 94/151/219 90/155/220 96/153/221
f 96/153/221 90/155/220 91/154/222
s 40
f 97/156/223 100/159/224 98/157/225
f 98/157/225 100/159/224 99/158/226
s 55
f 102/163/227 101/162/228 100/160/229
f 100/160/229 101/162/228 99/161/230
s 41
f 103/164/231 104/165/232 102/163/233
f 102/163/233 104/165/232 101/162/234
s 42
f 103/164/235 97/167/236 104/165/237
f 104/165/237 97/167/236 98/166/238
s 40
f 98/157/225 99/158/226 90/147/215
f 90/147/215 99/158/226 93/150/216
s 55
f 101/162/228 95/152/239 99/161/230
f 99/161/230 95/152/239 93/168/240
s 41
f 104/165/232 94/151/241 101/162/234
f 101/162/234 94/151/241 95/152/242
s 42
f 104/165/237 98/166/238 94/151/219
f 94/151/219 98/166/238 90/155/220
s 40
f 105/169/243 106/170/244 86/143/245
f 86/143/245 106/170/244 89/146/246
s 55
f 105/174/247 86/173/248 107/171/249
f 107/171/249 86/173/248 87/172/250
s 60
f 107/171/251 87/172/252 108/175/253
f 108/175/253 87/172/252 88/176/254
s 42
f 106/178/255 108/175/256 89/177/257
f 89/177/257 108/175/256 88/176/258
s 40
f 69/113/168 70/114/166 92/149/218
f 92/149/218 70/114/166 91/148/217
s 41
f 96/153/259 111/185/260 94/151/241
f 94/151/241 111/185/260 95/152/242
s 42
f 70/119/176 72/116/174 91/154/222
f 91/154/222 72/116/174 96/153/221
s 44
f 84/135/201 82/136/202 78/125/184
f 78/125/184 82/136/202 75/124/183
s 40
f 75/121/179 82/133/195 74/120/177
f 74/120/177 82/133/195 83/134/197
s 42
f 85/139/208 80/128/189 83/142/210
f 83/142/210 80/128/189 74/130/191
s 63
f 80/128/261 103/180/262 78/125/263
f 78/125/263 103/180/262 102/179/264
s 64
f 78/125/265 102/179/266 84/135/267
f 84/135/267 102/179/266 107/181/268
s 65
f 84/135/269 107/181/270 85/139/271
f 85/139/271 107/181/270 108/182/272
s 66
f 108/182/273 103/180/274 85/139/275
f 85/139/275 103/180/274 80/128/276
s 42
f 97/167/236 103/164/235 106/178/255
f 106/178/255 103/164/235 108/175/256
s 40
f 100/159/224 97/156/223 105/169/243
f 105/169/243 97/156/223 106/170/244
s 55
f 100/160/229 105/174/247 102/163/227
f 102/163/227 105/174/247 107/171/249
s 12
f 16/25/127 38/56/85 109/183/128
f 109/183/128 38/56/85 110/184/87
s 41
f 72/116/169 112/186/171 96/153/259
f 96/153/259 112/186/171 111/185/260
