# This file uses centimeters as units for non-parametric coordinates.

v -5.250001 -0.050000 4.945189
v 5.250001 -0.050000 4.945189
v -5.250001 0.050000 4.945189
v 5.250001 0.050000 4.945189
v -5.250001 0.050000 -5.554811
v 5.250001 0.050000 -5.554811
v -5.250001 -0.050000 -5.554811
v 5.250001 -0.050000 -5.554811
v -3.084258 0.050000 4.945189
v -3.084258 0.050000 -5.554811
v -3.084258 -0.050000 -5.554811
v -3.084258 -0.050000 4.945189
v -4.284259 0.050000 4.945189
v -4.284259 0.050000 -5.554811
v -4.284259 -0.050000 -5.554811
v -4.284259 -0.050000 4.945189
v -4.284259 -0.050000 5.554810
v -4.284259 0.050000 5.554810
v -3.084258 -0.050000 5.554810
v -3.084258 0.050000 5.554810
vt 0.380774 0.544953
vt 0.380774 0.501820
vt 0.385241 0.501820
vt 0.385241 0.544953
vt 0.001817 0.029219
vt 0.044949 0.029219
vt 0.044949 0.498180
vt 0.001817 0.498180
vt 0.098545 0.029219
vt 0.098545 0.498180
vt 0.044949 0.001992
vt 0.098545 0.001992
vt 0.470777 0.029219
vt 0.470777 0.498180
vt 0.431080 0.970781
vt 0.431080 0.927648
vt 0.435547 0.927648
vt 0.435547 0.970781
vt 0.431080 0.874052
vt 0.435547 0.874052
vt 0.431080 0.501820
vt 0.435547 0.501820
vt 0.441142 0.501820
vt 0.484274 0.501820
vt 0.484274 0.970781
vt 0.441142 0.970781
vt 0.537870 0.501820
vt 0.537870 0.970781
vt 0.910102 0.501820
vt 0.910102 0.970781
vt 0.537870 0.998008
vt 0.484274 0.998008
vt 0.421019 0.970781
vt 0.421019 0.501820
vt 0.425486 0.501820
vt 0.425486 0.970781
vt 0.410958 0.970781
vt 0.410958 0.501820
vt 0.415424 0.501820
vt 0.415424 0.970781
vt 0.405363 0.874052
vt 0.400897 0.874052
vt 0.400897 0.501820
vt 0.405363 0.501820
vt 0.395302 0.555416
vt 0.390836 0.555416
vt 0.390836 0.501820
vt 0.395302 0.501820
vt 0.375180 0.529047
vt 0.370713 0.529047
vt 0.370713 0.501820
vt 0.375180 0.501820
vt 0.360652 0.501820
vt 0.365118 0.501820
vt 0.365118 0.529047
vt 0.360652 0.529047
vn 0.000000 0.000000 1.000000
vn 0.000000 0.000000 1.000000
vn 0.000000 0.000000 1.000000
vn 0.000000 0.000000 1.000000
vn 0.000000 1.000000 0.000000
vn 0.000000 1.000000 0.000000
vn 0.000000 1.000000 0.000000
vn 0.000000 1.000000 0.000000
vn 0.000000 0.000000 -1.000000
vn 0.000000 0.000000 -1.000000
vn 0.000000 0.000000 -1.000000
vn 0.000000 0.000000 -1.000000
vn 0.000000 -1.000000 0.000000
vn 0.000000 -1.000000 0.000000
vn 0.000000 -1.000000 0.000000
vn 0.000000 -1.000000 0.000000
vn 1.000000 0.000000 0.000000
vn 1.000000 0.000000 0.000000
vn 1.000000 0.000000 0.000000
vn 1.000000 0.000000 0.000000
vn -1.000000 0.000000 0.000000
vn -1.000000 0.000000 0.000000
vn -1.000000 0.000000 0.000000
vn -1.000000 0.000000 0.000000
vn 0.000000 1.000000 0.000000
vn 0.000000 1.000000 0.000000
vn 0.000000 1.000000 0.000000
vn 0.000000 1.000000 0.000000
vn 0.000000 0.000000 -1.000000
vn 0.000000 0.000000 -1.000000
vn 0.000000 0.000000 -1.000000
vn 0.000000 0.000000 -1.000000
vn 0.000000 -1.000000 0.000000
vn 0.000000 -1.000000 0.000000
vn 0.000000 -1.000000 0.000000
vn 0.000000 -1.000000 0.000000
vn 0.000000 0.000000 1.000000
vn 0.000000 0.000000 1.000000
vn 0.000000 0.000000 1.000000
vn 0.000000 0.000000 1.000000
vn 0.000000 1.000000 0.000000
vn 0.000000 1.000000 0.000000
vn 0.000000 1.000000 0.000000
vn 0.000000 1.000000 0.000000
vn 0.000000 0.000000 -1.000000
vn 0.000000 0.000000 -1.000000
vn 0.000000 0.000000 -1.000000
vn 0.000000 0.000000 -1.000000
vn 0.000000 -1.000000 0.000000
vn 0.000000 -1.000000 0.000000
vn 0.000000 -1.000000 0.000000
vn 0.000000 -1.000000 0.000000
vn 0.000000 0.000000 1.000000
vn 0.000000 0.000000 1.000000
vn 0.000000 0.000000 1.000000
vn 0.000000 0.000000 1.000000
vn -1.000000 0.000000 0.000000
vn -1.000000 0.000000 0.000000
vn -1.000000 0.000000 0.000000
vn -1.000000 0.000000 0.000000
vn 0.000000 -1.000000 0.000000
vn 0.000000 -1.000000 0.000000
vn 0.000000 -1.000000 0.000000
vn 0.000000 -1.000000 0.000000
vn 1.000000 0.000000 0.000000
vn 1.000000 0.000000 0.000000
vn 1.000000 0.000000 0.000000
vn 1.000000 0.000000 0.000000
vn 0.000000 1.000000 0.000000
vn 0.000000 1.000000 0.000000
vn 0.000000 1.000000 0.000000
vn 0.000000 1.000000 0.000000
f 1/1/1 16/2/2 13/3/3 3/4/4
f 3/5/5 13/6/6 14/7/7 5/8/8
f 5/15/9 14/16/10 15/17/11 7/18/12
f 7/23/13 15/24/14 16/25/15 1/26/16
f 2/33/17 8/34/18 6/35/19 4/36/20
f 7/37/21 1/38/22 3/39/23 5/40/24
f 9/9/25 4/13/26 6/14/27 10/10/28
f 11/20/29 10/19/30 6/21/31 8/22/32
f 12/28/33 11/27/34 8/29/35 2/30/36
f 9/41/37 12/42/38 2/43/39 4/44/40
f 13/6/41 9/9/42 10/10/43 14/7/44
f 15/17/45 14/16/46 10/19/47 11/20/48
f 16/25/49 15/24/50 11/27/51 12/28/52
f 18/45/53 17/46/54 19/47/55 20/48/56
f 13/49/57 16/50/58 17/51/59 18/52/60
f 16/25/61 12/28/62 19/31/63 17/32/64
f 12/53/65 9/54/66 20/55/67 19/56/68
f 9/9/69 13/6/70 18/11/71 20/12/72
