# This file uses centimeters as units for non-parametric coordinates.

mtllib HelpArrow.mtl
g default
v -1.000000 -0.600000 0.000000
v 1.000000 -0.600000 0.000000
v -1.000000 0.600000 0.000000
v 1.000000 0.600000 0.000000
v -0.967963 0.600000 0.000000
v -0.967963 -0.600000 0.000000
v -1.000000 0.577056 0.000000
v -0.967963 0.577056 0.000000
v 1.000000 0.577056 0.000000
v -1.000000 -0.577460 0.000000
v -0.967963 -0.577460 0.000000
v 1.000000 -0.577460 0.000000
v 0.961086 -0.600000 0.000000
v 0.961086 -0.577460 0.000000
v 0.961086 0.577056 0.000000
v 0.961086 0.600000 0.000000
v 0.975251 -0.600000 0.000000
v 0.975251 -0.577460 0.000000
v 0.975251 0.577056 0.000000
v 0.975251 0.600000 0.000000
v 1.000000 -0.562488 0.000000
v 0.975251 -0.562488 0.000000
v 0.961086 -0.562488 0.000000
v -0.967963 -0.562488 0.000000
v -1.000000 -0.562488 0.000000
v 1.000000 0.554434 0.000000
v 0.975251 0.554434 0.000000
v 0.961086 0.554434 0.000000
v -0.967963 0.554434 0.000000
v -1.000000 0.554434 0.000000
vt 0.999725 0.799404
vt 0.003710 0.798205
vt 0.004429 0.200596
vt 1.000445 0.201795
vt 0.019665 0.798224
vt 0.020384 0.200615
vt 0.003724 0.786779
vt 0.019679 0.786798
vt 0.999739 0.787978
vt 0.004416 0.211821
vt 0.020371 0.211840
vt 1.000431 0.213020
vt 0.981065 0.201772
vt 0.981051 0.212997
vt 0.980359 0.787955
vt 0.980346 0.799381
vt 0.988119 0.201780
vt 0.988106 0.213005
vt 0.987414 0.787963
vt 0.987400 0.799389
vt 1.000422 0.220476
vt 0.988097 0.220462
vt 0.981042 0.220453
vt 0.020362 0.219297
vt 0.004407 0.219277
vt 0.999753 0.776712
vt 0.987427 0.776697
vt 0.980373 0.776689
vt 0.019692 0.775532
vt 0.003737 0.775513
vn 0.000000 0.000000 1.000000
vn 0.000000 0.000000 1.000000
vn 0.000000 0.000000 1.000000
vn 0.000000 0.000000 1.000000
vn 0.000000 0.000000 1.000000
vn 0.000000 0.000000 1.000000
vn 0.000000 0.000000 1.000000
vn 0.000000 0.000000 1.000000
vn 0.000000 0.000000 1.000000
vn 0.000000 0.000000 1.000000
vn 0.000000 0.000000 1.000000
vn 0.000000 0.000000 1.000000
vn 0.000000 0.000000 1.000000
vn 0.000000 0.000000 1.000000
vn 0.000000 0.000000 1.000000
vn 0.000000 0.000000 1.000000
vn 0.000000 0.000000 1.000000
vn 0.000000 0.000000 1.000000
vn 0.000000 0.000000 1.000000
vn 0.000000 0.000000 1.000000
vn 0.000000 0.000000 1.000000
vn 0.000000 0.000000 1.000000
vn 0.000000 0.000000 1.000000
vn 0.000000 0.000000 1.000000
vn 0.000000 0.000000 1.000000
vn 0.000000 0.000000 1.000000
vn 0.000000 0.000000 1.000000
vn 0.000000 0.000000 1.000000
vn 0.000000 0.000000 1.000000
vn 0.000000 0.000000 1.000000
s 1
g pPlane1
usemtl initialShadingGroup
f 16/16/1 5/5/2 15/15/3
f 15/15/3 5/5/2 8/8/4
f 5/5/2 3/2/5 8/8/4
f 8/8/4 3/2/5 7/7/6
f 24/24/7 25/25/8 11/11/9
f 11/11/9 25/25/8 10/10/10
f 23/23/11 24/24/7 14/14/12
f 14/14/12 24/24/7 11/11/9
f 11/11/9 10/10/10 6/6/13
f 6/6/13 10/10/10 1/3/14
f 14/14/12 11/11/9 13/13/15
f 13/13/15 11/11/9 6/6/13
f 18/18/16 14/14/12 17/17/17
f 17/17/17 14/14/12 13/13/15
f 22/22/18 23/23/11 18/18/16
f 18/18/16 23/23/11 14/14/12
f 20/20/19 16/16/1 19/19/20
f 19/19/20 16/16/1 15/15/3
f 12/12/21 18/18/16 2/4/22
f 2/4/22 18/18/16 17/17/17
f 21/21/23 22/22/18 12/12/21
f 12/12/21 22/22/18 18/18/16
f 4/1/24 20/20/19 9/9/25
f 9/9/25 20/20/19 19/19/20
f 26/26/26 27/27/27 21/21/23
f 21/21/23 27/27/27 22/22/18
f 27/27/27 28/28/28 22/22/18
f 22/22/18 28/28/28 23/23/11
f 28/28/28 29/29/29 23/23/11
f 23/23/11 29/29/29 24/24/7
f 29/29/29 30/30/30 24/24/7
f 24/24/7 30/30/30 25/25/8
f 9/9/25 19/19/20 26/26/26
f 26/26/26 19/19/20 27/27/27
f 19/19/20 15/15/3 27/27/27
f 27/27/27 15/15/3 28/28/28
f 15/15/3 8/8/4 28/28/28
f 28/28/28 8/8/4 29/29/29
f 8/8/4 7/7/6 29/29/29
f 29/29/29 7/7/6 30/30/30
