# This file uses centimeters as units for non-parametric coordinates.

mtllib LongPillow.mtl
g default
v -0.446690 -0.100468 -0.237294
v -0.505754 -0.051482 -0.295511
v -0.510872 -0.051482 -0.270458
v -0.446690 -0.100468 -0.212960
v -0.480172 -0.051482 -0.301476
v -0.422356 -0.100468 -0.237294
v -0.422356 -0.100468 -0.212960
v -0.446690 -0.100468 0.235721
v -0.504906 -0.051482 0.296358
v -0.479854 -0.051482 0.301476
v -0.422356 -0.100468 0.235721
v -0.510872 -0.051482 0.270776
v -0.446690 -0.100468 0.210134
v -0.422356 -0.100468 0.210134
v 0.446690 -0.100468 -0.237294
v 0.505754 -0.051482 -0.295511
v 0.510872 -0.051482 -0.270458
v 0.446690 -0.100468 -0.212960
v 0.480172 -0.051482 -0.301476
v 0.422356 -0.100468 -0.237294
v 0.422356 -0.100468 -0.212960
v 0.446690 -0.100468 0.235721
v 0.504906 -0.051482 0.296358
v 0.479854 -0.051482 0.301476
v 0.422356 -0.100468 0.235721
v 0.510872 -0.051482 0.270776
v 0.446690 -0.100468 0.210134
v 0.422356 -0.100468 0.210134
v -0.446690 0.100468 -0.237294
v -0.505754 0.051482 -0.295511
v -0.510872 0.051482 -0.270458
v -0.446690 0.100468 -0.212960
v -0.480172 0.051482 -0.301476
v -0.422356 0.100468 -0.237294
v -0.422356 0.100468 -0.212960
v -0.446690 0.100468 0.235721
v -0.504906 0.051482 0.296358
v -0.479854 0.051482 0.301476
v -0.422356 0.100468 0.235721
v -0.510872 0.051482 0.270776
v -0.446690 0.100468 0.210134
v -0.422356 0.100468 0.210134
v 0.446690 0.100468 -0.237294
v 0.505754 0.051482 -0.295511
v 0.510872 0.051482 -0.270458
v 0.446690 0.100468 -0.212960
v 0.480172 0.051482 -0.301476
v 0.422356 0.100468 -0.237294
v 0.422356 0.100468 -0.212960
v 0.446690 0.100468 0.235721
v 0.504906 0.051482 0.296358
v 0.479854 0.051482 0.301476
v 0.422356 0.100468 0.235721
v 0.510872 0.051482 0.270776
v 0.446690 0.100468 0.210134
v 0.422356 0.100468 0.210134
vt 0.634719 0.210915
vt 0.611981 0.210915
vt 0.611981 0.250000
vt 0.625000 0.259719
vt 0.611981 0.259719
vt 0.611981 0.259719
vt 0.625000 0.210915
vt 0.634719 0.210915
vt 0.625000 0.250000
vt 0.634719 0.250000
vt 0.634719 0.250000
vt 0.625000 0.259719
vt 0.625000 0.210915
vt 0.625000 0.250000
vt 0.611981 0.210915
vt 0.611981 0.250000
vt 0.611981 0.210915
vt 0.634719 0.210915
vt 0.611981 0.250000
vt 0.611981 0.259719
vt 0.611981 0.259719
vt 0.625000 0.259719
vt 0.634719 0.210915
vt 0.625000 0.210915
vt 0.634719 0.250000
vt 0.625000 0.250000
vt 0.634719 0.250000
vt 0.625000 0.259719
vt 0.611981 0.210915
vt 0.611981 0.250000
vt 0.625000 0.210915
vt 0.625000 0.250000
vt 0.611981 0.250000
vt 0.625000 0.259719
vt 0.611981 0.259719
vt 0.611981 0.259719
vt 0.625000 0.210915
vt 0.625000 0.250000
vt 0.634719 0.250000
vt 0.634719 0.210915
vt 0.611981 0.210915
vt 0.634719 0.210915
vt 0.634719 0.250000
vt 0.625000 0.259719
vt 0.625000 0.210915
vt 0.625000 0.250000
vt 0.611981 0.250000
vt 0.611981 0.210915
vt 0.611981 0.250000
vt 0.611981 0.259719
vt 0.611981 0.259719
vt 0.625000 0.259719
vt 0.625000 0.210915
vt 0.634719 0.210915
vt 0.634719 0.250000
vt 0.625000 0.250000
vt 0.611981 0.210915
vt 0.634719 0.250000
vt 0.634719 0.210915
vt 0.625000 0.259719
vt 0.611981 0.250000
vt 0.625000 0.210915
vt 0.625000 0.250000
vt 0.611981 0.210915
vn -0.314103 -0.949254 -0.015987
vn -0.000001 -1.000000 -0.000000
vn -0.000000 -1.000000 0.000001
vn -0.312978 -0.949593 0.017859
vn -0.607732 -0.528256 -0.592965
vn -0.083353 -0.450994 -0.888627
vn -0.018322 -0.949541 -0.313107
vn -0.236116 -0.943711 -0.231644
vn -0.890086 -0.449878 -0.073191
vn -0.888589 -0.451157 0.082868
vn -0.593226 -0.531100 0.604993
vn -0.230863 -0.944921 0.232007
vn -0.015717 -0.951010 0.308762
vn -0.073142 -0.454921 0.887523
vn 0.314103 -0.949254 -0.015987
vn 0.312978 -0.949593 0.017859
vn 0.000000 -1.000000 0.000001
vn 0.000001 -1.000000 -0.000000
vn 0.607732 -0.528256 -0.592965
vn 0.236116 -0.943711 -0.231644
vn 0.018322 -0.949541 -0.313107
vn 0.083353 -0.450994 -0.888627
vn 0.890086 -0.449878 -0.073191
vn 0.888589 -0.451157 0.082868
vn 0.015717 -0.951010 0.308762
vn 0.593226 -0.531100 0.604993
vn 0.230863 -0.944921 0.232007
vn 0.073142 -0.454921 0.887523
vn -0.593226 0.531100 0.604993
vn -0.888589 0.451157 0.082868
vn -0.890086 0.449878 -0.073191
vn -0.607732 0.528256 -0.592965
vn -0.083353 0.450994 -0.888627
vn 0.083353 0.450994 -0.888627
vn 0.607732 0.528256 -0.592965
vn 0.890086 0.449878 -0.073191
vn 0.888589 0.451157 0.082868
vn 0.593226 0.531100 0.604993
vn 0.073142 0.454921 0.887523
vn -0.073142 0.454921 0.887523
vn -0.314103 0.949254 -0.015987
vn -0.312978 0.949593 0.017859
vn -0.000000 1.000000 0.000001
vn -0.000001 1.000000 -0.000000
vn -0.236116 0.943711 -0.231644
vn -0.018322 0.949541 -0.313107
vn -0.230863 0.944921 0.232007
vn -0.015717 0.951010 0.308762
vn 0.314103 0.949254 -0.015987
vn 0.000001 1.000000 -0.000000
vn 0.000000 1.000000 0.000001
vn 0.312978 0.949593 0.017859
vn 0.018322 0.949541 -0.313107
vn 0.236116 0.943711 -0.231644
vn 0.015717 0.951010 0.308762
vn 0.230863 0.944921 0.232007
s 1
g polySurface57
usemtl initialShadingGroup
f 4/3/1 7/6/2 14/5/3 13/4/4
f 2/7/5 5/8/6 6/10/7 1/9/8
f 3/2/9 4/3/1 13/11/4 12/1/10
f 4/3/1 3/2/9 2/7/5 1/9/8
f 7/6/2 4/3/1 1/9/8 6/12/7
f 9/13/11 12/1/10 13/11/4 8/14/12
f 11/16/13 10/15/14 9/13/11 8/14/12
f 14/5/3 11/16/13 8/14/12 13/4/4
f 18/19/15 27/22/16 28/21/17 21/20/18
f 16/24/19 15/26/20 20/25/21 19/23/22
f 17/17/23 26/18/24 27/27/16 18/19/15
f 18/19/15 15/26/20 16/24/19 17/17/23
f 21/20/18 20/28/21 15/26/20 18/19/15
f 6/10/7 5/8/6 19/23/22 20/25/21
f 7/6/2 6/12/7 20/28/21 21/20/18
f 14/5/3 7/6/2 21/20/18 28/21/17
f 11/16/13 14/5/3 28/21/17 25/30/25
f 23/31/26 22/32/27 27/27/16 26/18/24
f 10/15/14 11/16/13 25/30/25 24/29/28
f 25/30/25 22/32/27 23/31/26 24/29/28
f 28/21/17 27/22/16 22/32/27 25/30/25
f 12/1/10 9/13/11 37/45/29 40/42/30
f 3/2/9 12/1/10 40/42/30 31/41/31
f 2/7/5 3/2/9 31/41/31 30/37/32
f 5/8/6 2/7/5 30/37/32 33/40/33
f 19/23/22 5/8/6 33/40/33 47/54/34
f 16/24/19 19/23/22 47/54/34 44/53/35
f 17/17/23 16/24/19 44/53/35 45/57/36
f 26/18/24 17/17/23 45/57/36 54/59/37
f 23/31/26 26/18/24 54/59/37 51/62/38
f 24/29/28 23/31/26 51/62/38 52/64/39
f 10/15/14 24/29/28 52/64/39 38/48/40
f 9/13/11 10/15/14 38/48/40 37/45/29
f 32/33/41 41/34/42 42/35/43 35/36/44
f 30/37/32 29/38/45 34/39/46 33/40/33
f 31/41/31 40/42/30 41/43/42 32/33/41
f 32/33/41 29/38/45 30/37/32 31/41/31
f 35/36/44 34/44/46 29/38/45 32/33/41
f 37/45/29 36/46/47 41/43/42 40/42/30
f 39/47/48 36/46/47 37/45/29 38/48/40
f 42/35/43 41/34/42 36/46/47 39/47/48
f 46/49/49 49/50/50 56/51/51 55/52/52
f 44/53/35 47/54/34 48/55/53 43/56/54
f 45/57/36 46/49/49 55/58/52 54/59/37
f 46/49/49 45/57/36 44/53/35 43/56/54
f 49/50/50 46/49/49 43/56/54 48/60/53
f 34/39/46 48/55/53 47/54/34 33/40/33
f 35/36/44 49/50/50 48/60/53 34/44/46
f 42/35/43 56/51/51 49/50/50 35/36/44
f 39/47/48 53/61/55 56/51/51 42/35/43
f 51/62/38 54/59/37 55/58/52 50/63/56
f 38/48/40 52/64/39 53/61/55 39/47/48
f 53/61/55 52/64/39 51/62/38 50/63/56
f 56/51/51 53/61/55 50/63/56 55/52/52
