# This file uses centimeters as units for non-parametric coordinates.

mtllib LostAndFoundBox.mtl
g default
v -0.665871 -0.692906 2.115610
v 0.665869 -0.692906 2.115610
v -0.665871 0.692906 2.115610
v 0.665869 0.692906 2.115610
v -0.665871 0.692906 -2.115610
v 0.665869 0.692906 -2.115610
v -0.665871 -0.692906 -2.115610
v 0.665869 -0.692906 -2.115610
vt 0.558328 0.694560
vt 0.775100 0.694560
vt 0.775100 0.920134
vt 0.558328 0.920134
vt 0.001992 0.001837
vt 0.218764 0.001837
vt 0.218764 0.690569
vt 0.001992 0.690569
vt 0.781236 0.694560
vt 0.998008 0.694560
vt 0.998008 0.920134
vt 0.781236 0.920134
vt 0.226316 0.001837
vt 0.443089 0.001837
vt 0.443089 0.690569
vt 0.226316 0.690569
vt 0.450446 0.690569
vt 0.450446 0.001837
vt 0.676020 0.001837
vt 0.676020 0.690569
vt 0.682371 0.690569
vt 0.682371 0.001837
vt 0.907945 0.001837
vt 0.907945 0.690569
vn 0.000000 0.000000 1.000000
vn 0.000000 0.000000 1.000000
vn 0.000000 0.000000 1.000000
vn 0.000000 0.000000 1.000000
vn 0.000000 1.000000 0.000000
vn 0.000000 1.000000 0.000000
vn 0.000000 1.000000 0.000000
vn 0.000000 1.000000 0.000000
vn 0.000000 0.000000 -1.000000
vn 0.000000 0.000000 -1.000000
vn 0.000000 0.000000 -1.000000
vn 0.000000 0.000000 -1.000000
vn 0.000000 -1.000000 0.000000
vn 0.000000 -1.000000 0.000000
vn 0.000000 -1.000000 0.000000
vn 0.000000 -1.000000 0.000000
vn 1.000000 0.000000 0.000000
vn 1.000000 0.000000 0.000000
vn 1.000000 0.000000 0.000000
vn 1.000000 0.000000 0.000000
vn -1.000000 0.000000 0.000000
vn -1.000000 0.000000 0.000000
vn -1.000000 0.000000 0.000000
vn -1.000000 0.000000 0.000000
s off
g pCube8
usemtl initialShadingGroup
f 1/1/1 2/2/2 4/3/3 3/4/4
f 3/5/5 4/6/6 6/7/7 5/8/8
f 5/9/9 6/10/10 8/11/11 7/12/12
f 7/13/13 8/14/14 2/15/15 1/16/16
f 2/17/17 8/18/18 6/19/19 4/20/20
f 7/21/21 1/22/22 3/23/23 5/24/24
