# This file uses centimeters as units for non-parametric coordinates.

mtllib OutdoorKitchen_Table.mtl
g default
v -1.485653 0.364849 0.723445
v 1.485654 0.364849 0.723445
v -1.485653 0.443023 0.723445
v 1.485654 0.443023 0.723445
v -1.485653 0.443023 -0.723445
v 1.485654 0.443023 -0.723445
v -1.485653 0.364849 -0.723445
v 1.485654 0.364849 -0.723445
v -1.361364 0.364849 -0.594270
v 1.361365 0.364849 -0.594270
v 1.361365 0.364849 0.594270
v -1.361364 0.364849 0.594270
v -1.361364 -0.443023 -0.594270
v 1.361365 -0.443023 -0.594270
v 1.361365 -0.443023 0.594270
v -1.361364 -0.443023 0.594270
vt 0.375000 0.000000
vt 0.625000 0.000000
vt 0.625000 0.250000
vt 0.375000 0.250000
vt 0.625000 0.500000
vt 0.375000 0.500000
vt 0.625000 0.750000
vt 0.375000 0.750000
vt 0.375000 0.750000
vt 0.625000 0.750000
vt 0.625000 1.000000
vt 0.375000 1.000000
vt 0.875000 0.000000
vt 0.875000 0.250000
vt 0.125000 0.000000
vt 0.125000 0.250000
vt 0.625000 0.750000
vt 0.375000 0.750000
vt 0.625000 1.000000
vt 0.625000 1.000000
vt 0.375000 1.000000
vt 0.375000 1.000000
vn 0.000000 0.000000 1.000000
vn 0.000000 0.000000 1.000000
vn 0.000000 0.000000 1.000000
vn 0.000000 0.000000 1.000000
vn 0.000000 1.000000 0.000000
vn 0.000000 1.000000 0.000000
vn 0.000000 1.000000 0.000000
vn 0.000000 1.000000 0.000000
vn 0.000000 0.000000 -1.000000
vn 0.000000 0.000000 -1.000000
vn 0.000000 0.000000 -1.000000
vn 0.000000 0.000000 -1.000000
vn 0.000000 -1.000000 0.000000
vn 0.000000 -1.000000 0.000000
vn 0.000000 -1.000000 0.000000
vn 0.000000 -1.000000 0.000000
vn 1.000000 0.000000 0.000000
vn 1.000000 0.000000 0.000000
vn 1.000000 0.000000 0.000000
vn 1.000000 0.000000 0.000000
vn -1.000000 0.000000 0.000000
vn -1.000000 0.000000 0.000000
vn -1.000000 0.000000 0.000000
vn -1.000000 0.000000 0.000000
vn 0.000000 -1.000000 -0.000000
vn 0.000000 -1.000000 -0.000000
vn 0.000000 -1.000000 -0.000000
vn 0.000000 -1.000000 -0.000000
vn 0.000000 -1.000000 0.000000
vn 0.000000 -1.000000 0.000000
vn 0.000000 -1.000000 0.000000
vn 0.000000 -1.000000 0.000000
vn 0.000000 -1.000000 0.000000
vn 0.000000 -1.000000 0.000000
vn 0.000000 -1.000000 0.000000
vn 0.000000 -1.000000 0.000000
vn 0.000000 -1.000000 0.000000
vn 0.000000 -1.000000 0.000000
vn 0.000000 -1.000000 0.000000
vn 0.000000 -1.000000 0.000000
vn 0.000000 0.000000 -1.000000
vn 0.000000 0.000000 -1.000000
vn 0.000000 0.000000 -1.000000
vn 0.000000 0.000000 -1.000000
vn 1.000000 0.000000 0.000000
vn 1.000000 0.000000 0.000000
vn 1.000000 0.000000 0.000000
vn 1.000000 0.000000 0.000000
vn 0.000000 0.000000 1.000000
vn 0.000000 0.000000 1.000000
vn 0.000000 0.000000 1.000000
vn 0.000000 0.000000 1.000000
vn -1.000000 0.000000 0.000000
vn -1.000000 0.000000 0.000000
vn -1.000000 0.000000 0.000000
vn -1.000000 0.000000 0.000000
s off
g polySurface45 polySurface44
usemtl initialShadingGroup
f 1/1/1 2/2/2 4/3/3 3/4/4
f 3/4/5 4/3/6 6/5/7 5/6/8
f 5/6/9 6/5/10 8/7/11 7/8/12
f 13/9/13 14/10/14 15/11/15 16/12/16
f 2/2/17 8/13/18 6/14/19 4/3/20
f 7/15/21 1/1/22 3/4/23 5/16/24
f 7/8/25 8/7/26 10/17/27 9/18/28
f 8/7/29 2/19/30 11/20/31 10/17/32
f 2/19/33 1/21/34 12/22/35 11/20/36
f 1/21/37 7/8/38 9/18/39 12/22/40
f 9/18/41 10/17/42 14/10/43 13/9/44
f 10/17/45 11/20/46 15/11/47 14/10/48
f 11/20/49 12/22/50 16/12/51 15/11/52
f 12/22/53 9/18/54 13/9/55 16/12/56
