# This file uses centimeters as units for non-parametric coordinates.

v -0.014989 0.567110 0.014998
v 0.015011 0.567110 0.014998
v -0.015010 0.568084 -0.014791
v 0.014990 0.568084 -0.014791
v 0.015011 -0.568084 -0.015002
v -0.014989 -0.568084 -0.015002
v -0.014989 -0.568084 0.014998
v 0.015011 -0.568084 0.014998
vt 0.098719 0.001992
vt 0.125019 0.001992
vt 0.125019 0.997154
vt 0.098719 0.997154
vt 0.000315 0.001992
vt 0.026614 0.001992
vt 0.026632 0.998008
vt 0.000333 0.998008
vt 0.033237 0.001992
vt 0.059537 0.001992
vt 0.059352 0.998008
vt 0.033237 0.997154
vt 0.065978 0.001992
vt 0.092278 0.001992
vt 0.092278 0.997154
vt 0.066163 0.998008
vt 0.131460 0.001992
vt 0.157575 0.002010
vt 0.157575 0.028310
vt 0.131460 0.028291
vn 0.000000 0.000000 1.000000
vn 0.000000 0.000000 1.000000
vn 0.000000 0.000000 1.000000
vn 0.000000 0.000000 1.000000
vn 0.000000 0.000186 -1.000000
vn 0.000000 0.000186 -1.000000
vn 0.000000 0.000186 -1.000000
vn 0.000000 0.000186 -1.000000
vn 1.000000 0.000009 -0.000351
vn 1.000000 0.000009 -0.000351
vn 1.000000 0.000009 -0.000351
vn 1.000000 0.000009 -0.000351
vn -1.000000 -0.000009 0.000351
vn -1.000000 -0.000009 0.000351
vn -1.000000 -0.000009 0.000351
vn -1.000000 -0.000009 0.000351
vn 0.000000 0.999466 0.032676
vn 0.000000 0.999466 0.032676
vn 0.000000 0.999466 0.032676
vn 0.000000 0.999466 0.032676
f 7/1/1 8/2/2 2/3/3 1/4/4
f 3/5/5 4/6/6 5/7/7 6/8/8
f 8/9/9 5/10/10 4/11/11 2/12/12
f 6/13/13 7/14/14 1/15/15 3/16/16
f 2/17/17 4/18/18 3/19/19 1/20/20
