# This file uses centimeters as units for non-parametric coordinates.

mtllib railingPost_MESH.mtl
g default
v -23.706325 3.783980 -8.409564
v -23.406324 3.783980 -8.409564
v -23.706540 3.787227 -8.707449
v -23.406539 3.787227 -8.707449
v -23.406324 0.000000 -8.709564
v -23.706325 0.000000 -8.709564
v -23.706325 0.000000 -8.409564
v -23.406324 0.000000 -8.409564
vt 0.375000 0.250000
vt 0.625000 0.250000
vt 0.375000 0.500000
vt 0.625000 0.500000
vt 0.875000 0.250000
vt 0.125000 0.250000
vt 0.625000 0.625000
vt 0.875000 0.125000
vt 0.125000 0.125000
vt 0.375000 0.625000
vt 0.375000 0.125000
vt 0.625000 0.125000
vn 0.000000 0.000000 1.000000
vn 0.000000 0.000000 1.000000
vn 0.000000 0.000000 1.000000
vn 0.000000 0.000000 1.000000
vn 0.000000 0.000558 -1.000000
vn 0.000000 0.000558 -1.000000
vn 0.000000 0.000558 -1.000000
vn 0.000000 0.000558 -1.000000
vn 1.000000 0.000000 0.000000
vn 1.000000 0.000029 -0.000360
vn 1.000000 0.000029 -0.000360
vn 1.000000 0.000057 -0.000720
vn -1.000000 0.000000 0.000000
vn -1.000000 -0.000029 0.000360
vn -1.000000 -0.000029 0.000360
vn -1.000000 -0.000058 0.000720
vn 0.000000 0.999941 0.010898
vn 0.000000 0.999941 0.010898
vn 0.000000 0.999941 0.010898
vn 0.000000 0.999941 0.010897
s 1
g pCube37
usemtl initialShadingGroup
f 7/11/1 8/12/2 1/1/3
f 1/1/3 8/12/2 2/2/4
s 2
f 3/3/5 4/4/6 6/10/7
f 6/10/7 4/4/6 5/7/8
s 3
f 8/12/9 5/8/10 2/2/11
f 2/2/11 5/8/10 4/5/12
s 4
f 7/11/13 1/1/14 6/9/15
f 6/9/15 1/1/14 3/6/16
s 5
f 2/2/17 4/4/18 1/1/19
f 1/1/19 4/4/18 3/6/20
