# This file uses centimeters as units for non-parametric coordinates.

mtllib TerraceCover.mtl
g default
v -2.074177 -2.088001 -1.797971
v -1.874176 -2.088001 -1.797971
v -2.074177 -2.088001 -1.997971
v -1.874176 -2.088001 -1.997971
v -1.874172 0.948506 -1.797976
v -2.074179 0.948506 -1.797976
v -2.074179 0.948506 -1.997975
v -1.874172 0.948506 -1.997975
v 1.874176 -2.088001 -1.797971
v 2.074177 -2.088001 -1.797971
v 1.874176 -2.088001 -1.997971
v 2.074177 -2.088001 -1.997971
v 1.874172 0.948506 -1.797976
v 1.874172 0.948506 -1.997975
v 2.074179 0.948506 -1.997975
v 2.074179 0.948506 -1.797976
v 1.874176 -2.088001 1.997978
v 2.074177 -2.088001 1.997978
v 1.874176 -2.088001 1.797978
v 2.074177 -2.088001 1.797978
v 2.074179 0.948506 1.997978
v 1.874172 0.948506 1.997978
v 1.874172 0.948506 1.797980
v 2.074179 0.948506 1.797980
v -2.074177 -2.088001 1.997978
v -1.874176 -2.088001 1.997978
v -2.074177 -2.088001 1.797978
v -1.874176 -2.088001 1.797978
v -1.874172 0.948506 1.997978
v -2.074179 0.948506 1.997978
v -2.074179 0.948507 1.797980
v -1.874172 0.948506 1.797980
v 0.168015 2.003903 -0.168016
v 0.168015 2.088001 -0.168016
v -0.168015 2.088001 -0.168016
v -0.168015 2.003903 -0.168016
v -0.168015 2.088001 0.168015
v -0.168015 2.003903 0.168015
v 0.168015 2.088001 0.168015
v 0.168015 2.003903 0.168015
v -2.074181 1.032605 -1.997979
v -1.874168 1.032605 -1.997979
v -2.074181 1.032605 -1.797982
v -1.874168 1.032605 -1.797982
v -1.874168 1.032605 1.797981
v -2.074181 1.032605 1.797981
v 1.874168 1.032605 -1.997979
v 2.074181 1.032605 -1.997979
v 2.074181 1.032605 -1.797982
v 1.874168 1.032605 -1.797982
v -1.874168 1.032605 1.997978
v -2.074181 1.032605 1.997978
v 1.874168 1.032605 1.997978
v 1.874168 1.032605 1.797981
v 2.074181 1.032605 1.997978
v 2.074181 1.032605 1.797981
vt 0.375000 0.000000
vt 0.625000 0.000000
vt 0.375000 0.750000
vt 0.625000 0.750000
vt 0.375000 1.000000
vt 0.625000 1.000000
vt 0.875000 0.000000
vt 0.125000 0.000000
vt 0.625000 0.141678
vt 0.375000 0.141678
vt 0.125000 0.141678
vt 0.375000 0.608322
vt 0.625000 0.608322
vt 0.875000 0.141678
vt 0.375000 0.000000
vt 0.625000 0.000000
vt 0.625000 0.136571
vt 0.375000 0.136571
vt 0.375000 0.613429
vt 0.625000 0.613429
vt 0.625000 0.750000
vt 0.375000 0.750000
vt 0.625000 1.000000
vt 0.375000 1.000000
vt 0.875000 0.000000
vt 0.875000 0.136571
vt 0.125000 0.000000
vt 0.125000 0.136571
vt 0.375000 0.000000
vt 0.625000 0.000000
vt 0.625000 0.132624
vt 0.375000 0.132624
vt 0.375000 0.617376
vt 0.625000 0.617376
vt 0.625000 0.750000
vt 0.375000 0.750000
vt 0.625000 1.000000
vt 0.375000 1.000000
vt 0.875000 0.000000
vt 0.875000 0.132624
vt 0.125000 0.000000
vt 0.125000 0.132624
vt 0.375000 0.000000
vt 0.625000 0.000000
vt 0.625000 0.171556
vt 0.375000 0.171556
vt 0.375000 0.578444
vt 0.625000 0.578444
vt 0.625000 0.750000
vt 0.375000 0.750000
vt 0.625000 1.000000
vt 0.375000 1.000000
vt 0.875000 0.000000
vt 0.875000 0.171556
vt 0.125000 0.000000
vt 0.125000 0.171556
vt 0.607067 0.979958
vt 0.607067 0.979958
vt 0.508312 0.886272
vt 0.508312 0.886272
vt 0.000000 0.000000
vt 1.000000 0.000000
vt 1.000000 1.000000
vt 0.000000 1.000000
vt 0.000000 0.000000
vt 1.000000 0.000000
vt 1.000000 1.000000
vt 0.000000 1.000000
vt 0.000000 0.000000
vt 1.000000 0.000000
vt 1.000000 1.000000
vt 0.000000 1.000000
vt 0.607067 0.270042
vt 0.607067 0.270042
vt 0.508312 0.363727
vt 0.508312 0.363727
vt 0.645042 0.250000
vt 0.645042 0.250000
vt 0.645042 0.000000
vt 0.645042 0.000000
vt 0.625000 0.979958
vt 0.625000 0.979958
vt 0.625000 0.270042
vt 0.625000 0.270042
vt 0.000000 0.000000
vt 0.000000 1.000000
vt 1.000000 1.000000
vt 1.000000 0.000000
vt 0.000000 0.000000
vt 0.000000 1.000000
vt 1.000000 1.000000
vt 1.000000 0.000000
vt 0.000000 0.000000
vt 0.000000 1.000000
vt 1.000000 1.000000
vt 1.000000 0.000000
vt 0.607067 0.250000
vt 0.607067 0.000000
vt 0.607067 0.000000
vt 0.607067 0.250000
vt 0.607067 1.000000
vt 0.607067 0.979958
vt 0.607067 1.000000
vt 0.607067 0.270042
vt 0.000000 0.000000
vt 0.000000 1.000000
vt 1.000000 1.000000
vt 1.000000 0.000000
vt 0.000000 0.000000
vt 0.000000 1.000000
vt 1.000000 1.000000
vt 1.000000 0.000000
vt 0.000000 0.000000
vt 0.000000 1.000000
vt 1.000000 1.000000
vt 1.000000 0.000000
vt 0.607067 0.250000
vt 0.607067 0.250000
vt 0.607067 0.000000
vt 0.607067 0.000000
vt 0.607067 1.000000
vt 0.607067 1.000000
vt 0.607067 0.979958
vt 0.607067 0.270042
vt 0.000000 0.000000
vt 1.000000 0.000000
vt 1.000000 1.000000
vt 0.000000 1.000000
vt 0.000000 0.000000
vt 1.000000 0.000000
vt 1.000000 1.000000
vt 0.000000 1.000000
vt 0.000000 0.000000
vt 1.000000 0.000000
vt 1.000000 1.000000
vt 0.000000 1.000000
vt 0.645042 0.250000
vt 0.645042 0.000000
vt 0.645042 0.000000
vt 0.645042 0.250000
vt 0.625000 0.979958
vt 0.625000 0.979958
vt 0.625000 0.270042
vt 0.625000 0.270042
vt 0.508312 0.363727
vt 0.508312 0.363727
vt 0.508312 0.886273
vt 0.508312 0.886272
vn 0.000000 0.000002 1.000000
vn 0.000000 0.000002 1.000000
vn 0.000000 0.000002 1.000000
vn 0.000000 0.000002 1.000000
vn 0.000000 -0.000001 -1.000000
vn 0.000000 -0.000001 -1.000000
vn 0.000000 -0.000001 -1.000000
vn 0.000000 -0.000001 -1.000000
vn 0.000000 -1.000000 0.000000
vn 0.000000 -1.000000 0.000000
vn 0.000000 -1.000000 0.000000
vn 0.000000 -1.000000 0.000000
vn 1.000000 -0.000001 0.000000
vn 1.000000 -0.000001 0.000000
vn 1.000000 -0.000001 0.000000
vn 1.000000 -0.000001 0.000000
vn -1.000000 -0.000001 0.000000
vn -1.000000 -0.000001 0.000000
vn -1.000000 -0.000001 0.000000
vn -1.000000 -0.000001 0.000000
vn 0.000000 0.000002 1.000000
vn 0.000000 0.000002 1.000000
vn 0.000000 0.000002 1.000000
vn 0.000000 0.000002 1.000000
vn 0.000000 -0.000001 -1.000000
vn 0.000000 -0.000001 -1.000000
vn 0.000000 -0.000001 -1.000000
vn 0.000000 -0.000001 -1.000000
vn 0.000000 -1.000000 0.000000
vn 0.000000 -1.000000 0.000000
vn 0.000000 -1.000000 0.000000
vn 0.000000 -1.000000 0.000000
vn 1.000000 -0.000001 0.000000
vn 1.000000 -0.000001 0.000000
vn 1.000000 -0.000001 0.000000
vn 1.000000 -0.000001 0.000000
vn -1.000000 -0.000001 0.000000
vn -1.000000 -0.000001 0.000000
vn -1.000000 -0.000001 0.000000
vn -1.000000 -0.000001 0.000000
vn 0.000000 0.000000 1.000000
vn 0.000000 0.000000 1.000000
vn 0.000000 0.000000 1.000000
vn 0.000000 0.000000 1.000000
vn 0.000000 0.000000 -1.000000
vn 0.000000 0.000000 -1.000000
vn 0.000000 0.000000 -1.000000
vn 0.000000 0.000000 -1.000000
vn 0.000000 -1.000000 0.000000
vn 0.000000 -1.000000 0.000000
vn 0.000000 -1.000000 0.000000
vn 0.000000 -1.000000 0.000000
vn 1.000000 -0.000001 0.000000
vn 1.000000 -0.000001 0.000000
vn 1.000000 -0.000001 0.000000
vn 1.000000 -0.000001 0.000000
vn -1.000000 -0.000001 0.000000
vn -1.000000 -0.000001 0.000000
vn -1.000000 -0.000001 0.000000
vn -1.000000 -0.000001 0.000000
vn 0.000000 0.000000 1.000000
vn 0.000000 0.000000 1.000000
vn 0.000000 0.000000 1.000000
vn 0.000000 0.000000 1.000000
vn 0.000000 0.000000 -1.000000
vn 0.000000 0.000000 -1.000000
vn 0.000000 0.000000 -1.000000
vn 0.000000 0.000000 -1.000000
vn 0.000000 -1.000000 0.000000
vn 0.000000 -1.000000 0.000000
vn 0.000000 -1.000000 0.000000
vn 0.000000 -1.000000 0.000000
vn 1.000000 -0.000001 0.000000
vn 1.000000 -0.000001 0.000000
vn 1.000000 -0.000001 0.000000
vn 1.000000 -0.000001 0.000000
vn -1.000000 -0.000001 -0.000000
vn -1.000000 -0.000001 -0.000000
vn -1.000000 -0.000001 -0.000000
vn -1.000000 -0.000001 -0.000000
vn 0.284144 -0.912733 -0.293565
vn 0.284144 -0.912733 0.293566
vn 0.188273 -0.962661 0.194516
vn 0.188273 -0.962662 -0.194515
vn 0.000000 -0.000045 -1.000000
vn 0.000000 -0.000045 -1.000000
vn 0.000000 -0.000045 -1.000000
vn 0.000000 -0.000045 -1.000000
vn -1.000000 -0.000023 0.000000
vn -1.000000 -0.000023 0.000000
vn -1.000000 -0.000023 0.000000
vn -1.000000 -0.000023 0.000000
vn 0.000000 1.000000 0.000000
vn 0.000000 1.000000 0.000000
vn 0.000000 1.000000 0.000000
vn 0.000000 1.000000 0.000000
vn -0.284145 0.912733 -0.293565
vn -0.284145 0.912733 0.293565
vn -0.188273 0.962662 0.194515
vn -0.188273 0.962662 -0.194515
vn -1.000000 -0.000023 0.000000
vn -1.000000 -0.000023 0.000000
vn -1.000000 -0.000023 0.000000
vn -1.000000 -0.000023 0.000000
vn -0.000001 -1.000000 0.000000
vn -0.000001 -1.000000 0.000000
vn -0.000001 -1.000000 0.000000
vn -0.000001 -1.000000 0.000000
vn 0.000001 1.000000 -0.000000
vn 0.000001 1.000000 -0.000000
vn 0.000001 1.000000 -0.000000
vn 0.000001 1.000000 -0.000000
vn 0.000000 -0.000045 -1.000000
vn 0.000000 -0.000045 -1.000000
vn 0.000000 -0.000045 -1.000000
vn 0.000000 -0.000045 -1.000000
vn 1.000000 -0.000023 0.000000
vn 1.000000 -0.000023 0.000000
vn 1.000000 -0.000023 0.000000
vn 1.000000 -0.000023 0.000000
vn 0.000000 1.000000 0.000000
vn 0.000000 1.000000 0.000000
vn 0.000000 1.000000 0.000000
vn 0.000000 1.000000 0.000000
vn 0.000000 -0.000045 -1.000000
vn 0.000000 -0.000045 -1.000000
vn 0.000000 -0.000045 -1.000000
vn 0.000000 -0.000045 -1.000000
vn 0.000000 -1.000000 0.000000
vn 0.000000 -1.000000 0.000000
vn 0.000000 -1.000000 0.000000
vn 0.000000 -1.000000 0.000000
vn 0.000000 1.000000 0.000000
vn 0.000000 1.000000 0.000000
vn 0.000000 1.000000 0.000000
vn 0.000000 1.000000 0.000000
vn 0.000000 0.000006 1.000000
vn 0.000000 0.000006 1.000000
vn 0.000000 0.000006 1.000000
vn 0.000000 0.000006 1.000000
vn -1.000000 -0.000022 -0.000000
vn -1.000000 -0.000022 -0.000000
vn -1.000000 -0.000022 -0.000000
vn -1.000000 -0.000022 -0.000000
vn 0.000001 1.000000 0.000000
vn 0.000001 1.000000 0.000000
vn 0.000001 1.000000 0.000000
vn 0.000001 1.000000 0.000000
vn 0.000000 0.000006 1.000000
vn 0.000000 0.000006 1.000000
vn 0.000000 0.000006 1.000000
vn 0.000000 0.000006 1.000000
vn 0.000000 -1.000000 0.000000
vn 0.000000 -1.000000 0.000000
vn 0.000000 -1.000000 0.000000
vn 0.000000 -1.000000 0.000000
vn 0.000000 1.000000 0.000000
vn 0.000000 1.000000 0.000000
vn 0.000000 1.000000 0.000000
vn 0.000000 1.000000 0.000000
vn 0.000000 0.000006 1.000000
vn 0.000000 0.000006 1.000000
vn 0.000000 0.000006 1.000000
vn 0.000000 0.000006 1.000000
vn 1.000000 -0.000021 0.000000
vn 1.000000 -0.000021 0.000000
vn 1.000000 -0.000021 0.000000
vn 1.000000 -0.000021 0.000000
vn 0.000000 1.000000 0.000000
vn 0.000000 1.000000 0.000000
vn 0.000000 1.000000 0.000000
vn 0.000000 1.000000 0.000000
vn 1.000000 -0.000024 0.000000
vn 1.000000 -0.000024 0.000000
vn 1.000000 -0.000024 0.000000
vn 1.000000 -0.000024 0.000000
vn 0.000000 -1.000000 0.000000
vn 0.000000 -1.000000 0.000000
vn 0.000000 -1.000000 0.000000
vn 0.000000 -1.000000 0.000000
vn 0.000000 1.000000 0.000000
vn 0.000000 1.000000 0.000000
vn 0.000000 1.000000 0.000000
vn 0.000000 1.000000 0.000000
vn 0.188273 0.962662 -0.194515
vn 0.284145 0.912733 -0.293565
vn 0.188273 0.962662 0.194515
vn 0.284145 0.912733 0.293565
vn -0.188273 -0.962662 -0.194515
vn -0.284144 -0.912733 -0.293565
vn -0.188273 -0.962661 0.194516
vn -0.284144 -0.912733 0.293566
s off
g polySurface79
usemtl initialShadingGroup
f 1/1/1 2/2/2 5/9/3 6/10/4
f 7/12/5 8/13/6 4/4/7 3/3/8
f 3/3/9 4/4/10 2/6/11 1/5/12
f 2/2/13 4/7/14 8/14/15 5/9/16
f 3/8/17 1/1/18 6/10/19 7/11/20
f 9/15/21 10/16/22 16/17/23 13/18/24
f 14/19/25 15/20/26 12/21/27 11/22/28
f 11/22/29 12/21/30 10/23/31 9/24/32
f 10/16/33 12/25/34 15/26/35 16/17/36
f 11/27/37 9/15/38 13/18/39 14/28/40
f 17/29/41 18/30/42 21/31/43 22/32/44
f 23/33/45 24/34/46 20/35/47 19/36/48
f 19/36/49 20/35/50 18/37/51 17/38/52
f 18/30/53 20/39/54 24/40/55 21/31/56
f 19/41/57 17/29/58 22/32/59 23/42/60
f 25/43/61 26/44/62 29/45/63 30/46/64
f 31/47/65 32/48/66 28/49/67 27/50/68
f 27/50/69 28/49/70 26/51/71 25/52/72
f 26/44/73 28/53/74 32/54/75 29/45/76
f 27/55/77 25/43/78 30/46/79 31/56/80
s 1
f 32/57/81 5/58/82 36/59/83 38/60/84
s off
f 7/61/85 41/62/86 42/63/87 8/64/88
f 6/65/89 43/66/90 41/67/91 7/68/92
f 43/69/93 44/70/94 42/71/95 41/72/96
s 2
f 44/73/97 45/74/98 37/75/99 35/76/100
s off
f 46/77/101 43/78/102 6/79/103 31/80/104
f 31/81/105 6/82/106 5/58/107 32/57/108
f 45/74/109 44/73/110 43/83/111 46/84/112
f 15/85/113 14/86/114 47/87/115 48/88/116
f 16/89/117 15/90/118 48/91/119 49/92/120
f 49/93/121 48/94/122 47/95/123 50/96/124
f 47/97/125 14/98/126 8/99/127 42/100/128
f 14/101/129 13/102/130 5/58/131 8/103/132
f 50/104/133 47/97/134 42/100/135 44/73/136
f 30/105/137 29/106/138 51/107/139 52/108/140
f 31/109/141 30/110/142 52/111/143 46/112/144
f 46/113/145 52/114/146 51/115/147 45/116/148
f 53/117/149 51/118/150 29/119/151 22/120/152
f 22/121/153 29/122/154 32/57/155 23/123/156
f 54/124/157 45/74/158 51/118/159 53/117/160
f 21/125/161 55/126/162 53/127/163 22/128/164
f 24/129/165 56/130/166 55/131/167 21/132/168
f 56/133/169 54/134/170 53/135/171 55/136/172
f 56/137/173 24/138/174 16/139/175 49/140/176
f 24/141/177 23/123/178 13/102/179 16/142/180
f 54/124/181 56/143/182 49/144/183 50/104/184
s 2
f 44/73/97 35/76/100 34/145/185 50/104/186
f 34/145/185 39/146/187 54/124/188 50/104/186
f 37/75/99 45/74/98 54/124/188 39/146/187
s 1
f 38/60/84 40/147/189 23/123/190 32/57/81
f 40/147/189 33/148/191 13/102/192 23/123/190
f 36/59/83 5/58/82 13/102/192 33/148/191
f 33/148/191 40/147/189 38/60/84 36/59/83
s 2
f 35/76/100 37/75/99 39/146/187 34/145/185
