# This file uses centimeters as units for non-parametric coordinates.

mtllib WingmanBed.mtl
g default
v 1.169796 0.614700 -1.376182
v -1.169798 0.614700 -1.376182
v -1.169798 -0.012335 -1.376182
v 1.169796 -0.012335 -1.376182
v -1.169798 0.614700 -1.073255
v 1.174909 0.614700 -1.073255
v 1.174909 -0.012335 -1.073255
v -1.169798 -0.012335 -1.073255
v 1.393748 -0.046494 -1.073255
v 1.393748 -0.046494 -1.461916
v 1.393748 0.638623 -1.461916
v 1.393748 0.638623 -1.073255
v 1.201509 -0.046494 -1.461916
v 1.201509 0.638623 -1.461916
v -1.192456 -0.046494 -1.461916
v -1.192456 0.638623 -1.461916
v -1.393748 -0.046494 -1.461916
v -1.393748 0.638623 -1.461916
v -1.393748 -0.046494 -1.073255
v -1.393748 0.638623 -1.073255
v -1.192456 -0.046494 -1.073255
v -1.192456 0.638623 -1.073255
v 1.201509 -0.046494 -1.073255
v 1.201509 0.638623 -1.073255
v 1.393748 0.920838 -1.461916
v 1.393748 0.920838 -1.073255
v 1.201509 0.920838 -1.461916
v -1.192456 0.920838 -1.461916
v -1.393748 0.920838 -1.461916
v -1.393748 0.920838 -1.073255
v -1.192456 0.920838 -1.073255
v 1.201509 0.920838 -1.073255
v 1.201509 -0.427290 -1.461916
v -1.192456 -0.427290 -1.461916
v 1.201509 -0.920838 -1.461916
v -1.192456 -0.920838 -1.461916
v 1.201509 -0.920838 -1.073255
v -1.192456 -0.920838 -1.073255
v 1.201509 -0.920838 1.461916
v -1.192456 -0.920838 1.461916
v 1.201509 -0.427290 1.461916
v -1.192456 -0.427290 1.461916
v 1.201509 -0.427290 -1.073255
v -1.192456 -0.427290 -1.073255
v -1.393748 -0.427290 -1.461916
v -1.393748 -0.920838 -1.461916
v -1.393748 -0.920838 -1.073255
v -1.393748 -0.920838 1.461916
v -1.393748 -0.427290 1.461916
v -1.393748 -0.427290 -1.073255
v 1.393748 -0.427290 -1.461916
v 1.393748 -0.427290 -1.073255
v 1.393748 -0.920838 -1.073255
v 1.393748 -0.920838 -1.461916
v 1.393748 -0.427290 1.461916
v 1.393748 -0.920838 1.461916
v 1.272807 -0.427290 -1.016363
v 1.137216 -0.150776 -0.889222
v 1.272807 -0.251326 -1.016363
v 1.137216 -0.150776 -0.793487
v 1.294536 -0.251326 -0.928301
v 1.294536 -0.427290 -0.928301
v 1.044050 -0.150776 -0.793487
v 1.044050 -0.150776 -0.889222
v 1.185291 -0.251326 -1.046543
v 1.185292 -0.427290 -1.046543
v -1.272806 -0.427290 -1.016363
v -1.137215 -0.150776 -0.889222
v -1.272806 -0.251326 -1.016363
v -1.137215 -0.150776 -0.793487
v -1.294535 -0.251326 -0.928301
v -1.294536 -0.427290 -0.928301
v -1.044050 -0.150776 -0.793487
v -1.044050 -0.150776 -0.889222
v -1.185291 -0.251326 -1.046543
v -1.185291 -0.427290 -1.046543
v 1.272807 -0.427290 1.405927
v 1.137216 -0.150776 1.278786
v 1.272807 -0.251326 1.405927
v 1.137216 -0.150776 1.183051
v 1.294536 -0.251326 1.317866
v 1.294536 -0.427290 1.317866
v 1.044050 -0.150776 1.183051
v 1.044050 -0.150776 1.278786
v 1.185291 -0.251326 1.436107
v 1.185292 -0.427290 1.436107
v -1.272806 -0.427290 1.405927
v -1.137215 -0.150776 1.278786
v -1.272806 -0.251326 1.405927
v -1.137215 -0.150776 1.183051
v -1.294535 -0.251326 1.317866
v -1.294536 -0.427290 1.317866
v -1.044050 -0.150776 1.183051
v -1.044050 -0.150776 1.278786
v -1.185291 -0.251326 1.436107
v -1.185291 -0.427290 1.436107
vt 0.625000 0.500000
vt 0.375000 0.500000
vt 0.375000 0.750000
vt 0.625000 0.750000
vt 0.375000 0.397765
vt 0.625000 0.397765
vt 0.772765 0.250000
vt 0.875000 0.250000
vt 0.875000 0.000000
vt 0.772765 0.000000
vt 0.625000 0.852235
vt 0.375000 0.852235
vt 0.227235 0.000000
vt 0.125000 0.000000
vt 0.125000 0.250000
vt 0.227235 0.250000
vt 0.625000 0.125000
vt 0.625000 0.250000
vt 0.625000 0.250000
vt 0.625000 0.125000
vt 0.607759 0.250000
vt 0.607759 0.250000
vt 0.393053 0.250000
vt 0.393053 0.250000
vt 0.375000 0.250000
vt 0.375000 0.250000
vt 0.375000 0.125000
vt 0.375000 0.125000
vt 0.393053 0.125000
vt 0.393053 0.125000
vt 0.607759 0.125000
vt 0.607759 0.125000
vt 0.625000 0.250000
vt 0.625000 0.125000
vt 0.607759 0.250000
vt 0.393053 0.250000
vt 0.375000 0.250000
vt 0.375000 0.125000
vt 0.393053 0.125000
vt 0.607759 0.125000
vt 0.607759 0.250000
vt 0.393053 0.250000
vt 0.607759 0.500000
vt 0.393053 0.500000
vt 0.607759 0.625000
vt 0.393053 0.625000
vt 0.607759 0.750000
vt 0.393053 0.750000
vt 0.607759 1.000000
vt 0.393053 1.000000
vt 0.607759 0.000000
vt 0.607759 0.125000
vt 0.393053 0.125000
vt 0.393053 0.000000
vt 0.375000 0.250000
vt 0.375000 0.500000
vt 0.375000 0.625000
vt 0.375000 0.750000
vt 0.375000 1.000000
vt 0.375000 0.125000
vt 0.375000 0.000000
vt 0.625000 0.250000
vt 0.625000 0.125000
vt 0.875000 0.125000
vt 0.875000 0.250000
vt 0.625000 0.500000
vt 0.625000 0.625000
vt 0.125000 0.125000
vt 0.125000 0.250000
vt 0.125000 0.000000
vt 0.625000 0.000000
vt 0.875000 0.000000
vt 0.625000 0.750000
vt 0.625000 1.000000
vt 0.000000 0.000000
vt 1.000000 0.000000
vt 1.000000 1.000000
vt 0.000000 1.000000
vt 0.000000 0.000000
vt 1.000000 0.000000
vt 1.000000 1.000000
vt 0.000000 1.000000
vt 0.000000 0.000000
vt 1.000000 0.000000
vt 1.000000 1.000000
vt 0.000000 1.000000
vt 0.000000 0.000000
vt 1.000000 0.000000
vt 1.000000 1.000000
vt 0.000000 1.000000
vt 0.875000 0.017882
vt 0.875000 0.017882
vt 0.767234 0.017882
vt 0.767234 0.017882
vt 0.625000 0.031459
vt 0.625000 0.031459
vt 0.609809 0.031458
vt 0.598586 0.031458
vt 0.598586 0.031458
vt 0.609809 0.031458
vt 0.612224 0.857764
vt 0.625000 0.857764
vt 0.625000 0.750000
vt 0.612224 0.750000
vt 0.598586 1.000000
vt 0.609809 1.000000
vt 0.609809 0.015842
vt 0.598586 0.015842
vt 0.625000 0.015843
vt 0.767234 -0.000000
vt 0.875000 0.000000
vt 0.612224 0.857764
vt 0.612224 0.750000
vt 0.625000 0.750000
vt 0.625000 0.857764
vt 0.598586 1.000000
vt 0.609809 1.000000
vt 0.609809 0.015842
vt 0.609809 0.031458
vt 0.598586 0.031458
vt 0.598586 0.015842
vt 0.625000 0.015843
vt 0.767234 -0.000000
vt 0.767234 0.017882
vt 0.625000 0.031459
vt 0.875000 0.017882
vt 0.875000 0.000000
vt 0.612224 0.857764
vt 0.612224 0.750000
vt 0.625000 0.750000
vt 0.625000 0.857764
vt 0.598586 1.000000
vt 0.609809 1.000000
vt 0.609809 0.015842
vt 0.598586 0.015842
vt 0.625000 0.015843
vt 0.767234 -0.000000
vt 0.875000 0.000000
vt 0.875000 0.017882
vt 0.767234 0.017882
vt 0.625000 0.031459
vt 0.609809 0.031458
vt 0.598586 0.031458
vt 0.612224 0.857764
vt 0.625000 0.857764
vt 0.625000 0.750000
vt 0.612224 0.750000
vt 0.598586 1.000000
vt 0.609809 1.000000
vt 0.609809 0.015842
vt 0.598586 0.015842
vt 0.625000 0.015843
vt 0.767234 -0.000000
vt 0.875000 0.000000
vn 0.000000 0.000000 1.000000
vn 0.000000 0.000000 1.000000
vn 0.000000 0.000000 1.000000
vn 0.000000 0.000000 1.000000
vn 0.000000 -1.000000 0.000000
vn 0.000000 -1.000000 0.000000
vn 0.000000 -1.000000 0.000000
vn 0.000000 -1.000000 0.000000
vn -0.999858 0.000000 0.016875
vn -0.999858 0.000000 0.016875
vn -0.999858 0.000000 0.016875
vn -0.999858 0.000000 0.016875
vn 0.000000 1.000000 0.000000
vn 0.000000 1.000000 0.000000
vn 0.000000 1.000000 0.000000
vn 0.000000 1.000000 0.000000
vn 1.000000 0.000000 0.000000
vn 1.000000 0.000000 0.000000
vn 1.000000 0.000000 0.000000
vn 1.000000 0.000000 0.000000
vn 1.000000 0.000000 0.000000
vn 1.000000 0.000000 0.000000
vn 1.000000 0.000000 0.000000
vn 1.000000 0.000000 0.000000
vn 0.000000 0.000000 -1.000000
vn 0.000000 0.000000 -1.000000
vn 0.000000 0.000000 -1.000000
vn 0.000000 0.000000 -1.000000
vn 0.000000 0.000000 -1.000000
vn 0.000000 0.000000 -1.000000
vn 0.000000 0.000000 -1.000000
vn 0.000000 0.000000 -1.000000
vn -1.000000 0.000000 0.000000
vn -1.000000 0.000000 0.000000
vn -1.000000 -0.000000 0.000000
vn -1.000000 -0.000000 0.000000
vn 0.000000 0.000000 1.000000
vn 0.000000 0.000000 1.000000
vn 0.000000 0.000000 1.000000
vn 0.000000 0.000000 1.000000
vn 0.000000 0.000000 1.000000
vn 0.000000 0.000000 1.000000
vn 0.000000 0.000000 1.000000
vn 0.000000 0.000000 1.000000
vn 1.000000 0.000000 0.000000
vn 1.000000 0.000000 0.000000
vn 0.000000 0.000000 -1.000000
vn 0.000000 0.000000 -1.000000
vn 0.000000 0.000000 -1.000000
vn 0.000000 0.000000 -1.000000
vn -1.000000 0.000000 0.000000
vn -1.000000 0.000000 0.000000
vn 0.000000 0.000000 1.000000
vn 0.000000 0.000000 1.000000
vn 0.000000 0.000000 1.000000
vn 0.000000 0.000000 1.000000
vn 0.000000 1.000000 0.000000
vn 0.000000 1.000000 0.000000
vn 0.000000 1.000000 0.000000
vn 0.000000 1.000000 0.000000
vn 0.000000 0.000000 -1.000000
vn 0.000000 0.000000 -1.000000
vn 0.000000 0.000000 -1.000000
vn 0.000000 0.000000 -1.000000
vn 0.000000 0.000000 -1.000000
vn 0.000000 0.000000 -1.000000
vn 0.000000 -1.000000 0.000000
vn 0.000000 -1.000000 0.000000
vn 0.000000 -1.000000 0.000000
vn 0.000000 -1.000000 0.000000
vn 0.000000 -1.000000 0.000000
vn 0.000000 -1.000000 0.000000
vn 0.000000 0.000000 1.000000
vn 0.000000 0.000000 1.000000
vn 0.000000 0.000000 1.000000
vn 0.000000 0.000000 1.000000
vn 0.000000 1.000000 0.000000
vn 0.000000 1.000000 0.000000
vn 0.000000 1.000000 0.000000
vn 0.000000 1.000000 0.000000
vn 0.000000 0.000000 1.000000
vn 0.000000 0.000000 1.000000
vn 0.000000 1.000000 0.000000
vn 0.000000 1.000000 0.000000
vn 0.000000 0.000000 -1.000000
vn 0.000000 0.000000 -1.000000
vn 0.000000 0.000000 -1.000000
vn 0.000000 -1.000000 0.000000
vn 0.000000 -1.000000 0.000000
vn 0.000000 -1.000000 0.000000
vn 0.000000 0.000000 1.000000
vn 0.000000 0.000000 1.000000
vn 0.000000 1.000000 0.000000
vn 0.000000 1.000000 0.000000
vn 0.000000 0.000000 1.000000
vn -1.000000 0.000001 0.000000
vn -1.000000 0.000001 0.000000
vn 0.000000 0.000000 -1.000000
vn 1.000000 0.000000 0.000000
vn 1.000000 0.000000 0.000000
vn 0.000000 0.000000 1.000000
vn 0.000000 1.000000 0.000000
vn 0.000000 1.000000 0.000000
vn 1.000000 0.000000 0.000000
vn 1.000000 0.000000 0.000000
vn 1.000000 0.000000 0.000000
vn 1.000000 0.000000 0.000000
vn 0.000000 -1.000000 0.000000
vn 0.000000 -1.000000 0.000000
vn -1.000000 0.000000 0.000000
vn -1.000000 0.000000 0.000000
vn -1.000000 0.000000 0.000000
vn -1.000000 0.000000 0.000000
vn -1.000000 0.000000 0.000000
vn -1.000000 0.000000 0.000000
vn 1.000000 0.000000 0.000000
vn 1.000000 0.000000 0.000000
vn 0.000000 0.000000 1.000000
vn 0.000000 0.000000 1.000000
vn 0.000000 -1.000000 0.000000
vn 0.000000 0.000000 -1.000000
vn 0.000000 0.000000 -1.000000
vn 0.000000 1.000000 0.000000
vn 0.000000 1.000000 0.000000
vn 0.000002 0.000000 1.000000
vn 0.000002 0.000000 1.000000
vn 0.000002 0.000000 1.000000
vn 0.000002 0.000000 1.000000
vn 0.000000 0.000000 1.000000
vn 0.000000 0.000000 1.000000
vn 0.000000 0.000000 1.000000
vn 0.000000 0.000000 1.000000
vn -0.000003 0.000000 1.000000
vn -0.000003 0.000000 1.000000
vn -0.000003 0.000000 1.000000
vn -0.000003 0.000000 1.000000
vn 0.000000 0.000000 1.000000
vn 0.000000 0.000000 1.000000
vn 0.000000 0.000000 1.000000
vn 0.000000 0.000000 1.000000
vn 0.992693 0.000001 0.120666
vn 0.992693 0.000001 -0.120666
vn 0.870402 0.484678 -0.086530
vn 0.870402 0.484678 0.086531
vn 0.277229 0.960667 -0.016202
vn 0.277229 0.960667 0.016202
vn 0.000000 1.000000 0.000000
vn 0.000000 1.000000 0.000000
vn 0.118832 0.487984 -0.864726
vn 0.614825 0.547000 -0.568138
vn 0.738255 0.000001 -0.674522
vn 0.165279 0.000000 -0.986247
vn 0.022500 0.961227 -0.274840
vn 0.216741 0.954452 -0.205049
vn -0.118832 0.487984 -0.864726
vn -0.165279 0.000000 -0.986247
vn -0.738255 0.000001 -0.674522
vn -0.614825 0.547000 -0.568138
vn -0.022499 0.961227 -0.274840
vn -0.216741 0.954452 -0.205049
vn -0.277229 0.960667 -0.016202
vn 0.000000 1.000000 0.000000
vn -0.870402 0.484678 -0.086530
vn -0.992693 0.000001 -0.120665
vn 0.118832 0.487984 0.864726
vn 0.165280 0.000000 0.986247
vn 0.738255 0.000001 0.674522
vn 0.614825 0.547000 0.568139
vn 0.022500 0.961227 0.274840
vn 0.216741 0.954452 0.205050
vn -0.992693 0.000001 0.120666
vn -0.870402 0.484678 0.086530
vn -0.277229 0.960667 0.016202
vn 0.000000 1.000000 0.000000
vn -0.118832 0.487984 0.864726
vn -0.614825 0.547000 0.568138
vn -0.738255 0.000001 0.674522
vn -0.165280 0.000000 0.986247
vn -0.022500 0.961227 0.274840
vn -0.216741 0.954452 0.205049
s off
g polySurface62
usemtl initialShadingGroup
f 1/1/1 2/2/2 3/3/3 4/4/4
f 5/5/5 2/2/6 1/1/7 6/6/8
f 6/7/9 1/8/10 4/9/11 7/10/12
f 7/11/13 4/4/14 3/3/15 8/12/16
f 8/13/17 3/14/18 2/15/19 5/16/20
s 1
f 9/17/21 10/18/22 11/19/23 12/20/24
s 2
f 11/19/25 10/18/26 13/21/27 14/22/28
f 14/22/28 13/21/27 15/23/29 16/24/30
f 16/24/30 15/23/29 17/25/31 18/26/32
s 3
f 17/25/33 19/27/34 20/28/35 18/26/36
s 4
f 19/27/37 21/29/38 22/30/39 20/28/40
f 9/17/41 12/20/42 24/31/43 23/32/44
s 1
f 12/20/24 11/19/23 25/33/45 26/34/46
s 2
f 25/33/47 11/19/25 14/22/28 27/35/48
f 27/35/48 14/22/28 16/24/30 28/36/49
f 28/36/49 16/24/30 18/26/32 29/37/50
s 3
f 18/26/36 20/28/35 30/38/51 29/37/52
s 4
f 20/28/40 22/30/39 31/39/53 30/38/54
f 22/30/39 24/31/43 32/40/55 31/39/53
f 12/20/42 26/34/56 32/40/55 24/31/43
s 6
f 28/36/57 31/39/58 32/40/59 27/35/60
s 2
f 13/21/27 33/41/61 34/42/62 15/23/29
s 7
f 33/41/63 35/43/64 36/44/65 34/42/66
s 8
f 35/43/67 37/45/68 38/46/69 36/44/70
f 37/45/68 39/47/71 40/48/72 38/46/69
s 9
f 39/47/73 41/49/74 42/50/75 40/48/76
s 10
f 41/51/77 43/52/78 44/53/79 42/54/80
s 4
f 43/52/81 23/32/44 21/29/38 44/53/82
s 6
f 30/38/83 31/39/58 28/36/57 29/37/84
s 2
f 15/23/29 34/42/62 45/55/85 17/25/31
s 7
f 34/42/66 36/44/65 46/56/86 45/55/87
s 8
f 36/44/70 38/46/69 47/57/88 46/56/89
f 38/46/69 40/48/72 48/58/90 47/57/88
s 9
f 40/48/76 42/50/75 49/59/91 48/58/92
s 10
f 42/54/80 44/53/79 50/60/93 49/61/94
s 4
f 44/53/82 21/29/38 19/27/37 50/60/95
s 3
f 45/55/96 50/60/97 19/27/34 17/25/33
s 2
f 10/18/26 51/62/98 33/41/61 13/21/27
s 1
f 52/63/99 51/62/100 10/18/22 9/17/21
s 4
f 52/63/101 9/17/41 23/32/44 43/52/81
s 6
f 27/35/60 32/40/59 26/34/102 25/33/103
s 11
f 52/63/104 53/64/105 54/65/106 51/62/107
s 8
f 54/66/108 53/67/109 37/45/68 35/43/67
s 12
f 47/68/110 50/60/111 45/55/112 46/69/113
f 48/70/114 49/61/115 50/60/111 47/68/110
s 11
f 55/71/116 56/72/117 53/64/105 52/63/104
s 9
f 56/73/118 55/74/119 41/49/74 39/47/73
s 8
f 53/67/109 56/73/120 39/47/71 37/45/68
s 7
f 51/62/121 54/66/122 35/43/64 33/41/63
s 10
f 55/71/123 52/63/124 43/52/78 41/51/77
s off
f 22/75/125 21/76/126 8/77/127 5/78/128
f 21/79/129 23/80/130 7/81/131 8/82/132
f 23/83/133 24/84/134 6/85/135 7/86/136
f 24/87/137 22/88/138 5/89/139 6/90/140
s 13
f 82/91/141 62/92/142 61/93/143 81/94/144
f 61/93/143 60/95/145 80/96/146 81/94/144
f 60/97/145 63/98/147 83/99/148 80/100/146
f 65/101/149 59/102/150 57/103/151 66/104/152
f 64/105/153 58/106/154 59/102/150 65/101/149
f 58/107/154 64/108/153 63/98/147 60/97/145
f 58/109/154 60/95/145 61/93/143 59/110/150
f 62/92/142 57/111/151 59/110/150 61/93/143
f 75/112/155 76/113/156 67/114/157 69/115/158
f 74/116/159 75/112/155 69/115/158 68/117/160
f 68/118/160 70/119/161 73/120/162 74/121/159
f 68/122/160 69/123/158 71/124/163 70/125/161
f 72/126/164 71/124/163 69/123/158 67/127/157
f 63/98/147 64/108/153 74/121/159 73/120/162
f 64/105/153 65/101/149 75/112/155 74/116/159
f 65/101/149 66/104/152 76/113/156 75/112/155
f 85/128/165 86/129/166 77/130/167 79/131/168
f 84/132/169 85/128/165 79/131/168 78/133/170
f 78/134/170 80/100/146 83/99/148 84/135/169
f 78/136/170 79/137/168 81/94/144 80/96/146
f 82/91/141 81/94/144 79/137/168 77/138/167
f 72/126/164 92/139/171 91/140/172 71/124/163
f 71/124/163 91/140/172 90/141/173 70/125/161
f 70/119/161 90/142/173 93/143/174 73/120/162
f 95/144/175 89/145/176 87/146/177 96/147/178
f 94/148/179 88/149/180 89/145/176 95/144/175
f 88/150/180 94/151/179 93/143/174 90/142/173
f 88/152/180 90/141/173 91/140/172 89/153/176
f 92/139/171 87/154/177 89/153/176 91/140/172
f 73/120/162 93/143/174 83/99/148 63/98/147
f 83/99/148 93/143/174 94/151/179 84/135/169
f 84/132/169 94/148/179 95/144/175 85/128/165
f 85/128/165 95/144/175 96/147/178 86/129/166
