# This file uses centimeters as units for non-parametric coordinates.

v 0.764161 1.188051 0.019062
v 0.145476 0.488289 0.019062
v 0.764161 1.204912 0.019062
v 0.145476 1.204912 0.019062
v 0.764161 1.204912 -0.019062
v 0.145476 1.204912 -0.019062
v 0.764161 1.188051 -0.019062
v 0.145476 0.488289 -0.019062
v 0.662385 1.059044 0.019062
v 0.662385 1.204912 0.019062
v 0.662385 1.204912 -0.019062
v 0.662385 1.059044 -0.019062
v 0.592302 0.994849 0.019062
v 0.592302 1.204912 0.019062
v 0.592302 1.204912 -0.019062
v 0.592302 0.994849 -0.019062
v 0.401981 0.847105 0.019062
v 0.401981 1.204912 0.019062
v 0.401981 1.204912 -0.019062
v 0.401981 0.847105 -0.019062
v 0.244556 0.684446 0.019062
v 0.244556 1.204912 0.019062
v 0.244556 1.204912 -0.019062
v 0.244556 0.684446 -0.019062
v -0.764161 1.188051 0.019062
v -0.145475 0.488289 0.019062
v -0.764161 1.204912 0.019062
v -0.145475 1.204912 0.019062
v -0.764161 1.204912 -0.019062
v -0.145475 1.204912 -0.019062
v -0.764161 1.188051 -0.019062
v -0.145475 0.488289 -0.019062
v -0.662385 1.059044 0.019062
v -0.662385 1.204912 0.019062
v -0.662385 1.204912 -0.019062
v -0.662385 1.059044 -0.019062
v -0.592302 0.994849 0.019062
v -0.592302 1.204912 0.019062
v -0.592302 1.204912 -0.019062
v -0.592302 0.994849 -0.019062
v -0.401981 0.847105 0.019062
v -0.401981 1.204912 0.019062
v -0.401981 1.204912 -0.019062
v -0.401981 0.847105 -0.019062
v -0.244556 0.684446 0.019062
v -0.244556 1.204912 0.019062
v -0.244556 1.204912 -0.019062
v -0.244556 0.684446 -0.019062
vt 0.401053 0.464089
vt 0.335406 0.464089
vt 0.401053 0.453213
vt 0.335406 0.370002
vt 0.290201 0.464089
vt 0.290201 0.328595
vt 0.167442 0.464089
vt 0.167442 0.233298
vt 0.065900 0.464089
vt 0.065900 0.128381
vt 0.001992 0.464089
vt 0.001992 0.001857
vt 0.101573 0.468080
vt 0.126163 0.468080
vt 0.101573 0.533728
vt 0.126163 0.533728
vt 0.126163 0.578932
vt 0.101573 0.578932
vt 0.126163 0.701691
vt 0.101573 0.701691
vt 0.126163 0.803233
vt 0.101573 0.803233
vt 0.126163 0.867142
vt 0.101573 0.867142
vt 0.806630 0.001857
vt 0.806630 0.012733
vt 0.740983 0.001857
vt 0.740983 0.095944
vt 0.695779 0.001857
vt 0.695779 0.137350
vt 0.573019 0.001857
vt 0.573019 0.232648
vt 0.471477 0.001857
vt 0.471477 0.337565
vt 0.407569 0.001857
vt 0.407569 0.464089
vt 0.868725 0.001857
vt 0.868725 0.464089
vt 0.844135 0.001857
vt 0.844135 0.464089
vt 0.837541 0.453213
vt 0.837541 0.464089
vt 0.812951 0.453213
vt 0.812951 0.464089
vt 0.837541 0.370002
vt 0.812951 0.370002
vt 0.812951 0.328595
vt 0.837541 0.328595
vt 0.812951 0.233298
vt 0.837541 0.233298
vt 0.812951 0.128381
vt 0.837541 0.128381
vt 0.812951 0.001857
vt 0.837541 0.001857
vt 0.598947 0.930312
vt 0.598947 0.919436
vt 0.664594 0.930312
vt 0.664594 0.836225
vt 0.709799 0.930312
vt 0.709799 0.794818
vt 0.832558 0.930312
vt 0.832558 0.699521
vt 0.934100 0.930312
vt 0.934100 0.594604
vt 0.998008 0.930312
vt 0.998008 0.468080
vt 0.070847 0.867142
vt 0.070847 0.801494
vt 0.095438 0.867142
vt 0.095438 0.801494
vt 0.095438 0.756289
vt 0.070847 0.756289
vt 0.095438 0.633530
vt 0.070847 0.633530
vt 0.095438 0.531989
vt 0.070847 0.531989
vt 0.095438 0.468080
vt 0.070847 0.468080
vt 0.193750 0.468080
vt 0.259398 0.468080
vt 0.193750 0.478956
vt 0.259398 0.562167
vt 0.304602 0.468080
vt 0.304602 0.603573
vt 0.427362 0.468080
vt 0.427362 0.698871
vt 0.528903 0.468080
vt 0.528903 0.803788
vt 0.592811 0.468080
vt 0.592811 0.930312
vt 0.132299 0.468080
vt 0.156889 0.468080
vt 0.132299 0.930312
vt 0.156889 0.930312
vt 0.163024 0.919436
vt 0.187615 0.919436
vt 0.163024 0.930312
vt 0.163024 0.836225
vt 0.187615 0.930312
vt 0.187615 0.836225
vt 0.187615 0.794818
vt 0.163024 0.794818
vt 0.187615 0.699521
vt 0.163024 0.699521
vt 0.187615 0.594604
vt 0.163024 0.594604
vt 0.187615 0.468080
vt 0.163024 0.468080
vn 0.000000 0.000000 1.000000
vn 0.000000 0.000000 1.000000
vn 0.000000 0.000000 1.000000
vn -0.000001 0.000000 1.000000
vn 0.000000 1.000000 0.000000
vn 0.000000 1.000000 0.000000
vn 0.000000 1.000000 0.000000
vn 0.000000 1.000000 0.000000
vn 0.000000 0.000000 -1.000000
vn -0.000001 0.000000 -1.000000
vn -0.000000 0.000000 -1.000000
vn 0.000001 0.000000 -1.000000
vn 0.785096 -0.619374 0.000000
vn 0.785093 -0.619379 0.000000
vn 0.732653 -0.680602 0.000000
vn 0.732651 -0.680605 0.000000
vn -1.000000 0.000000 0.000000
vn -1.000000 0.000000 0.000000
vn -1.000000 0.000000 0.000000
vn -1.000000 0.000000 0.000000
vn 1.000000 0.000000 0.000000
vn 1.000000 0.000000 0.000000
vn 1.000000 0.000000 0.000000
vn 1.000000 0.000000 0.000000
vn -0.000001 0.000000 1.000000
vn -0.000002 0.000000 1.000000
vn 0.000000 1.000000 0.000000
vn 0.000000 1.000000 0.000000
vn 0.000001 0.000000 -1.000000
vn 0.000001 0.000000 -1.000000
vn 0.655188 -0.755466 0.000000
vn 0.634423 -0.772986 0.000000
vn -0.000001 0.000000 1.000000
vn -0.000000 0.000000 1.000000
vn 0.000000 1.000000 0.000000
vn 0.000000 1.000000 0.000000
vn -0.000001 0.000000 -1.000000
vn 0.000000 0.000000 -1.000000
vn 0.649778 -0.760124 0.000000
vn 0.684977 -0.728565 0.000000
vn 0.000000 0.000000 1.000000
vn -0.000002 0.000000 1.000000
vn 0.000000 1.000000 0.000000
vn 0.000000 1.000000 0.000000
vn -0.000002 0.000000 -1.000000
vn -0.000001 0.000000 -1.000000
vn 0.784477 -0.620158 0.000000
vn 0.843072 -0.537801 0.000000
vn -0.000003 0.000000 1.000000
vn -0.000007 0.000000 1.000000
vn 0.000000 1.000000 0.000000
vn 0.000000 1.000000 0.000000
vn -0.000003 0.000000 -1.000000
vn -0.000002 0.000000 -1.000000
vn 0.892596 -0.450857 0.000000
vn 0.892593 -0.450863 0.000000
vn 0.000000 0.000000 1.000000
vn 0.000001 0.000000 1.000000
vn 0.000001 0.000000 1.000000
vn 0.000002 0.000000 1.000000
vn 0.000000 1.000000 0.000000
vn 0.000000 1.000000 0.000000
vn 0.000000 1.000000 0.000000
vn 0.000000 1.000000 0.000000
vn 0.000000 0.000000 -1.000000
vn 0.000000 0.000000 -1.000000
vn 0.000001 0.000000 -1.000000
vn -0.000001 0.000000 -1.000000
vn -0.785096 -0.619374 0.000000
vn -0.732653 -0.680603 0.000000
vn -0.785093 -0.619378 0.000000
vn -0.732651 -0.680605 0.000000
vn 1.000000 0.000000 0.000000
vn 1.000000 0.000000 0.000000
vn 1.000000 0.000000 0.000000
vn 1.000000 0.000000 0.000000
vn -1.000000 -0.000003 0.000000
vn -1.000000 -0.000004 0.000000
vn -1.000000 -0.000004 0.000000
vn -1.000000 -0.000006 0.000000
vn 0.000002 0.000000 1.000000
vn 0.000001 0.000000 1.000000
vn 0.000000 1.000000 0.000000
vn 0.000000 1.000000 0.000000
vn -0.000001 0.000000 -1.000000
vn -0.000001 0.000000 -1.000000
vn -0.655188 -0.755466 0.000000
vn -0.634423 -0.772986 0.000000
vn 0.000000 0.000000 1.000000
vn 0.000001 0.000000 1.000000
vn 0.000000 1.000000 0.000000
vn 0.000000 1.000000 0.000000
vn 0.000000 0.000000 -1.000000
vn 0.000001 0.000000 -1.000000
vn -0.649778 -0.760124 0.000000
vn -0.684977 -0.728565 0.000000
vn 0.000002 0.000000 1.000000
vn -0.000000 0.000000 1.000000
vn 0.000000 1.000000 0.000000
vn 0.000000 1.000000 0.000000
vn 0.000001 0.000000 -1.000000
vn 0.000002 0.000000 -1.000000
vn -0.784477 -0.620158 0.000000
vn -0.843071 -0.537802 0.000000
vn 0.000007 0.000000 1.000000
vn 0.000003 0.000000 1.000000
vn 0.000000 1.000000 0.000000
vn 0.000000 1.000000 0.000000
vn 0.000002 0.000000 -1.000000
vn 0.000003 0.000000 -1.000000
vn -0.892596 -0.450858 0.000000
vn -0.892593 -0.450864 0.000000
s 1
f 3/1/1 10/2/2 1/3/3
f 1/3/3 10/2/2 9/4/4
s 2
f 3/13/5 5/14/6 10/15/7
f 10/15/7 5/14/6 11/16/8
s 3
f 5/25/9 7/26/10 11/27/11
f 7/26/10 12/28/12 11/27/11
s 4
f 7/41/13 1/43/14 12/45/15
f 12/45/15 1/43/14 9/46/16
s 5
f 2/37/17 4/38/18 8/39/19
f 8/39/19 4/38/18 6/40/20
s 6
f 7/41/21 5/42/22 1/43/23
f 1/43/23 5/42/22 3/44/24
s 1
f 10/2/2 14/5/25 9/4/4
f 9/4/4 14/5/25 13/6/26
s 2
f 11/16/8 15/17/27 10/15/7
f 10/15/7 15/17/27 14/18/28
s 3
f 16/30/29 15/29/30 12/28/12
f 12/28/12 15/29/30 11/27/11
s 4
f 9/46/16 13/47/31 12/45/15
f 12/45/15 13/47/31 16/48/32
s 1
f 14/5/25 18/7/33 13/6/26
f 13/6/26 18/7/33 17/8/34
s 2
f 15/17/27 19/19/35 14/18/28
f 14/18/28 19/19/35 18/20/36
s 3
f 20/32/37 19/31/38 16/30/29
f 16/30/29 19/31/38 15/29/30
s 4
f 13/47/31 17/49/39 16/48/32
f 16/48/32 17/49/39 20/50/40
s 1
f 18/7/33 22/9/41 17/8/34
f 17/8/34 22/9/41 21/10/42
s 2
f 19/19/35 23/21/43 18/20/36
f 18/20/36 23/21/43 22/22/44
s 3
f 24/34/45 23/33/46 20/32/37
f 20/32/37 23/33/46 19/31/38
s 4
f 17/49/39 21/51/47 20/50/40
f 20/50/40 21/51/47 24/52/48
s 1
f 22/9/41 4/11/49 21/10/42
f 21/10/42 4/11/49 2/12/50
s 2
f 23/21/43 6/23/51 22/22/44
f 22/22/44 6/23/51 4/24/52
s 3
f 8/36/53 6/35/54 24/34/45
f 24/34/45 6/35/54 23/33/46
s 4
f 21/51/47 2/53/55 24/52/48
f 24/52/48 2/53/55 8/54/56
s 10
f 27/55/57 25/56/58 34/57/59
f 25/56/58 33/58/60 34/57/59
s 11
f 27/67/61 34/68/62 29/69/63
f 29/69/63 34/68/62 35/70/64
s 12
f 29/79/65 35/80/66 31/81/67
f 35/80/66 36/82/68 31/81/67
s 13
f 31/95/69 36/98/70 25/96/71
f 25/96/71 36/98/70 33/100/72
s 14
f 26/91/73 32/92/74 28/93/75
f 28/93/75 32/92/74 30/94/76
s 15
f 31/95/77 25/96/78 29/97/79
f 29/97/79 25/96/78 27/99/80
s 10
f 37/60/81 38/59/82 33/58/60
f 33/58/60 38/59/82 34/57/59
s 11
f 35/70/64 34/68/62 39/71/83
f 39/71/83 34/68/62 38/72/84
s 12
f 35/80/66 39/83/85 36/82/68
f 36/82/68 39/83/85 40/84/86
s 13
f 33/100/72 36/98/70 37/101/87
f 37/101/87 36/98/70 40/102/88
s 10
f 41/62/89 42/61/90 37/60/81
f 37/60/81 42/61/90 38/59/82
s 11
f 39/71/83 38/72/84 43/73/91
f 43/73/91 38/72/84 42/74/92
s 12
f 39/83/85 43/85/93 40/84/86
f 40/84/86 43/85/93 44/86/94
s 13
f 37/101/87 40/102/88 41/103/95
f 41/103/95 40/102/88 44/104/96
s 10
f 45/64/97 46/63/98 41/62/89
f 41/62/89 46/63/98 42/61/90
s 11
f 43/73/91 42/74/92 47/75/99
f 47/75/99 42/74/92 46/76/100
s 12
f 43/85/93 47/87/101 44/86/94
f 44/86/94 47/87/101 48/88/102
s 13
f 41/103/95 44/104/96 45/105/103
f 45/105/103 44/104/96 48/106/104
s 10
f 26/66/105 28/65/106 45/64/97
f 45/64/97 28/65/106 46/63/98
s 11
f 47/75/99 46/76/100 30/77/107
f 30/77/107 46/76/100 28/78/108
s 12
f 47/87/101 30/89/109 48/88/102
f 48/88/102 30/89/109 32/90/110
s 13
f 45/105/103 48/106/104 26/107/111
f 26/107/111 48/106/104 32/108/112
